<svg width="123" height="105" viewBox="0 0 123 105" fill="none" xmlns="http://www.w3.org/2000/svg">
<path d="M119.086 105L123 101.593C120.391 99.941 117.595 97.7729 114.614 95.0885C111.259 92.6106 109.395 90.236 109.023 87.9646L106.227 88.5841C96.5364 83.6283 87.0318 78.5693 77.7136 73.4071C68.3955 68.2448 60.3818 62.4631 53.6727 56.062C49.5727 54.41 44.9136 52.7581 39.6955 51.1062C34.1045 49.2478 30.3773 46.9764 28.5136 44.292C30.3773 42.0206 33.5454 40.3687 38.0182 39.3363C42.1182 38.3038 44.5409 36.5487 45.2864 34.0708L46.4045 35.6195C50.8773 33.5546 55.5364 31.1799 60.3818 28.4956C65.2273 25.6047 66.9045 22.4041 65.4136 18.8938L67.0909 18.5841L70.4455 19.2035L72.6818 18.8938C75.2909 17.4484 78.0864 15.8997 81.0682 14.2478C84.05 12.5959 86.2864 10.8407 87.7773 8.9823C90.0136 7.74336 92.0636 6.60767 93.9273 5.57522C95.7909 4.54277 97.0955 3.20059 97.8409 1.54867L93.9273 0C89.4545 0 84.2364 1.34218 78.2727 4.02655C71.9364 6.71091 65.6 9.9115 59.2636 13.6283C52.9273 17.3451 46.9636 20.9587 41.3727 24.469C35.4091 27.9794 30.5636 30.6637 26.8364 32.5221C20.5 35.6195 14.5364 38.7168 8.94546 41.8142C2.98182 44.705 -1.90735e-06 48.7316 -1.90735e-06 53.8938C-1.90735e-06 54.7198 0.186373 55.5457 0.559106 56.3717C0.931829 56.9912 1.30454 57.6106 1.67728 58.2301V57.6106L3.35455 56.062L5.03182 56.6814L6.70908 57.6106L4.47273 59.7788L11.7409 61.3274L14.5364 59.469L17.3318 62.5664C24.0409 65.0443 30.3773 67.8319 36.3409 70.9292C41.9318 73.8201 47.7091 76.7109 53.6727 79.6018L58.7046 78.0531L63.7364 79.9115C62.6182 81.3569 60.3818 82.5959 57.0273 83.6283C60.0091 85.0737 63.1773 85.8997 66.5318 86.1062L67.0909 85.4867L65.4136 83.938L66.5318 83.0089C69.1409 84.4543 71.75 86.4159 74.3591 88.8938L73.8 90.1327C80.8818 93.0236 88.5227 95.3982 96.7227 97.2566C104.923 99.3215 112.377 101.903 119.086 105Z" fill="currentColor"/>
</svg>