<svg width="80" height="40" viewBox="0 0 80 40" fill="none" xmlns="http://www.w3.org/2000/svg">
<path d="M6.10352e-05 1.27273L2.59593 0C3.85454 0.848486 5.50644 1.75758 7.55167 2.72727C9.43958 3.81818 11.2488 4.42424 12.9794 4.54546L12.5074 5.45455C16.2833 8.60606 20.1377 11.697 24.0709 14.7273C28.004 17.7576 32.4091 20.3636 37.2862 22.5455C38.5448 23.8788 39.8034 25.3939 41.062 27.0909C42.4779 28.9091 44.2085 30.1212 46.2538 30.7273C47.9843 30.1212 49.2429 29.0909 50.0296 27.6364C50.8162 26.303 52.1535 25.5152 54.0414 25.2727L52.8614 24.9091C54.4347 23.4545 56.2439 21.9394 58.2891 20.3636C60.4917 18.7879 62.9303 18.2424 65.6048 18.7273L65.8408 18.1818L65.3688 17.0909L65.6048 16.3636C66.7061 15.5152 67.886 14.6061 69.1446 13.6364C70.4032 12.6667 71.7405 11.9394 73.1564 11.4545C74.1004 10.7273 74.9656 10.0606 75.7523 9.45455C76.5389 8.84849 77.5615 8.42424 78.8201 8.18182L80.0001 9.45455C80.0001 10.9091 78.9774 12.6061 76.9322 14.5455C74.887 16.6061 72.4484 18.6667 69.6166 20.7273C66.7847 22.7879 64.0315 24.7273 61.357 26.5455C58.6825 28.4848 56.6372 30.0606 55.2213 31.2727C52.8614 33.3333 50.5015 35.2727 48.1417 37.0909C45.9391 39.0303 42.8712 40 38.9381 40C38.3088 40 37.6795 39.9394 37.0502 39.8182C36.5782 39.697 36.1063 39.5758 35.6343 39.4545H36.1063L37.2862 38.9091L36.8142 38.3636L36.1063 37.8182L34.4543 38.5455L33.2744 36.1818L34.6903 35.2727L32.3304 34.3636C30.4425 32.1818 28.3186 30.1212 25.9588 28.1818C23.7562 26.3636 21.5536 24.4849 19.3511 22.5455L20.531 20.9091L19.1151 19.2727C18.0138 19.6364 17.0699 20.3636 16.2832 21.4545C15.182 20.4848 14.5527 19.4545 14.3953 18.3636L14.8673 18.1818L16.0473 18.7273L16.7552 18.3636C15.6539 17.5152 14.1593 16.6667 12.2714 15.8182L11.3275 16C9.12494 13.697 7.31569 11.2121 5.89977 8.54545C4.32651 5.87879 2.35994 3.45455 6.10352e-05 1.27273Z" fill="#052319"/>
</svg>