<svg width="123" height="105" viewBox="0 0 123 105" fill="none" xmlns="http://www.w3.org/2000/svg">
<path d="M3.91364 105L0 101.593C2.60909 99.941 5.40455 97.7729 8.38636 95.0885C11.7409 92.6106 13.6045 90.236 13.9773 87.9646L16.7727 88.5841C26.4636 83.6283 35.9682 78.5693 45.2864 73.4071C54.6045 68.2448 62.6182 62.4631 69.3273 56.062C73.4273 54.41 78.0864 52.7581 83.3045 51.1062C88.8955 49.2478 92.6227 46.9764 94.4864 44.292C92.6227 42.0206 89.4546 40.3687 84.9818 39.3363C80.8818 38.3038 78.4591 36.5487 77.7136 34.0708L76.5955 35.6195C72.1227 33.5546 67.4636 31.1799 62.6182 28.4956C57.7727 25.6047 56.0955 22.4041 57.5864 18.8938L55.9091 18.5841L52.5545 19.2035L50.3182 18.8938C47.7091 17.4484 44.9136 15.8997 41.9318 14.2478C38.95 12.5959 36.7136 10.8407 35.2227 8.9823C32.9864 7.74336 30.9364 6.60767 29.0727 5.57522C27.2091 4.54277 25.9045 3.20059 25.1591 1.54867L29.0727 0C33.5455 0 38.7636 1.34218 44.7273 4.02655C51.0636 6.71091 57.4 9.9115 63.7364 13.6283C70.0727 17.3451 76.0364 20.9587 81.6273 24.469C87.5909 27.9794 92.4364 30.6637 96.1636 32.5221C102.5 35.6195 108.464 38.7168 114.055 41.8142C120.018 44.705 123 48.7316 123 53.8938C123 54.7198 122.814 55.5457 122.441 56.3717C122.068 56.9912 121.695 57.6106 121.323 58.2301V57.6106L119.645 56.062L117.968 56.6814L116.291 57.6106L118.527 59.7788L111.259 61.3274L108.464 59.469L105.668 62.5664C98.9591 65.0443 92.6227 67.8319 86.6591 70.9292C81.0682 73.8201 75.2909 76.7109 69.3273 79.6018L64.2954 78.0531L59.2636 79.9115C60.3818 81.3569 62.6182 82.5959 65.9727 83.6283C62.9909 85.0737 59.8227 85.8997 56.4682 86.1062L55.9091 85.4867L57.5864 83.938L56.4682 83.0089C53.8591 84.4543 51.25 86.4159 48.6409 88.8938L49.2 90.1327C42.1182 93.0236 34.4773 95.3982 26.2773 97.2566C18.0773 99.3215 10.6227 101.903 3.91364 105Z" fill="#F7F6BB"/>
</svg>
