<svg width="320" height="569" viewBox="0 0 320 569" fill="none" xmlns="http://www.w3.org/2000/svg">
<path d="M286.083 340H320V0L291.632 3.5C291.632 7.91298 280.922 13.5398 279.632 17.5516C281.782 19.2232 286.342 22.8673 287.374 24.0708C288.406 25.2743 287.517 30.59 286.944 33.0973C286.944 35.1032 284.65 41.9567 283.503 45.1327C284.363 46.9715 286.255 50.9499 286.944 52.1534C287.632 53.3569 287.517 58.3382 287.374 60.6785C288.664 61.6814 293.395 74.7198 297.696 80.236C301.997 85.7522 305.438 106.814 305.438 108.82C305.438 110.425 300.564 114.503 298.126 116.342C298.413 119.184 298.987 125.469 298.987 127.876C298.987 130.283 298.126 138.909 297.696 142.92C299.847 148.771 304.406 161.074 305.438 163.481C306.729 166.49 306.729 187.552 306.729 189.558C306.729 191.563 300.277 200.088 298.987 202.094C297.696 204.1 295.976 212.625 295.116 214.631C294.428 216.236 291.962 218.309 290.815 219.145C291.503 232.785 291.388 246.893 291.245 252.242C296.75 255.451 296.406 259.263 295.546 260.767C286.944 275.611 285.653 319.774 286.083 340Z" fill="#1B2021"/>
<path d="M264.697 429.013C265.197 435.513 277.197 455.013 282.197 477.513C285.469 492.239 290.5 476 320 474V287.054C320 287.054 306.697 292.013 306.197 294.013C305.697 296.013 301.697 314.013 300.197 315.013C298.697 316.013 293.197 316.013 292.197 319.013C291.397 321.413 290.863 322.68 290.697 323.013C285.097 327.413 282.697 331.513 282.197 333.013C286.697 356.513 280.197 361.513 278.697 363.013C277.197 364.513 282.197 380.013 281.697 382.013C281.197 384.013 272.197 396.013 268.697 398.513C265.197 401.013 269.697 415.513 268.197 418.513C266.697 421.513 264.197 422.513 264.697 429.013Z" fill="#1B2021"/>
<path d="M212 521.772C211.5 523.772 202.5 535.772 199 538.272L306.132 560.5C307.132 481.901 292.835 442.959 290.435 439.759C287.435 435.759 250 448.772 249.5 450.772C249 452.772 245 470.772 243.5 471.772C242 472.772 236.5 472.772 235.5 475.772C234.7 478.172 234.167 479.439 234 479.772C228.4 484.172 226 488.272 225.5 489.772C230 513.272 223.5 518.272 222 519.772C220.5 521.272 212.5 519.772 212 521.772Z" fill="#1B2021"/>
<path d="M250.697 510.013C251.197 516.513 268.197 558.513 268.197 558.513L320 569V385C315 385 305.697 390.013 305.197 392.013C304.697 394.013 300.697 412.013 299.197 413.013C297.697 414.013 292.197 414.013 291.197 417.013C290.397 419.413 289.863 420.68 289.697 421.013C284.097 425.413 281.697 429.513 281.197 431.013C285.697 454.513 279.197 459.513 277.697 461.013C276.197 462.513 268.197 461.013 267.697 463.013C267.197 465.013 258.197 477.013 254.697 479.513C251.197 482.013 255.697 496.513 254.197 499.513C252.697 502.513 250.197 503.513 250.697 510.013Z" fill="#1B2021"/>
<path d="M29.5 239.5C29 240 55.5 273.5 62.5 273.5C71.1667 276.167 89.4 283.7 93 292.5C92.6667 289.167 91.9 282.5 91.5 282.5C87.1 279.3 73 273.167 66.5 270.5C58 269 45.5 253 44.5 252.5C43.7 252.1 44.1667 237.333 44.5 230C44.5 225.333 44.4 215.8 44 215C43.6 214.2 43.5 211.333 43.5 210C48.5 206.229 49.5 205 47.5 206C45.5 207 41 207 41 203C41 199.8 41.6667 191.667 42 188C42.3333 185.167 42.4 178.8 40 176C37.6 173.2 38 174.167 38.5 175C40.9 179.4 39.5 192.833 38.5 199C38.1667 198.167 36.8 195.6 34 192C31.2 188.4 31.5 189.5 32 190.5C37.5 200 42 216 41 216C40 216 31 205 30.5 206C30.1 206.8 37.3333 215.667 41 220C41.1667 223.667 41.2 231 40 231C36.4 230.2 25.5 222 20.5 218C18.8333 216.333 15.7 213.6 16.5 216C17.5 219 38.5 232.5 40 234C41.5 235.5 40 248.5 39.5 249C39 249.5 30 239 29.5 239.5Z" fill="#1B2021"/>
<path d="M69 351C70.2 354.2 70.8333 368 71 374.5H77.5C78 366 79.4 348.5 81 346.5C83 344 91 327 94 317.5C97 308 97 292.5 96 280.5C95 268.5 94 272 89.5 257.5C88.3 250.7 86.6667 226.333 86 215L100 196.5C101 195 103 189.6 103 180C103 168 98.5 166 97 164.5C95.5 163 90.5 161.5 87 160.5C84.2 159.7 82.5 158.5 82 158C79 154.5 79 146.5 79 138C79 131.2 78 125.167 77.5 123C74.5 119 75.5 141 75.5 151.5C75.5 159.9 81.5 163 84.5 163.5C91.3 163.9 96.3333 169 98 171.5C101.2 181.1 93 195.5 88.5 201.5C86.8333 203 83.3 206.2 82.5 207C81.5 208 82 202.5 80 201.5C78 200.5 63 181.5 59 178C55 174.5 52.5 167.5 50 165C47.5 162.5 45 153.5 43.5 151C42 148.5 40.5 147 40.5 148C40.5 149 44.5 163 45.5 165C46.5 167 60 189 62 192C64 195 75 206 78 210C81 214 80 259 86 267C92 275 91.5 297.5 91 306C90.6 312.8 78.8333 334.167 73 344C62 333.5 62 334 58 328C56 326.8 53.1667 315.833 52 310.5C51.5 309.333 50 306.5 48 304.5C46 302.5 45.8333 303.333 46 304C48 311.5 52.3 327.4 53.5 331C55 335.5 67.5 347 69 351Z" fill="#1B2021"/>
<path d="M30.4859 297.282C37.321 299.789 44.048 302.977 48.6264 305.396C46.7371 306.64 43.9611 308.123 40.6711 309.256C36.5296 310.683 31.6382 311.534 26.714 310.713C20.3601 309.654 17.8633 308.71 16.2243 308.044C16.125 308.004 16.0272 307.964 15.9304 307.924C15.2225 307.634 14.5673 307.366 13.782 307.176C12.876 306.957 11.8276 306.847 10.2831 306.847C9.14308 306.847 7.83017 306.201 6.65416 305.031C5.49148 303.875 4.57435 302.311 4.19263 300.712C3.81268 299.121 3.9756 297.572 4.84467 296.317C5.71408 295.062 7.4096 293.929 10.4475 293.423C12.8375 293.025 15.9249 293.274 19.4174 293.998C22.894 294.718 26.6969 295.892 30.4859 297.282Z" fill="#880D1E" stroke="black" stroke-width="2"/>
<path d="M40.704 274.788L29.1666 267.097C29.9636 265.803 31.1617 264.167 32.5846 262.769C34.3498 261.035 36.2812 259.845 38.1015 259.845C38.9929 259.845 40.1287 260.181 41.4411 260.821C42.7371 261.452 44.1236 262.339 45.4935 263.343C47.758 265.004 49.9194 266.946 51.47 268.477L40.704 274.788Z" fill="#880D1E" stroke="black" stroke-width="2"/>
<path d="M76.1652 291.854L42.0656 277.01C41.9452 273.768 42.4216 269.012 44.2172 264.628C46.121 259.98 49.4614 255.844 55.0708 254.242C57.5949 253.52 59.994 254.441 62.3344 256.748C64.6916 259.071 66.8511 262.684 68.7583 266.958C72.2598 274.804 74.7889 284.594 76.1652 291.854Z" fill="#880D1E" stroke="black" stroke-width="2"/>
<path d="M66.3097 303.865C58.0371 308.297 50.7536 306.857 47.3625 305.298L72.0362 275.689C77.1737 274.644 79.7161 275.615 80.8419 277.163C82.0562 278.832 82.0536 281.694 80.8684 285.276C79.708 288.783 77.5106 292.67 74.8553 296.079C72.1938 299.496 69.1379 302.35 66.3097 303.865Z" fill="#880D1E" stroke="black" stroke-width="2"/>
<path d="M22.0847 264.522C26.9853 263.257 31.3398 265.011 34.874 267.854C38.0782 270.431 40.5206 273.843 41.9255 276.455L17.2863 291.557C16.0857 287.306 15.0057 281.399 15.2675 276.135C15.5595 270.264 17.4652 265.714 22.0847 264.522Z" fill="#880D1E" stroke="black" stroke-width="2"/>
<path d="M42.4252 292.405L27.6052 284.394C27.853 282.505 28.6788 279.876 30.4444 277.545C32.3931 274.972 35.5007 272.738 40.3413 272.254C45.1252 271.776 49.5099 273.796 53.1063 276.635C56.2532 279.119 58.7164 282.17 60.2025 284.504L42.4252 292.405Z" fill="#880D1E" stroke="black" stroke-width="2"/>
<path d="M42.7391 286.905L37.1232 285.501C37.2791 284.973 37.5476 284.368 37.9662 283.818C38.6097 282.973 39.6126 282.244 41.1885 282.1C42.6851 281.964 43.784 282.597 44.5993 283.513C45.1871 284.174 45.605 284.964 45.8662 285.654L42.7391 286.905Z" fill="#880D1E" stroke="black" stroke-width="2"/>
<path d="M42.516 288.1C43.0915 286.903 43.8949 285.446 44.8247 284.133C45.4446 283.258 46.1027 282.473 46.7668 281.876C47.4398 281.271 48.0567 280.915 48.592 280.796C49.9389 280.497 51.7448 280.612 53.5332 280.923C54.5496 281.1 55.523 281.333 56.3472 281.564L48.4842 289.427L42.516 288.1Z" fill="#880D1E" stroke="black" stroke-width="2"/>
<path d="M9.75711 284.1C10.0221 283.503 10.8119 283.082 11.6828 282.953C18.3563 282.291 26.4188 283.542 33.8439 285.413C41.1795 287.262 47.8039 289.693 51.6986 291.382C52.5142 292.085 53.4201 293.516 53.3577 295.586C53.2929 297.734 52.1769 300.716 48.524 304.369C46.4844 306.409 43.6022 306.95 40.127 306.364C36.6433 305.777 32.7222 304.076 28.8616 301.855C21.1382 297.411 13.9519 291.061 11.4644 288.159C9.47356 285.836 9.52552 284.622 9.75711 284.1Z" fill="#880D1E" stroke="black" stroke-width="2"/>
<path d="M75.8408 265.642C76.4206 266.58 76.7725 267.848 76.9114 268.763C76.8841 276.931 72.2378 284.803 66.255 291.402C60.4977 297.752 53.6219 302.789 48.8555 305.601C48.6924 305.429 48.4914 305.191 48.2637 304.889C47.6895 304.127 47.0014 303.034 46.387 301.754C45.138 299.152 44.3012 296.006 45.0558 293.365C45.2211 292.787 45.7051 291.892 46.5335 290.709C47.3445 289.552 48.4276 288.199 49.7063 286.722C52.2624 283.768 55.5576 280.366 58.9161 277.114C62.2736 273.863 65.6801 270.776 68.4538 268.454C69.8419 267.292 71.0611 266.33 72.0305 265.636C72.5158 265.289 72.9271 265.018 73.2583 264.824C73.6095 264.619 73.8039 264.541 73.8734 264.524C74.3011 264.417 74.6273 264.486 74.9148 264.652C75.2304 264.835 75.5461 265.165 75.8408 265.642ZM49.138 305.864C49.1602 305.876 49.1627 305.88 49.1426 305.867C49.1413 305.866 49.1397 305.865 49.138 305.864Z" fill="#880D1E" stroke="black" stroke-width="2"/>
<path d="M65.754 118.568C69.6489 119.997 73.4887 121.788 76.2598 123.222C75.164 123.886 73.7042 124.617 72.0188 125.198C69.5143 126.061 66.5762 126.568 63.6328 126.078C59.755 125.431 58.2486 124.859 57.2699 124.461C57.2102 124.437 57.1508 124.412 57.0914 124.388C56.6585 124.211 56.2278 124.034 55.7148 123.91C55.1184 123.766 54.4414 123.697 53.4746 123.697C52.9123 123.697 52.1978 123.371 51.517 122.694C50.8495 122.03 50.3245 121.131 50.1078 120.224C49.8929 119.324 49.9939 118.492 50.4503 117.833C50.9071 117.173 51.8391 116.516 53.639 116.216C55.0386 115.982 56.8811 116.125 59.0083 116.566C61.1196 117.003 63.4369 117.718 65.754 118.568Z" fill="#880D1E" stroke="black" stroke-width="2"/>
<path d="M72.1776 103.932L65.6039 99.5493C66.0707 98.8364 66.7089 98.0012 67.4463 97.2769C68.5114 96.2307 69.6037 95.591 70.5656 95.591C71.0279 95.591 71.6636 95.7691 72.4485 96.1516C73.2169 96.526 74.0484 97.0565 74.879 97.6657C76.085 98.5502 77.2449 99.5678 78.1471 100.432L72.1776 103.932Z" fill="#880D1E" stroke="black" stroke-width="2"/>
<path d="M93.4328 114.225L73.3794 105.496C73.3387 103.558 73.645 100.817 74.6799 98.2904C75.8202 95.5063 77.7987 93.076 81.0972 92.1336C82.4658 91.7426 83.8022 92.2161 85.1832 93.5773C86.5809 94.955 87.8841 97.1236 89.0484 99.7325C91.0705 104.263 92.5648 109.871 93.4328 114.225Z" fill="#880D1E" stroke="black" stroke-width="2"/>
<path d="M87.7142 121.911C83.1058 124.379 79.0309 123.8 76.8852 122.977L91.6235 105.291C94.6443 104.702 95.9679 105.323 96.5128 106.072C97.1416 106.936 97.1957 108.53 96.4747 110.709C95.7786 112.813 94.453 115.162 92.8423 117.23C91.2254 119.306 89.3869 121.015 87.7142 121.911Z" fill="#880D1E" stroke="black" stroke-width="2"/>
<path d="M60.8218 98.4523C63.6756 97.7158 66.228 98.7263 68.3413 100.426C70.1346 101.869 71.5349 103.754 72.3993 105.275L58.0136 114.092C57.3403 111.555 56.7739 108.215 56.9222 105.233C57.1 101.657 58.2491 99.1162 60.8218 98.4523Z" fill="#880D1E" stroke="black" stroke-width="2"/>
<path d="M73.2388 114.78L64.5386 110.077C64.7213 109 65.2084 107.581 66.1687 106.313C67.3059 104.812 69.1204 103.499 71.9802 103.213C74.7833 102.933 77.3797 104.114 79.5455 105.823C81.2761 107.19 82.665 108.843 83.5728 110.187L73.2388 114.78Z" fill="#880D1E" stroke="black" stroke-width="2"/>
<path d="M73.3875 111.426L70.4754 110.698C70.5556 110.521 70.659 110.339 70.7894 110.168C71.1262 109.725 71.6476 109.34 72.4972 109.263C73.2675 109.193 73.83 109.509 74.2696 110.003C74.5006 110.263 74.6856 110.562 74.8258 110.851L73.3875 111.426Z" fill="#880D1E" stroke="black" stroke-width="2"/>
<path d="M73.8429 112.295C74.1623 111.675 74.5627 110.983 75.0111 110.351C75.382 109.827 75.7677 109.369 76.1474 109.028C76.536 108.678 76.8565 108.507 77.0946 108.454C77.8473 108.287 78.8966 108.347 79.9807 108.535C80.3429 108.598 80.696 108.673 81.0266 108.753L76.8217 112.957L73.8429 112.295Z" fill="#880D1E" stroke="black" stroke-width="2"/>
<path d="M53.504 110.264C53.5856 110.08 53.8995 109.859 54.3823 109.786C58.4146 109.387 63.3129 110.143 67.8558 111.288C72.3061 112.409 76.3278 113.882 78.7098 114.911C79.1183 115.285 79.587 116.041 79.5535 117.152C79.5176 118.343 78.8969 120.087 76.6965 122.288C75.5648 123.419 73.9413 123.754 71.8743 123.406C69.7988 123.056 67.4357 122.036 65.0813 120.681C60.3705 117.971 55.9904 114.097 54.4933 112.35C53.2948 110.952 53.4568 110.37 53.504 110.264Z" fill="#880D1E" stroke="black" stroke-width="2"/>
<path d="M93.4241 98.9695C93.7381 99.4777 93.9406 100.185 94.0242 100.713C93.9965 105.58 91.2209 110.316 87.5771 114.334C84.1794 118.082 80.1384 121.081 77.2524 122.821C77.2101 122.768 77.1649 122.711 77.1172 122.647C76.7803 122.201 76.3707 121.551 76.0039 120.787C75.2501 119.216 74.7847 117.391 75.2092 115.905C75.2919 115.616 75.5567 115.111 76.0621 114.389C76.55 113.693 77.2062 112.873 77.9872 111.97C79.5477 110.167 81.5636 108.085 83.6222 106.092C85.6798 104.1 87.7657 102.21 89.4613 100.79C90.3103 100.079 91.051 99.4951 91.6355 99.0771C91.9283 98.8677 92.1705 98.7082 92.3601 98.5974C92.5299 98.4981 92.6148 98.4635 92.634 98.4557C92.6385 98.4539 92.6394 98.4535 92.6369 98.4541C92.8005 98.4132 92.8984 98.4396 92.9902 98.4927C93.1101 98.562 93.2628 98.7085 93.4241 98.9695Z" fill="#880D1E" stroke="black" stroke-width="2"/>
<path d="M32.4953 143.935C35.2243 144.936 37.9185 146.176 39.9523 147.211C39.1996 147.636 38.2626 148.08 37.2044 148.445C35.3494 149.084 33.1865 149.455 31.0292 149.095C28.1339 148.613 27.0205 148.187 26.3039 147.896C26.26 147.878 26.2158 147.86 26.1714 147.842C25.8474 147.709 25.5058 147.569 25.1009 147.471C24.6272 147.357 24.0976 147.304 23.3601 147.304C23.0271 147.304 22.55 147.105 22.0658 146.623C21.5948 146.155 21.2253 145.52 21.0741 144.887C20.9248 144.262 21.0012 143.714 21.2938 143.291C21.5868 142.868 22.2159 142.399 23.5245 142.181C24.5311 142.013 25.8795 142.114 27.465 142.442C29.0345 142.767 30.7623 143.3 32.4953 143.935Z" fill="#880D1E" stroke="white" stroke-width="2"/>
<path d="M37.4134 132.417L32.8146 129.351C33.1402 128.878 33.5563 128.353 34.0266 127.891C34.8138 127.118 35.5731 126.697 36.1944 126.697C36.4864 126.697 36.9237 126.812 37.4992 127.092C38.0583 127.365 38.6695 127.754 39.2862 128.206C40.0784 128.787 40.8448 129.447 41.4755 130.036L37.4134 132.417Z" fill="#880D1E" stroke="white" stroke-width="2"/>
<path d="M53.0264 140.021L38.554 133.721C38.5435 132.305 38.7802 130.361 39.5143 128.569C40.3517 126.525 41.7898 124.771 44.1712 124.091C45.0812 123.831 45.996 124.127 46.9962 125.113C48.0131 126.115 48.9766 127.711 49.8461 129.659C51.2834 132.88 52.3657 136.837 53.0264 140.021Z" fill="#880D1E" stroke="white" stroke-width="2"/>
<path d="M48.9541 145.992C45.7892 147.688 42.9791 147.422 41.3604 146.897L52.1418 133.96C54.3168 133.552 55.161 134.029 55.4775 134.465C55.874 135.01 55.9506 136.1 55.4139 137.722C54.902 139.269 53.9223 141.008 52.7261 142.544C51.5238 144.088 50.1683 145.342 48.9541 145.992Z" fill="#880D1E" stroke="white" stroke-width="2"/>
<path d="M28.9395 128.837C30.981 128.31 32.8184 129.026 34.3677 130.273C35.6052 131.268 36.591 132.554 37.2335 133.634L26.9255 139.952C26.4626 138.11 26.0942 135.783 26.1977 133.7C26.3302 131.036 27.1791 129.292 28.9395 128.837Z" fill="#880D1E" stroke="white" stroke-width="2"/>
<path d="M38.2123 140.58L31.9464 137.193C32.0985 136.444 32.4475 135.499 33.091 134.649C33.9061 133.573 35.2075 132.626 37.2813 132.419C39.2983 132.217 41.1851 133.065 42.7832 134.327C43.957 135.254 44.9187 136.361 45.5858 137.303L38.2123 140.58Z" fill="#880D1E" stroke="white" stroke-width="2"/>
<path d="M38.2955 138.077L36.5004 137.629C36.5194 137.6 36.5394 137.572 36.5604 137.544C36.7754 137.262 37.1058 137.013 37.6672 136.962C38.1493 136.918 38.4988 137.109 38.7895 137.435C38.8844 137.542 38.9682 137.659 39.041 137.779L38.2955 138.077Z" fill="#880D1E" stroke="white" stroke-width="2"/>
<path d="M39.0282 138.819C39.2338 138.442 39.4738 138.044 39.7356 137.675C40.0077 137.291 40.2853 136.963 40.5522 136.723C40.8279 136.475 41.0308 136.377 41.1509 136.35C41.6678 136.235 42.4169 136.273 43.2215 136.413C43.3333 136.433 43.4439 136.454 43.5525 136.476L40.8126 139.216L39.0282 138.819Z" fill="#880D1E" stroke="white" stroke-width="2"/>
<path d="M23.7263 137.469C23.8213 137.415 23.9477 137.374 24.0733 137.354C27.0574 137.06 30.6997 137.62 34.0984 138.476C37.4017 139.309 40.3889 140.4 42.1709 141.167C42.4212 141.411 42.7165 141.901 42.6945 142.631C42.67 143.442 42.2459 144.695 40.622 146.319C39.8505 147.09 38.7265 147.343 37.2183 147.089C35.7017 146.833 33.9567 146.083 32.2001 145.073C28.6847 143.05 25.4182 140.158 24.3141 138.87C23.8912 138.377 23.7094 138.028 23.6401 137.81C23.6069 137.705 23.6026 137.64 23.6034 137.608C23.6041 137.579 23.609 137.568 23.6098 137.567C23.6098 137.567 23.6098 137.567 23.6098 137.567C23.6105 137.565 23.6288 137.524 23.7263 137.469Z" fill="#880D1E" stroke="white" stroke-width="2"/>
<path d="M53.1474 129.115C53.3564 129.454 53.4993 129.939 53.5607 130.313C53.5328 133.869 51.4993 137.361 48.7841 140.355C46.3249 143.068 43.4113 145.256 41.2766 146.566C41.0407 146.246 40.7578 145.792 40.5025 145.26C39.9452 144.099 39.6272 142.798 39.9207 141.771C39.9706 141.596 40.1484 141.245 40.5256 140.707C40.8853 140.193 41.3722 139.584 41.9556 138.91C43.121 137.564 44.6293 136.006 46.172 134.512C47.7137 133.019 49.2756 131.604 50.5434 130.543C51.1785 130.011 51.7293 129.577 52.1611 129.268C52.3775 129.113 52.5526 128.998 52.686 128.92C52.7875 128.861 52.8372 128.839 52.8459 128.835C52.8847 128.827 52.8943 128.833 52.9051 128.84C52.9063 128.841 52.9075 128.841 52.9088 128.842C52.951 128.867 53.0391 128.94 53.1474 129.115Z" fill="#880D1E" stroke="white" stroke-width="2"/>
<path d="M32.4953 144.935C35.2243 145.936 37.9185 147.176 39.9523 148.211C39.1996 148.636 38.2626 149.08 37.2044 149.445C35.3494 150.084 33.1865 150.455 31.0292 150.095C28.1339 149.613 27.0205 149.187 26.3039 148.896C26.26 148.878 26.2158 148.86 26.1714 148.842C25.8474 148.709 25.5058 148.569 25.1009 148.471C24.6272 148.357 24.0976 148.304 23.3601 148.304C23.0271 148.304 22.55 148.105 22.0658 147.623C21.5948 147.155 21.2253 146.52 21.0741 145.887C20.9248 145.262 21.0012 144.714 21.2938 144.291C21.5868 143.868 22.2159 143.399 23.5245 143.181C24.5311 143.013 25.8795 143.114 27.465 143.442C29.0345 143.767 30.7623 144.3 32.4953 144.935Z" fill="#880D1E" stroke="black" stroke-width="2"/>
<path d="M37.4134 133.417L32.8146 130.351C33.1402 129.878 33.5563 129.353 34.0266 128.891C34.8138 128.118 35.5731 127.697 36.1944 127.697C36.4864 127.697 36.9237 127.812 37.4992 128.092C38.0583 128.365 38.6695 128.754 39.2862 129.206C40.0784 129.787 40.8448 130.447 41.4755 131.036L37.4134 133.417Z" fill="#880D1E" stroke="black" stroke-width="2"/>
<path d="M53.0264 141.021L38.554 134.721C38.5435 133.305 38.7802 131.361 39.5143 129.569C40.3517 127.525 41.7898 125.771 44.1712 125.091C45.0812 124.831 45.996 125.127 46.9962 126.113C48.0131 127.115 48.9766 128.711 49.8461 130.659C51.2834 133.88 52.3657 137.837 53.0264 141.021Z" fill="#880D1E" stroke="black" stroke-width="2"/>
<path d="M48.9541 146.992C45.7892 148.688 42.9791 148.422 41.3604 147.897L52.1418 134.96C54.3168 134.552 55.161 135.029 55.4775 135.465C55.874 136.01 55.9506 137.1 55.4139 138.722C54.902 140.269 53.9223 142.008 52.7261 143.544C51.5238 145.088 50.1683 146.342 48.9541 146.992Z" fill="#880D1E" stroke="black" stroke-width="2"/>
<path d="M28.9395 129.837C30.981 129.31 32.8184 130.026 34.3677 131.273C35.6052 132.268 36.591 133.554 37.2335 134.634L26.9255 140.952C26.4626 139.11 26.0942 136.783 26.1977 134.7C26.3302 132.036 27.1791 130.292 28.9395 129.837Z" fill="#880D1E" stroke="black" stroke-width="2"/>
<path d="M38.2123 141.58L31.9464 138.193C32.0985 137.444 32.4475 136.499 33.091 135.649C33.9061 134.573 35.2075 133.626 37.2813 133.419C39.2983 133.217 41.1851 134.065 42.7832 135.327C43.957 136.254 44.9187 137.361 45.5858 138.303L38.2123 141.58Z" fill="#880D1E" stroke="black" stroke-width="2"/>
<path d="M38.2955 139.077L36.5004 138.629C36.5194 138.6 36.5394 138.572 36.5604 138.544C36.7754 138.262 37.1058 138.013 37.6672 137.962C38.1493 137.918 38.4988 138.109 38.7895 138.435C38.8844 138.542 38.9682 138.659 39.041 138.779L38.2955 139.077Z" fill="#880D1E" stroke="black" stroke-width="2"/>
<path d="M39.0282 139.819C39.2338 139.442 39.4738 139.044 39.7356 138.675C40.0077 138.291 40.2853 137.963 40.5522 137.723C40.8279 137.475 41.0308 137.377 41.1509 137.35C41.6678 137.235 42.4169 137.273 43.2215 137.413C43.3333 137.433 43.4439 137.454 43.5525 137.476L40.8126 140.216L39.0282 139.819Z" fill="#880D1E" stroke="black" stroke-width="2"/>
<path d="M23.7263 138.469C23.8213 138.415 23.9477 138.374 24.0733 138.354C27.0574 138.06 30.6997 138.62 34.0984 139.476C37.4017 140.309 40.3889 141.4 42.1709 142.167C42.4212 142.411 42.7165 142.901 42.6945 143.631C42.67 144.442 42.2459 145.695 40.622 147.319C39.8505 148.09 38.7265 148.343 37.2183 148.089C35.7017 147.833 33.9567 147.083 32.2001 146.073C28.6847 144.05 25.4182 141.158 24.3141 139.87C23.8912 139.377 23.7094 139.028 23.6401 138.81C23.6069 138.705 23.6026 138.64 23.6034 138.608C23.6041 138.579 23.609 138.568 23.6098 138.567C23.6098 138.567 23.6098 138.567 23.6098 138.567C23.6105 138.565 23.6288 138.524 23.7263 138.469Z" fill="#880D1E" stroke="black" stroke-width="2"/>
<path d="M53.1474 130.115C53.3564 130.454 53.4993 130.939 53.5607 131.313C53.5328 134.869 51.4993 138.361 48.7841 141.355C46.3249 144.068 43.4113 146.256 41.2766 147.566C41.0407 147.246 40.7578 146.792 40.5025 146.26C39.9452 145.099 39.6272 143.798 39.9207 142.771C39.9706 142.596 40.1484 142.245 40.5256 141.707C40.8853 141.193 41.3722 140.584 41.9556 139.91C43.121 138.564 44.6293 137.006 46.172 135.512C47.7137 134.019 49.2756 132.604 50.5434 131.543C51.1785 131.011 51.7293 130.577 52.1611 130.268C52.3775 130.113 52.5526 129.998 52.686 129.92C52.7875 129.861 52.8372 129.839 52.8459 129.835C52.8847 129.827 52.8943 129.833 52.9051 129.84C52.9063 129.841 52.9075 129.841 52.9088 129.842C52.951 129.867 53.0391 129.94 53.1474 130.115Z" fill="#880D1E" stroke="black" stroke-width="2"/>
<path d="M10.9098 213.466C13.2048 214.308 15.4722 215.343 17.2247 216.226C16.6088 216.56 15.8671 216.901 15.0397 217.186C13.4266 217.742 11.5523 218.062 9.68756 217.751C7.15804 217.329 6.19104 216.959 5.57192 216.707C5.53392 216.692 5.49552 216.676 5.45665 216.66C5.17326 216.544 4.86471 216.417 4.50001 216.329C4.0721 216.226 3.59738 216.18 2.94518 216.18C2.69756 216.18 2.30889 216.028 1.89776 215.619C1.49997 215.223 1.18837 214.687 1.06161 214.156C0.936617 213.633 1.00393 213.19 1.23559 212.856C1.4676 212.521 1.98392 212.122 3.10958 211.934C3.96982 211.791 5.13439 211.876 6.51816 212.162C7.88597 212.446 9.39426 212.91 10.9098 213.466Z" fill="#880D1E" stroke="black" stroke-width="2"/>
<path d="M15.2673 203.109L11.4056 200.534C11.6753 200.153 12.0087 199.741 12.381 199.375C13.0647 198.704 13.7001 198.364 14.1946 198.364C14.4231 198.364 14.7866 198.456 15.2842 198.698C15.7653 198.933 16.2945 199.269 16.8315 199.663C17.4714 200.132 18.0925 200.661 18.6177 201.145L15.2673 203.109Z" fill="#880D1E" stroke="black" stroke-width="2"/>
<path d="M26.8508 207.887L16.3863 204.261C16.3928 203.047 16.6057 201.425 17.219 199.928C17.9436 198.159 19.1805 196.658 21.2205 196.075C22.0438 195.84 22.6699 196.044 23.2647 196.629C23.9195 197.272 24.5056 198.363 25.0184 199.813C25.8608 202.195 26.3937 205.196 26.8508 207.887Z" fill="#880D1E" stroke="black" stroke-width="2"/>
<path d="M25.3205 215.044C22.6899 216.453 20.3483 216.295 18.9363 215.883L28.2391 204.72C30.0972 204.379 30.7644 204.802 30.9967 205.122C31.3068 205.548 31.3918 206.45 30.9236 207.865C30.4803 209.205 29.6294 210.717 28.5875 212.055C27.5395 213.4 26.364 214.485 25.3205 215.044Z" fill="#880D1E" stroke="black" stroke-width="2"/>
<path d="M7.8665 200.236C9.60561 199.787 11.1767 200.393 12.5162 201.471C13.548 202.301 14.3791 203.366 14.9364 204.28L6.14963 209.665C5.76535 208.087 5.46877 206.134 5.55577 204.385C5.67141 202.06 6.40849 200.612 7.8665 200.236Z" fill="#880D1E" stroke="black" stroke-width="2"/>
<path d="M15.9687 210.272L10.6112 207.376C10.7502 206.751 11.0464 205.981 11.5729 205.285C12.2681 204.368 13.3785 203.557 15.1596 203.379C16.8839 203.206 18.5066 203.93 19.8933 205.025C20.8615 205.789 21.6637 206.696 22.2376 207.485L15.9687 210.272Z" fill="#880D1E" stroke="black" stroke-width="2"/>
<path d="M14.6755 207.748C14.8452 207.557 15.0945 207.398 15.4969 207.361C15.8716 207.327 16.142 207.471 16.3771 207.735C16.4224 207.786 16.4647 207.84 16.504 207.896L16.0276 208.086L14.6755 207.748Z" fill="#880D1E" stroke="black" stroke-width="2"/>
<path d="M16.8667 208.781C17.026 208.498 17.2059 208.207 17.3994 207.934C17.6346 207.602 17.8721 207.322 18.0969 207.12C18.3306 206.91 18.4897 206.839 18.566 206.822C18.995 206.727 19.6324 206.757 20.3329 206.879C20.3527 206.882 20.3725 206.886 20.3922 206.889L18.2032 209.078L16.8667 208.781Z" fill="#880D1E" stroke="black" stroke-width="2"/>
<path d="M3.32704 207.79C3.39441 207.752 3.48908 207.72 3.58609 207.704C6.17992 207.45 9.35462 207.936 12.3273 208.685C15.2026 209.41 17.8039 210.358 19.3626 211.027C19.5554 211.224 19.7863 211.616 19.7686 212.203C19.7484 212.872 19.3974 213.943 17.9881 215.352C17.3508 215.989 16.4127 216.212 15.1126 215.992C13.804 215.772 12.2892 215.123 10.7551 214.24C7.68476 212.474 4.83283 209.948 3.87507 208.83C3.51074 208.405 3.36221 208.113 3.30825 207.944C3.28854 207.882 3.28295 207.842 3.2819 207.82C3.2909 207.812 3.30523 207.802 3.32704 207.79ZM3.28312 207.797C3.28334 207.797 3.28317 207.8 3.28194 207.804C3.28229 207.799 3.2829 207.797 3.28312 207.797ZM3.26977 207.831C3.26913 207.832 3.26875 207.832 3.26872 207.832L3.26977 207.831Z" fill="#880D1E" stroke="black" stroke-width="2"/>
<path d="M28.9493 200.425C29.1194 200.701 29.24 201.103 29.293 201.42C29.2649 204.488 27.5077 207.516 25.1384 210.129C23.0291 212.456 20.5355 214.341 18.6824 215.491C18.4947 215.224 18.2791 214.868 18.0822 214.458C17.598 213.449 17.3349 212.343 17.5796 211.487C17.6174 211.355 17.7628 211.061 18.0923 210.591C18.4043 210.146 18.828 209.616 19.3379 209.026C20.3562 207.85 21.6755 206.487 23.0262 205.179C24.3759 203.872 25.7427 202.634 26.8512 201.706C27.4066 201.241 27.8868 200.862 28.2616 200.594C28.4497 200.46 28.5998 200.361 28.7122 200.296C28.7547 200.271 28.7854 200.255 28.8057 200.244C28.8341 200.269 28.8853 200.322 28.9493 200.425Z" fill="#880D1E" stroke="black" stroke-width="2"/>
<path d="M141.825 457.013C141.325 463.513 144.325 470.013 139.325 492.513C136.053 507.239 120.825 507.013 91.3252 505.013C90.669 453.44 0.899622 412.772 0 375.5V328C0 328 7 324 14.5 328C16.0472 328.336 16.3558 333.151 20 335.5L23.0609 336.775C24.2154 337.048 25.1388 337.156 26 338C27.1422 339.119 28.9126 341.687 30.4763 343.854L32.5 346.5C34.9909 349.373 44.6428 350.456 47 353.5C53.8029 362.285 58.009 366 59.5 366C61.5 366 61.6749 366.987 82 370C83.7833 370.264 89 364 92.5 366C94.6965 367.255 100 370.5 103.825 372.013C111.5 374 111.825 380.513 112.325 382.013C107.825 405.513 114.325 410.513 115.825 412.013C117.325 413.513 125.325 412.013 125.825 414.013C126.325 416.013 134.325 424.013 137.825 426.513C141.325 429.013 136.825 443.513 138.325 446.513C139.825 449.513 142.325 450.513 141.825 457.013Z" fill="#1B2021"/>
<path d="M131.825 480.013C131.325 486.513 119.325 506.013 114.325 528.513C111.053 543.239 95.8252 543.013 66.3252 541.013C65.3252 462.414 39 377 39 377C34 377 52.5 367.5 52.5 367.5C52.9295 367.143 55.2761 369.477 58.5 371C59.3447 371.399 59.4671 371.533 59.7241 371.734L61 372.5C62.6228 373.336 69.3161 372.595 71 373.5L75.4132 370.644C77.0822 369.084 78.7185 367.568 79.5 368C81.1235 368.897 84.6522 376.238 86 377C88.8883 378.633 88.5 383.5 88.5 383.5C88.5 383.5 91.8252 384.5 92.8252 387.5C93.6252 389.9 92.6585 390.68 92.8252 391.013C98.4252 395.413 100.825 399.513 101.325 401.013C96.8251 424.513 103.325 429.513 104.825 431.013C106.325 432.513 114.325 431.013 114.825 433.013C115.325 435.013 124.325 447.013 127.825 449.513C131.325 452.013 126.825 466.513 128.325 469.513C129.825 472.513 132.325 473.513 131.825 480.013Z" fill="#1B2021"/>
<path d="M99.8252 483.013C99.3252 489.513 87.3252 509.013 82.3252 531.513C79.0528 546.239 63.8252 546.013 34.3252 544.013C33.3252 465.414 7.60001 353.2 10 350C13 346 37.5 363 38 365C38.5 367 49.8252 385.013 51.3252 386.013C52.8252 387.013 58.3252 387.013 59.3252 390.013C60.1252 392.413 60.6585 393.68 60.8252 394.013C66.4252 398.413 68.8252 402.513 69.3252 404.013C64.8252 427.513 71.3252 432.513 72.8252 434.013C74.3252 435.513 82.3252 434.013 82.8252 436.013C83.3252 438.013 92.3252 450.013 95.8252 452.513C99.3252 455.013 94.8252 469.513 96.3252 472.513C97.8252 475.513 100.325 476.513 99.8252 483.013Z" fill="#1B2021"/>
<path d="M63.3889 458C62.8889 464.5 53.8889 484 48.8889 506.5C45.6165 521.226 29.5 521 0 519V333C7.17485 333 11.3889 338 11.8889 340C12.3889 342 16.3889 360 17.8889 361C19.3889 362 24.8889 362 25.8889 365C26.6889 367.4 27.2222 368.667 27.3889 369C32.9889 373.4 35.3889 377.5 35.8889 379C31.3889 402.5 37.8889 407.5 39.3889 409C40.8889 410.5 46.8889 409 47.3889 411C47.8889 413 56.5453 423.282 57.3889 427.5C57.8889 430 58.3889 444.5 59.8889 447.5C61.3889 450.5 63.8889 451.5 63.3889 458Z" fill="#1B2021"/>
<path d="M54.3889 508C53.8889 514.5 36.8889 556.5 36.8889 556.5L0 569V383C7.17485 383 7.38888 388 7.88888 390C8.38888 392 12.3889 410 13.8889 411C15.3889 412 20.8889 412 21.8889 415C22.6889 417.4 23.2222 418.667 23.3889 419C28.9889 423.4 31.3889 427.5 31.8889 429C27.3889 452.5 33.8889 457.5 35.3889 459C36.8889 460.5 36.8889 459 37.3889 461C37.8889 463 46.8889 475 50.3889 477.5C53.8889 480 49.3889 494.5 50.8889 497.5C52.3889 500.5 54.8889 501.5 54.3889 508Z" fill="#1B2021"/>
</svg>
