<svg width="320" height="72" viewBox="0 0 320 72" fill="none" xmlns="http://www.w3.org/2000/svg">
<path fill-rule="evenodd" clip-rule="evenodd" d="M302.774 45.8484L273.954 19.8442C250.324 11.0658 199.42 -4.90112 184.845 1.45913C170.269 7.81938 161.656 13.2505 160 14.7412C158.344 13.2505 149.731 7.8194 135.155 1.45915C120.58 -4.9011 69.6755 11.0658 46.0455 19.8442L17.2256 45.8484L23.5196 56.6144L160 45.8799L296.48 56.6144L302.774 45.8484Z" fill="#DCEAB2"/>
<path fill-rule="evenodd" clip-rule="evenodd" d="M142.277 62.1408C140.566 59.4323 128.232 55.0033 120.414 55.3283C113.751 55.6053 94.0216 60.2604 78.8021 63.8514C76.1645 64.4737 73.6624 65.0641 71.3872 65.5942L0 72L17.7226 45.2802C30.7522 45.0093 65.6495 40.6265 71.3872 39.0965C77.6791 37.4186 83.6629 35.4806 89.3952 33.624C106.298 28.1495 121.013 23.3835 134.99 28.086C149.963 33.1239 157.902 41.8318 160 45.5561V45.5635C162.098 41.8393 170.037 33.1313 185.01 28.0935C198.987 23.3909 213.702 28.1569 230.605 33.6314C236.337 35.488 242.321 37.426 248.613 39.1039C254.35 40.6339 289.248 45.0168 302.277 45.2876L320 72L248.613 65.6016C246.338 65.0715 243.835 64.4811 241.198 63.8588C225.978 60.2678 206.249 55.6128 199.586 55.3357C191.768 55.0107 179.434 59.4397 177.723 62.1482H160V62.1408H142.277Z" fill="#475016"/>
</svg>
