<svg width="320" height="72" viewBox="0 0 320 72" fill="none" xmlns="http://www.w3.org/2000/svg">
<path d="M73 41H250.5L320 72H0L73 41Z" fill="#DCEAB2"/>
<mask id="path-2-inside-1_30_685" fill="white">
<path fill-rule="evenodd" clip-rule="evenodd" d="M302.774 45.8484L273.954 19.8442C250.324 11.0658 199.42 -4.90112 184.845 1.45913C170.269 7.81938 161.656 13.2505 160 14.7412C158.344 13.2505 149.731 7.8194 135.155 1.45915C120.58 -4.9011 69.6755 11.0658 46.0455 19.8442L17.2256 45.8484L23.5196 56.6144L160 45.8799L296.48 56.6144L302.774 45.8484Z"/>
</mask>
<path fill-rule="evenodd" clip-rule="evenodd" d="M302.774 45.8484L273.954 19.8442C250.324 11.0658 199.42 -4.90112 184.845 1.45913C170.269 7.81938 161.656 13.2505 160 14.7412C158.344 13.2505 149.731 7.8194 135.155 1.45915C120.58 -4.9011 69.6755 11.0658 46.0455 19.8442L17.2256 45.8484L23.5196 56.6144L160 45.8799L296.48 56.6144L302.774 45.8484Z" fill="#FFE5EC"/>
<path d="M273.954 19.8442L274.624 19.1018L274.482 18.9735L274.303 18.9068L273.954 19.8442ZM302.774 45.8484L303.637 46.3531L304.048 45.6508L303.444 45.1059L302.774 45.8484ZM184.845 1.45913L185.245 2.37567L185.245 2.37567L184.845 1.45913ZM160 14.7412L159.331 15.4845L160 16.0866L160.669 15.4845L160 14.7412ZM135.155 1.45915L134.755 2.37569L134.755 2.37569L135.155 1.45915ZM46.0455 19.8442L45.6972 18.9068L45.5177 18.9735L45.3756 19.1018L46.0455 19.8442ZM17.2256 45.8484L16.5557 45.1059L15.9518 45.6509L16.3623 46.3531L17.2256 45.8484ZM23.5196 56.6144L22.6563 57.1191L22.9728 57.6605L23.598 57.6113L23.5196 56.6144ZM160 45.8799L160.078 44.883L160 44.8768L159.921 44.883L160 45.8799ZM296.48 56.6144L296.402 57.6113L297.027 57.6605L297.343 57.1191L296.48 56.6144ZM273.284 20.5867L302.104 46.5908L303.444 45.1059L274.624 19.1018L273.284 20.5867ZM185.245 2.37567C188.629 0.899009 194.309 0.670094 201.492 1.40885C208.618 2.14186 217.037 3.8042 225.766 5.94585C243.22 10.2283 261.816 16.4017 273.606 20.7816L274.303 18.9068C262.462 14.5083 243.791 8.30901 226.242 4.00346C217.47 1.85112 208.952 0.165623 201.696 -0.580656C194.497 -1.3212 188.348 -1.16088 184.445 0.542588L185.245 2.37567ZM160.669 15.4845C161.404 14.8229 163.879 13.1404 168.066 10.799C172.218 8.47662 177.985 5.54327 185.245 2.37567L184.445 0.542588C177.128 3.73524 171.302 6.69758 167.089 9.05349C162.911 11.3904 160.252 13.1688 159.331 13.9979L160.669 15.4845ZM160.669 13.9979C159.748 13.1688 157.089 11.3904 152.91 9.05351C148.698 6.6976 142.872 3.73526 135.555 0.542608L134.755 2.37569C142.014 5.54329 147.782 8.47664 151.934 10.799C156.12 13.1404 158.596 14.8229 159.331 15.4845L160.669 13.9979ZM135.555 0.542609C131.651 -1.16086 125.503 -1.32118 118.303 -0.580636C111.048 0.165644 102.53 1.85114 93.7575 4.00348C76.2087 8.30903 57.5373 14.5083 45.6972 18.9068L46.3937 20.7816C58.1837 16.4017 76.7794 10.2283 94.234 5.94587C102.963 3.80422 111.381 2.14189 118.508 1.40887C125.69 0.670114 131.371 0.89903 134.755 2.37569L135.555 0.542609ZM45.3756 19.1018L16.5557 45.1059L17.8955 46.5908L46.7154 20.5867L45.3756 19.1018ZM16.3623 46.3531L22.6563 57.1191L24.3829 56.1097L18.0889 45.3437L16.3623 46.3531ZM23.598 57.6113L160.078 46.8768L159.921 44.883L23.4412 55.6175L23.598 57.6113ZM296.559 55.6175L160.078 44.883L159.921 46.8768L296.402 57.6113L296.559 55.6175ZM301.911 45.3437L295.617 56.1097L297.343 57.1191L303.637 46.3531L301.911 45.3437Z" fill="black" mask="url(#path-2-inside-1_30_685)"/>
<path fill-rule="evenodd" clip-rule="evenodd" d="M142.277 62.1408C140.566 59.4322 128.232 55.0033 120.414 55.3283C113.751 55.6053 94.0216 60.2604 78.8021 63.8514C76.1645 64.4737 73.6624 65.0641 71.3872 65.5942L0 72L17.7226 45.2802C30.7522 45.0093 65.6495 40.6265 71.3872 39.0964C77.6791 37.4186 83.6629 35.4805 89.3952 33.624C106.298 28.1495 121.013 23.3835 134.99 28.086C149.963 33.1239 157.902 41.8318 160 45.5561V45.5635C162.098 41.8392 170.037 33.1313 185.01 28.0934C198.987 23.3909 213.702 28.1569 230.605 33.6314C236.337 35.488 242.321 37.426 248.613 39.1039C254.35 40.6339 289.248 45.0167 302.277 45.2876L320 72L248.613 65.6016C246.338 65.0715 243.835 64.4811 241.198 63.8588C225.978 60.2678 206.249 55.6127 199.586 55.3357C191.768 55.0107 179.434 59.4397 177.723 62.1482H160V62.1408H142.277Z" fill="#1B2021"/>
</svg>
