<svg width="320" height="93" viewBox="0 0 320 93" fill="none" xmlns="http://www.w3.org/2000/svg">
<path d="M274.828 45.0338C267.673 47.0338 244.683 45.8671 234.083 45.0338C225.735 43.4338 243.855 41.7005 253.959 41.0338C259.921 30.6338 267.043 36.7005 269.859 41.0338C274.496 41.5338 281.983 43.0338 274.828 45.0338Z" fill="#1B2021"/>
<path d="M311.655 10.197C297.919 12.9075 262.164 11.9717 246.004 11.165C239.136 8.45455 251.559 4.87284 258.629 3.4208C261.861 -2.00017 267.72 1.16206 270.245 3.4208C276.709 -2.7746 283.038 0.839384 285.395 3.4208C289.098 2.61411 298.424 1.87195 306.1 5.35686C315.696 9.713 328.826 6.80891 311.655 10.197Z" fill="#1B2021"/>
<path d="M181.91 37.5338H115.328C108.173 37.5338 114.996 32.5338 119.303 30.0338C121.688 25.6338 130.234 25.8671 134.209 26.5338C135.402 21.3338 141.663 21.0338 144.644 21.5338C149.812 13.1338 158.722 16.7004 162.532 19.5338C171.674 15.5338 174.291 22.2004 174.457 26.0338C176.842 25.2338 180.42 27.0338 181.91 28.0338C189.463 34.4338 185.057 37.0338 181.91 37.5338Z" fill="#1B2021"/>
<path d="M213.214 92.5338C205.264 92.5338 202.945 92.2005 202.78 92.0338C196.32 91.0338 206.755 88.5338 207.251 87.0338C207.748 85.5338 213.214 85.5338 219.674 87.5338C226.133 89.5338 223.152 92.5338 213.214 92.5338Z" fill="#1B2021"/>
<path d="M63.6517 65.322C33.8386 68.122 9.15996 62.822 0.547294 59.822C-3.42778 58.6058 15.4538 52.322 18.4351 52.322C21.4165 52.322 29.8635 48.322 30.8573 50.822C34.4348 55.622 39.9668 58.1553 42.2856 58.822C65.7386 64.022 66.3017 65.322 63.6517 65.322Z" fill="#1B2021"/>
</svg>
