<svg width="320" height="345" viewBox="0 0 320 345" fill="none" xmlns="http://www.w3.org/2000/svg">
<path d="M192.5 13.4714C186.9 13.0714 166.167 21.3048 156.5 25.4714L181 38.4714L244.5 30.4714C242.333 25.9714 237.6 16.2714 236 13.4714C234 9.97143 223.5 15.9714 219 13.4714C214.5 10.9714 199.5 13.9714 192.5 13.4714Z" fill="url(#paint0_linear_30_583)"/>
<path d="M106 22.9714C98.8 24.1714 84.6667 33.1381 78.5 37.4714L150 41.4714C138.333 34.8048 113.2 21.7714 106 22.9714Z" fill="url(#paint1_linear_30_583)"/>
<path d="M199 41.4714C166.2 7.87144 127 26.4714 111.5 39.9714L165.5 59.9714L199 41.4714Z" fill="url(#paint2_linear_30_583)"/>
<path d="M243.5 18.4713C227.1 19.2713 162.167 45.9713 149 53.9713C193.5 71.9713 320 38 320 35C320 28.2732 264 17.4713 243.5 18.4713Z" fill="url(#paint3_linear_30_583)"/>
<path d="M241 51.4714C203.4 32.6714 180 46.3048 173 55.4714L214 70.4714L241 51.4714Z" fill="url(#paint4_linear_30_583)"/>
<path d="M254 38.9714C232 44.9714 217.167 58.8047 212.5 64.9714L320 82.9999V0.759552L310.5 2.5C299 6.49999 281.5 31.4714 254 38.9714Z" fill="url(#paint5_linear_30_583)"/>
<path d="M146.5 55.4714C70.9 3.87138 23 21.6667 0 36L86 70L146.5 55.4714Z" fill="url(#paint6_linear_30_583)"/>
<path d="M19.5 15.4714C39.1 11.4714 58.6667 40.8048 66 55.9714L0 32V21C2.78251 19.0559 11.5005 17.104 19.5 15.4714Z" fill="url(#paint7_linear_30_583)"/>
<path d="M63 27.9714C58.6 27.5714 38.5 36.4714 29 40.9714L75.5 68.4714C88.8333 63.6381 115.2 53.3714 114 50.9714C112.5 47.9714 68.5 28.4714 63 27.9714Z" fill="url(#paint8_linear_30_583)"/>
<path d="M145.5 48.4714C100.7 40.8714 69.1667 65.6381 59 78.9714L266.5 74.4714C244.833 68.9714 190.3 56.0714 145.5 48.4714Z" fill="url(#paint9_linear_30_583)"/>
<path d="M40.5 38.5C32 35.5286 7 28 0 28.9714V82L89.5 109.971L130.5 81.9714C102.667 69.4714 59.6086 45.18 40.5 38.5Z" fill="url(#paint10_linear_30_583)"/>
<path d="M166.5 62.9714C137.3 63.7714 94.3333 84.6381 76.5 94.9714L186.5 118.471L291 106.971C286.5 99.4714 203 61.9714 166.5 62.9714Z" fill="url(#paint11_linear_30_583)"/>
<path d="M190.5 72.4714C184.5 75.6714 120.667 110.805 89.5 127.971L320 132.471V29C320 29 309.5 28.9714 299 30.9714C288.5 32.9714 247.5 55.9714 234.5 64.9714C221.5 73.9714 198 68.4714 190.5 72.4714Z" fill="url(#paint12_linear_30_583)"/>
<path d="M19 62.9714C16.5 61.2685 5.5 54.6637 0 54.6637V152L186 151.971C187.667 131.471 140.4 95.3714 128 92.9714C112.5 89.9714 53.5 86.4715 19 62.9714Z" fill="url(#paint13_linear_30_583)"/>
<path d="M320 74C269.6 52.8 174.167 113.305 121.5 145.471L320 168V74Z" fill="url(#paint14_linear_30_583)"/>
<path d="M146.5 127.251C100.9 118.051 41.5 146.751 17.5 162.251L127 207.251L292.5 159C277.833 151.167 192.1 136.451 146.5 127.251Z" fill="url(#paint15_linear_30_583)"/>
<path d="M133 158.872C113.5 143.872 80.5 122.5 20.5 101.5L0 96V193L170 201.471C171.833 187.971 148.6 170.872 133 158.872Z" fill="url(#paint16_linear_30_583)"/>
<path d="M252 148.471C200.517 156.894 123.667 200.305 91.5 219.971L320 254.971V162.971C312.667 153.971 288.5 142.5 252 148.471Z" fill="url(#paint17_linear_30_583)"/>
<path d="M84 176.471C41.5 165.5 23.5 151.5 0 158.5V208L160 234.971C161.333 225.305 150.047 193.522 84 176.471Z" fill="url(#paint18_linear_30_583)"/>
<path d="M145.5 213.971C130.5 218.471 81.6667 231.971 73 236.471L261.5 272.471C255.333 247.471 212.398 218.162 199 213.971C189.5 211 157.004 210.52 145.5 213.971Z" fill="url(#paint19_linear_30_583)"/>
<path d="M230.5 273.971C221.167 267.138 118.4 230.271 80 205.471C62.6643 194.275 43.9917 187.39 30 186.5C12.9989 185.418 0 192 0 192V241.5L135.5 279.5L230.5 273.971Z" fill="url(#paint20_linear_30_583)"/>
<path d="M98.5157 283.163C93.2823 282.671 88.8424 281.657 85.5 280.471L98.5157 283.163C117.552 284.953 147.087 279.836 172.5 250.971C204.9 214.171 286.5 192.833 320 190V328.971L98.5157 283.163Z" fill="url(#paint21_linear_30_583)"/>
<path d="M50.5 233.471C25.5 225 17.5 223.167 0 228.5V345L61 328.5L320 316V296C300 286.5 81.2888 243.904 50.5 233.471Z" fill="url(#paint22_linear_30_583)"/>
<defs>
<linearGradient id="paint0_linear_30_583" x1="200.5" y1="12.3441" x2="200.5" y2="38.4714" gradientUnits="userSpaceOnUse">
<stop stop-color="#DCEAB2"/>
<stop offset="0.8" stop-color="#475016"/>
</linearGradient>
<linearGradient id="paint1_linear_30_583" x1="114.25" y1="22.8939" x2="114.25" y2="41.4714" gradientUnits="userSpaceOnUse">
<stop stop-color="#DCEAB2"/>
<stop offset="0.8" stop-color="#475016"/>
</linearGradient>
<linearGradient id="paint2_linear_30_583" x1="155.25" y1="22.5139" x2="155.25" y2="59.9714" gradientUnits="userSpaceOnUse">
<stop stop-color="#DCEAB2"/>
<stop offset="0.8" stop-color="#475016"/>
</linearGradient>
<linearGradient id="paint3_linear_30_583" x1="234.5" y1="18.4065" x2="234.5" y2="59.2043" gradientUnits="userSpaceOnUse">
<stop stop-color="#DCEAB2"/>
<stop offset="0.8" stop-color="#475016"/>
</linearGradient>
<linearGradient id="paint4_linear_30_583" x1="207" y1="42.0538" x2="207" y2="70.4714" gradientUnits="userSpaceOnUse">
<stop stop-color="#DCEAB2"/>
<stop offset="0.8" stop-color="#475016"/>
</linearGradient>
<linearGradient id="paint5_linear_30_583" x1="160" y1="0.759552" x2="160" y2="82.9999" gradientUnits="userSpaceOnUse">
<stop stop-color="#DCEAB2"/>
<stop offset="0.8" stop-color="#475016"/>
</linearGradient>
<linearGradient id="paint6_linear_30_583" x1="160" y1="0.759552" x2="160" y2="82.9999" gradientUnits="userSpaceOnUse">
<stop stop-color="#DCEAB2"/>
<stop offset="0.8" stop-color="#475016"/>
</linearGradient>
<linearGradient id="paint7_linear_30_583" x1="33" y1="15.1005" x2="33" y2="55.9714" gradientUnits="userSpaceOnUse">
<stop stop-color="#DCEAB2"/>
<stop offset="0.8" stop-color="#475016"/>
</linearGradient>
<linearGradient id="paint8_linear_30_583" x1="71.5198" y1="27.9584" x2="71.5198" y2="68.4714" gradientUnits="userSpaceOnUse">
<stop stop-color="#DCEAB2"/>
<stop offset="0.8" stop-color="#475016"/>
</linearGradient>
<linearGradient id="paint9_linear_30_583" x1="162.75" y1="47.052" x2="162.75" y2="78.9714" gradientUnits="userSpaceOnUse">
<stop stop-color="#DCEAB2"/>
<stop offset="0.8" stop-color="#475016"/>
</linearGradient>
<linearGradient id="paint10_linear_30_583" x1="65.25" y1="28.8856" x2="65.25" y2="109.971" gradientUnits="userSpaceOnUse">
<stop stop-color="#DCEAB2"/>
<stop offset="0.8" stop-color="#475016"/>
</linearGradient>
<linearGradient id="paint11_linear_30_583" x1="183.75" y1="62.9518" x2="183.75" y2="118.471" gradientUnits="userSpaceOnUse">
<stop stop-color="#DCEAB2"/>
<stop offset="0.8" stop-color="#475016"/>
</linearGradient>
<linearGradient id="paint12_linear_30_583" x1="204.75" y1="29" x2="204.75" y2="132.471" gradientUnits="userSpaceOnUse">
<stop stop-color="#DCEAB2"/>
<stop offset="0.8" stop-color="#475016"/>
</linearGradient>
<linearGradient id="paint13_linear_30_583" x1="93.0215" y1="54.6637" x2="93.0215" y2="152" gradientUnits="userSpaceOnUse">
<stop stop-color="#DCEAB2"/>
<stop offset="0.8" stop-color="#475016"/>
</linearGradient>
<linearGradient id="paint14_linear_30_583" x1="220.75" y1="69.5957" x2="220.75" y2="168" gradientUnits="userSpaceOnUse">
<stop stop-color="#DCEAB2"/>
<stop offset="0.8" stop-color="#475016"/>
</linearGradient>
<linearGradient id="paint15_linear_30_583" x1="155" y1="125.471" x2="155" y2="207.251" gradientUnits="userSpaceOnUse">
<stop stop-color="#DCEAB2"/>
<stop offset="0.8" stop-color="#475016"/>
</linearGradient>
<linearGradient id="paint16_linear_30_583" x1="85.0511" y1="96" x2="85.0511" y2="201.471" gradientUnits="userSpaceOnUse">
<stop stop-color="#DCEAB2"/>
<stop offset="0.8" stop-color="#475016"/>
</linearGradient>
<linearGradient id="paint17_linear_30_583" x1="205.75" y1="146.82" x2="205.75" y2="254.971" gradientUnits="userSpaceOnUse">
<stop stop-color="#DCEAB2"/>
<stop offset="0.8" stop-color="#475016"/>
</linearGradient>
<linearGradient id="paint18_linear_30_583" x1="80.0501" y1="156.619" x2="80.0501" y2="234.971" gradientUnits="userSpaceOnUse">
<stop stop-color="#DCEAB2"/>
<stop offset="0.8" stop-color="#475016"/>
</linearGradient>
<linearGradient id="paint19_linear_30_583" x1="167.25" y1="211.56" x2="167.25" y2="272.471" gradientUnits="userSpaceOnUse">
<stop stop-color="#DCEAB2"/>
<stop offset="0.8" stop-color="#475016"/>
</linearGradient>
<linearGradient id="paint20_linear_30_583" x1="115.25" y1="186.38" x2="115.25" y2="279.5" gradientUnits="userSpaceOnUse">
<stop stop-color="#DCEAB2"/>
<stop offset="0.8" stop-color="#475016"/>
</linearGradient>
<linearGradient id="paint21_linear_30_583" x1="202.75" y1="190" x2="202.75" y2="328.971" gradientUnits="userSpaceOnUse">
<stop stop-color="#DCEAB2"/>
<stop offset="0.8" stop-color="#475016"/>
</linearGradient>
<linearGradient id="paint22_linear_30_583" x1="160" y1="225.495" x2="160" y2="345" gradientUnits="userSpaceOnUse">
<stop stop-color="#dceab2"/>
<stop offset="0.8" stop-color="#dceab2"/>
</linearGradient>
</defs>
</svg>
