<svg width="40" height="80" viewBox="0 0 40 80" fill="none" xmlns="http://www.w3.org/2000/svg">
<path d="M38.7273 80L40 77.4041C39.1515 76.1455 38.2424 74.4936 37.2727 72.4484C36.1818 70.5605 35.5758 68.7512 35.4545 67.0206L34.5455 67.4926C31.3939 63.7168 28.303 59.8623 25.2727 55.9292C22.2424 51.9961 19.6364 47.591 17.4545 42.7139C16.1212 41.4553 14.6061 40.1967 12.9091 38.938C11.0909 37.5221 9.87879 35.7915 9.27273 33.7463C9.87879 32.0157 10.9091 30.7571 12.3636 29.9705C13.697 29.1839 14.4848 27.8466 14.7273 25.9587L15.0909 27.1386C16.5455 25.5654 18.0606 23.7561 19.6364 21.7109C21.2121 19.5084 21.7576 17.0698 21.2727 14.3953L21.8182 14.1593L22.9091 14.6313L23.6364 14.3953C24.4848 13.294 25.3939 12.1141 26.3636 10.8555C27.3333 9.59685 28.0606 8.25959 28.5455 6.84366C29.2727 5.89971 29.9394 5.03441 30.5455 4.24779C31.1515 3.46116 31.5758 2.43855 31.8182 1.17994L30.5455 0C29.0909 0 27.3939 1.02261 25.4545 3.06784C23.3939 5.11307 21.3333 7.55162 19.2727 10.3835C17.2121 13.2153 15.2727 15.9685 13.4545 18.6431C11.5152 21.3176 9.9394 23.3628 8.72727 24.7788C6.66667 27.1386 4.72728 29.4985 2.90909 31.8584C0.969696 34.061 0 37.1288 0 41.0619C0 41.6912 0.0606079 42.3206 0.181824 42.9499C0.303032 43.4218 0.424244 43.8938 0.545456 44.3658V43.8938L1.09091 42.7139L1.63636 43.1858L2.18182 43.8938L1.45455 45.5457L3.81818 46.7257L4.72728 45.3097L5.63637 47.6696C7.81818 49.5575 9.87879 51.6814 11.8182 54.0413C13.6364 56.2439 15.5152 58.4464 17.4545 60.649L19.0909 59.469L20.7273 60.885C20.3636 61.9862 19.6364 62.9302 18.5455 63.7168C19.5152 64.8181 20.5455 65.4474 21.6364 65.6047L21.8182 65.1327L21.2727 63.9528L21.6364 63.2448C22.4848 64.3461 23.3333 65.8407 24.1818 67.7286L24 68.6726C26.303 70.8751 28.7879 72.6844 31.4545 74.1003C34.1212 75.6735 36.5455 77.6401 38.7273 80Z" fill="#052319"/>
</svg>
