<svg width="143" height="475" viewBox="0 0 143 475" fill="none" xmlns="http://www.w3.org/2000/svg">
<path d="M29.5 145.5C29 146 55.5 179.5 62.5 179.5C71.1667 182.167 89.4 189.7 93 198.5C92.6667 195.167 91.9 188.5 91.5 188.5C87.1 185.3 73 179.167 66.5 176.5C58 175 45.5 159 44.5 158.5C43.7 158.1 44.1667 143.333 44.5 136C44.5 131.333 44.4 121.8 44 121C43.6 120.2 43.5 117.333 43.5 116C48.5 112.229 49.5 111 47.5 112C45.5 113 41 113 41 109C41 105.8 41.6667 97.6666 42 94C42.3333 91.1666 42.4 84.8 40 82C37.6 79.2 38 80.1666 38.5 81C40.9 85.4 39.5 98.8333 38.5 105C38.1667 104.167 36.8 101.6 34 98C31.2 94.4 31.5 95.5 32 96.5C37.5 106 42 122 41 122C40 122 31 111 30.5 112C30.1 112.8 37.3333 121.667 41 126C41.1667 129.667 41.2 137 40 137C36.4 136.2 25.5 128 20.5 124C18.8333 122.333 15.7 119.6 16.5 122C17.5 125 38.5 138.5 40 140C41.5 141.5 40 154.5 39.5 155C39 155.5 30 145 29.5 145.5Z" fill="#1B2021"/>
<path d="M69 257C70.2 260.2 70.8333 274 71 280.5H77.5C78 272 79.4 254.5 81 252.5C83 250 91 233 94 223.5C97 214 97 198.5 96 186.5C95 174.5 94 178 89.5 163.5C88.3 156.7 86.6667 132.333 86 121L100 102.5C101 101 103 95.6 103 86C103 74 98.5 72 97 70.5C95.5 69 90.5 67.5 87 66.5C84.2 65.7 82.5 64.5 82 64C79 60.5 79 52.5 79 44C79 37.2 78 31.1667 77.5 29C74.5 25 75.5 47 75.5 57.5C75.5 65.9 81.5 69 84.5 69.5C91.3 69.9 96.3333 75 98 77.5C101.2 87.1 93 101.5 88.5 107.5C86.8333 109 83.3 112.2 82.5 113C81.5 114 82 108.5 80 107.5C78 106.5 63 87.5 59 84C55 80.5 52.5 73.5 50 71C47.5 68.5 45 59.5 43.5 57C42 54.5 40.5 53 40.5 54C40.5 55 44.5 69 45.5 71C46.5 73 60 95 62 98C64 101 75 112 78 116C81 120 80 165 86 173C92 181 91.5 203.5 91 212C90.6 218.8 78.8333 240.167 73 250C62 239.5 62 240 58 234C56 232.8 53.1667 221.833 52 216.5C51.5 215.333 50 212.5 48 210.5C46 208.5 45.8333 209.333 46 210C48 217.5 52.3 233.4 53.5 237C55 241.5 67.5 253 69 257Z" fill="#1B2021"/>
<path d="M30.4859 203.282C37.321 205.789 44.048 208.977 48.6264 211.396C46.7371 212.64 43.9611 214.123 40.6711 215.256C36.5296 216.683 31.6382 217.534 26.714 216.713C20.3601 215.654 17.8633 214.71 16.2243 214.044C16.125 214.004 16.0272 213.964 15.9304 213.924C15.2225 213.634 14.5673 213.366 13.782 213.176C12.876 212.957 11.8276 212.847 10.2831 212.847C9.14308 212.847 7.83017 212.201 6.65416 211.031C5.49148 209.875 4.57435 208.311 4.19263 206.712C3.81268 205.121 3.9756 203.572 4.84467 202.317C5.71408 201.062 7.4096 199.929 10.4475 199.423C12.8375 199.025 15.9249 199.274 19.4174 199.998C22.894 200.718 26.6969 201.892 30.4859 203.282Z" fill="#880D1E" stroke="black" stroke-width="2"/>
<path d="M40.704 180.788L29.1666 173.097C29.9636 171.803 31.1617 170.167 32.5846 168.769C34.3498 167.035 36.2812 165.845 38.1015 165.845C38.9929 165.845 40.1287 166.181 41.4411 166.821C42.7371 167.452 44.1236 168.339 45.4935 169.343C47.758 171.004 49.9194 172.946 51.47 174.477L40.704 180.788Z" fill="#880D1E" stroke="black" stroke-width="2"/>
<path d="M76.1652 197.854L42.0656 183.01C41.9452 179.768 42.4216 175.012 44.2172 170.628C46.121 165.98 49.4614 161.844 55.0708 160.242C57.5949 159.52 59.994 160.441 62.3344 162.748C64.6916 165.071 66.8511 168.684 68.7583 172.958C72.2598 180.804 74.7889 190.594 76.1652 197.854Z" fill="#880D1E" stroke="black" stroke-width="2"/>
<path d="M66.3097 209.865C58.0371 214.297 50.7536 212.857 47.3625 211.298L72.0362 181.689C77.1737 180.644 79.7161 181.615 80.8419 183.163C82.0562 184.832 82.0536 187.694 80.8684 191.276C79.708 194.783 77.5106 198.67 74.8553 202.079C72.1938 205.496 69.1379 208.35 66.3097 209.865Z" fill="#880D1E" stroke="black" stroke-width="2"/>
<path d="M22.0847 170.522C26.9853 169.257 31.3398 171.011 34.874 173.854C38.0782 176.431 40.5206 179.843 41.9255 182.455L17.2863 197.557C16.0857 193.306 15.0057 187.399 15.2675 182.135C15.5595 176.264 17.4652 171.714 22.0847 170.522Z" fill="#880D1E" stroke="black" stroke-width="2"/>
<path d="M42.4252 198.405L27.6052 190.394C27.853 188.505 28.6788 185.876 30.4444 183.545C32.3931 180.972 35.5007 178.738 40.3413 178.254C45.1252 177.776 49.5099 179.796 53.1063 182.635C56.2532 185.119 58.7164 188.17 60.2025 190.504L42.4252 198.405Z" fill="#880D1E" stroke="black" stroke-width="2"/>
<path d="M42.7391 192.905L37.1232 191.501C37.2791 190.973 37.5476 190.368 37.9662 189.818C38.6097 188.973 39.6126 188.244 41.1885 188.1C42.6851 187.964 43.784 188.597 44.5993 189.513C45.1871 190.174 45.605 190.964 45.8662 191.654L42.7391 192.905Z" fill="#880D1E" stroke="black" stroke-width="2"/>
<path d="M42.516 194.1C43.0915 192.903 43.8949 191.446 44.8247 190.133C45.4446 189.258 46.1027 188.473 46.7668 187.876C47.4398 187.271 48.0567 186.915 48.592 186.796C49.9389 186.497 51.7448 186.612 53.5332 186.923C54.5496 187.1 55.523 187.333 56.3472 187.564L48.4842 195.427L42.516 194.1Z" fill="#880D1E" stroke="black" stroke-width="2"/>
<path d="M9.75711 190.1C10.0221 189.503 10.8119 189.082 11.6828 188.953C18.3563 188.291 26.4188 189.542 33.8439 191.413C41.1795 193.262 47.8039 195.693 51.6986 197.382C52.5142 198.085 53.4201 199.516 53.3577 201.586C53.2929 203.734 52.1769 206.716 48.524 210.369C46.4844 212.409 43.6022 212.95 40.127 212.364C36.6433 211.777 32.7222 210.076 28.8616 207.855C21.1382 203.411 13.9519 197.061 11.4644 194.159C9.47356 191.836 9.52552 190.622 9.75711 190.1Z" fill="#880D1E" stroke="black" stroke-width="2"/>
<path d="M75.8408 171.642C76.4206 172.58 76.7725 173.848 76.9114 174.763C76.8841 182.931 72.2378 190.803 66.255 197.402C60.4977 203.752 53.6219 208.789 48.8555 211.601C48.6924 211.429 48.4914 211.191 48.2637 210.889C47.6895 210.127 47.0014 209.034 46.387 207.754C45.138 205.152 44.3012 202.006 45.0558 199.365C45.2211 198.787 45.7051 197.892 46.5335 196.709C47.3445 195.552 48.4276 194.199 49.7063 192.722C52.2624 189.768 55.5576 186.366 58.9161 183.114C62.2736 179.863 65.6801 176.776 68.4538 174.454C69.8419 173.292 71.0611 172.33 72.0305 171.636C72.5158 171.289 72.9271 171.018 73.2583 170.824C73.6095 170.619 73.8039 170.541 73.8734 170.524C74.3011 170.417 74.6273 170.486 74.9148 170.652C75.2304 170.835 75.5461 171.165 75.8408 171.642ZM49.138 211.864C49.1602 211.876 49.1627 211.88 49.1426 211.867C49.1413 211.866 49.1397 211.865 49.138 211.864Z" fill="#880D1E" stroke="black" stroke-width="2"/>
<path d="M33.8219 52.3293C36.0928 53.1623 38.3366 54.1859 40.0733 55.0605C39.4652 55.3891 38.7343 55.7248 37.9197 56.0055C36.32 56.5566 34.4616 56.8737 32.6132 56.5657C30.1039 56.1475 29.145 55.78 28.5313 55.5307C28.4937 55.5154 28.4556 55.4997 28.417 55.4839C28.1359 55.3685 27.8292 55.2426 27.4667 55.155C27.0413 55.0522 26.5696 55.0063 25.9222 55.0063C25.6793 55.0063 25.2955 54.8569 24.8884 54.452C24.4947 54.0603 24.1863 53.5296 24.0609 53.0045C23.9373 52.4868 24.0041 52.0506 24.2324 51.721C24.461 51.3909 24.9711 50.9955 26.0866 50.8096C26.9387 50.6676 28.0931 50.7515 29.4657 51.0359C30.8223 51.3169 32.3184 51.7777 33.8219 52.3293Z" fill="#880D1E" stroke="black" stroke-width="2"/>
<path d="M38.1483 42.0361L34.3276 39.4889C34.5941 39.113 34.923 38.707 35.2898 38.3467C35.9678 37.6807 36.5963 37.3452 37.0837 37.3452C37.3088 37.3452 37.6681 37.4358 38.1614 37.6762C38.6382 37.9085 39.1629 38.2423 39.6955 38.6329C40.327 39.096 40.94 39.6172 41.4593 40.0952L38.1483 42.0361Z" fill="#880D1E" stroke="black" stroke-width="2"/>
<path d="M51.5426 48.5822L39.2658 43.2382C39.2667 42.0288 39.4752 40.3973 40.0915 38.8926C40.8099 37.1387 42.0356 35.6514 44.0567 35.0739C44.7865 34.8654 45.5356 35.0918 46.3862 35.9302C47.2535 36.7851 48.0835 38.1554 48.8372 39.8443C50.0454 42.5516 50.9653 45.8636 51.5426 48.5822Z" fill="#880D1E" stroke="black" stroke-width="2"/>
<path d="M48.1189 53.8807C45.518 55.2741 43.2022 55.1218 41.802 54.7157L51.0227 43.6508C52.8631 43.3142 53.5206 43.7341 53.7483 44.047C54.0535 44.4666 54.139 45.3588 53.6746 46.7621C53.2351 48.0903 52.3914 49.5899 51.358 50.9166C50.3186 52.2513 49.153 53.3268 48.1189 53.8807Z" fill="#880D1E" stroke="black" stroke-width="2"/>
<path d="M30.8071 39.2027C32.5294 38.7582 34.0858 39.3581 35.4136 40.4263C36.4341 41.2472 37.2565 42.3004 37.8091 43.2046L29.1067 48.5383C28.7268 46.9746 28.4342 45.0431 28.5202 43.3122C28.6349 41.0056 29.3658 39.5746 30.8071 39.2027Z" fill="#880D1E" stroke="black" stroke-width="2"/>
<path d="M38.8445 49.1437L33.5374 46.275C33.6756 45.6568 33.9688 44.8964 34.4889 44.2098C35.1774 43.3007 36.2772 42.4975 38.0421 42.321C39.7502 42.1502 41.3582 42.8675 42.7332 43.9529C43.6901 44.7083 44.4834 45.6039 45.0521 46.3847L38.8445 49.1437Z" fill="#880D1E" stroke="black" stroke-width="2"/>
<path d="M37.5753 46.6442C37.7422 46.4603 37.9862 46.3077 38.3764 46.2722C38.7452 46.2387 39.0111 46.3797 39.2433 46.6407C39.2858 46.6886 39.3257 46.7391 39.3629 46.7913L38.9017 46.9758L37.5753 46.6442Z" fill="#880D1E" stroke="black" stroke-width="2"/>
<path d="M39.7471 47.6681C39.9038 47.3907 40.0804 47.1054 40.27 46.8376C40.5033 46.5084 40.7385 46.2313 40.961 46.0312C41.1923 45.8232 41.349 45.7536 41.4229 45.7372C41.8471 45.643 42.4782 45.6727 43.173 45.7935C43.1877 45.7961 43.2024 45.7986 43.2171 45.8013L41.0587 47.9596L39.7471 47.6681Z" fill="#880D1E" stroke="black" stroke-width="2"/>
<path d="M26.3049 46.6967C26.3708 46.6593 26.4637 46.628 26.5591 46.6124C29.1313 46.3602 32.2801 46.8424 35.2291 47.5856C38.0807 48.3043 40.6605 49.245 42.2069 49.9088C42.3965 50.103 42.6239 50.489 42.6064 51.0685C42.5864 51.7299 42.2395 52.79 40.8421 54.1873C40.2122 54.8172 39.2845 55.0379 37.9958 54.8208C36.6988 54.6022 35.1968 53.9586 33.675 53.083C30.6293 51.3307 27.8004 48.825 26.8507 47.7171C26.4896 47.2958 26.343 47.0072 26.2899 46.8401C26.2716 46.7828 26.2658 46.7452 26.2643 46.7232C26.273 46.7164 26.286 46.7074 26.3049 46.6967ZM26.2651 46.6984C26.2653 46.6985 26.2652 46.7009 26.2641 46.7053C26.2643 46.7005 26.2649 46.6983 26.2651 46.6984ZM26.2503 46.7356C26.2497 46.7365 26.2493 46.737 26.2492 46.737L26.2503 46.7356Z" fill="#880D1E" stroke="black" stroke-width="2"/>
<path d="M51.7164 39.387C51.8844 39.6588 52.0037 40.0569 52.0563 40.3701C52.0282 43.4118 50.2863 46.4137 47.9361 49.0058C45.8462 51.3108 43.376 53.1795 41.5385 54.3203C41.3535 54.0566 41.1415 53.7059 40.9479 53.3024C40.4678 52.3022 40.2077 51.207 40.4497 50.3601C40.4868 50.2303 40.6304 49.9401 40.9572 49.4737C41.2666 49.0323 41.6868 48.5064 42.1926 47.922C43.2028 46.7548 44.5116 45.4029 45.8516 44.1055C47.1907 42.8089 48.5467 41.5804 49.6463 40.6597C50.1974 40.1983 50.6736 39.8229 51.0453 39.557C51.2317 39.4237 51.3805 39.3261 51.4917 39.2611C51.5306 39.2383 51.5595 39.2228 51.5794 39.2127C51.6075 39.2376 51.656 39.2893 51.7164 39.387Z" fill="#880D1E" stroke="black" stroke-width="2"/>
<path d="M66.3582 25.3941C69.8709 26.6827 73.3353 28.2927 75.8669 29.5973C74.8807 30.1832 73.592 30.8197 72.1132 31.3293C69.8215 32.1188 67.1375 32.5813 64.4518 32.1337C60.8959 31.541 59.5184 31.0166 58.6255 30.6539C58.571 30.6317 58.5166 30.6094 58.4621 30.5871C58.0649 30.4242 57.6634 30.2595 57.1859 30.1441C56.6297 30.0097 56.001 29.9463 55.1093 29.9463C54.6222 29.9463 53.9855 29.6618 53.3691 29.0486C52.7661 28.4487 52.292 27.6368 52.0968 26.8194C51.9034 26.0095 51.9963 25.2702 52.399 24.6888C52.8021 24.1069 53.6349 23.5109 55.2737 23.2377C56.5445 23.026 58.2251 23.155 60.1748 23.5589C62.1085 23.9595 64.2326 24.6144 66.3582 25.3941Z" fill="#880D1E" stroke="black" stroke-width="2"/>
<path d="M72.2887 11.7798L66.3617 7.82848C66.7832 7.19324 67.3487 6.46057 67.998 5.82269C68.972 4.86593 69.9552 4.29785 70.8054 4.29785C71.2119 4.29785 71.7826 4.45537 72.4989 4.80439C73.1987 5.1454 73.958 5.62962 74.7185 6.1874C75.7883 6.97198 76.8188 7.87128 77.6335 8.64666L72.2887 11.7798Z" fill="#880D1E" stroke="black" stroke-width="2"/>
<path d="M91.6949 21.1916L73.4699 13.2584C73.4393 11.4909 73.723 9.01182 74.6591 6.72621C75.7002 4.18449 77.5016 1.97612 80.4995 1.11956C81.7178 0.771497 82.916 1.18689 84.1722 2.42507C85.4451 3.6797 86.637 5.66049 87.7047 8.05292C89.5348 12.1538 90.8943 17.2191 91.6949 21.1916Z" fill="#880D1E" stroke="black" stroke-width="2"/>
<path d="M86.5152 28.3154C82.381 30.5301 78.7215 30.0567 76.7451 29.331L90.1881 13.1993C92.9323 12.6692 94.0983 13.244 94.5681 13.8896C95.1208 14.6493 95.1823 16.0779 94.5217 18.0744C93.886 19.9957 92.6737 22.145 91.1988 24.0386C89.7178 25.9402 88.0377 27.4997 86.5152 28.3154Z" fill="#880D1E" stroke="black" stroke-width="2"/>
<path d="M61.8771 6.92297C64.4646 6.25521 66.7827 7.16907 68.7111 8.72042C70.3219 10.0162 71.5864 11.7045 72.3789 13.081L59.3287 21.0795C58.7242 18.7696 58.2233 15.7621 58.357 13.0751C58.5199 9.79802 59.5706 7.51818 61.8771 6.92297Z" fill="#880D1E" stroke="black" stroke-width="2"/>
<path d="M73.2638 21.7482L65.3608 17.4763C65.5339 16.5061 65.9762 15.2428 66.8324 14.1122C67.864 12.7502 69.5104 11.5574 72.1126 11.2972C74.658 11.0427 77.0218 12.1146 79.0015 13.6775C80.5492 14.8992 81.7981 16.3729 82.6282 17.5862L73.2638 21.7482Z" fill="#880D1E" stroke="black" stroke-width="2"/>
<path d="M73.3907 18.6732L70.8386 18.0352C70.9029 17.9062 70.9812 17.7763 71.0755 17.6525C71.3723 17.2625 71.8311 16.9219 72.5863 16.8532C73.2621 16.7918 73.7548 17.0665 74.1456 17.5061C74.3315 17.7151 74.4844 17.9529 74.6048 18.1876L73.3907 18.6732Z" fill="#880D1E" stroke="black" stroke-width="2"/>
<path d="M76.5246 20.0756L73.9363 19.5005C74.2197 18.9583 74.5677 18.3641 74.9545 17.8181C75.293 17.3403 75.6433 16.9249 75.986 16.6168C76.3376 16.3007 76.6195 16.1532 76.819 16.1089C77.4944 15.9588 78.4453 16.0119 79.4378 16.1844C79.7172 16.2329 79.9908 16.2893 80.2509 16.3493L76.5246 20.0756Z" fill="#880D1E" stroke="black" stroke-width="2"/>
<path d="M55.2108 17.7241C55.2686 17.5938 55.5209 17.3993 55.9529 17.3331C59.6416 16.9689 64.1285 17.6604 68.2964 18.7109C72.371 19.7378 76.0539 21.0851 78.2392 22.0283C78.5954 22.3598 79.0073 23.0286 78.9775 24.0149C78.9454 25.0809 78.3891 26.6643 76.3777 28.6757C75.364 29.6894 73.9043 29.9973 72.0204 29.6798C70.1281 29.361 67.9675 28.4295 65.809 27.1876C61.49 24.7027 57.4749 21.1503 56.1066 19.554C55.0112 18.276 55.1875 17.7766 55.2108 17.7241Z" fill="#880D1E" stroke="black" stroke-width="2"/>
<path d="M92.2669 8.92654C92.2391 13.3635 89.7067 17.6916 86.3673 21.3748C83.277 24.7832 79.6053 27.5171 76.965 29.1162C76.94 29.0844 76.9139 29.0506 76.8869 29.0147C76.5808 28.6089 76.2075 28.0167 75.8729 27.3198C75.1835 25.8835 74.7664 24.2301 75.148 22.8948C75.2199 22.6428 75.4563 22.1881 75.9196 21.5268C76.3655 20.8905 76.9662 20.1395 77.6824 19.3119C79.1134 17.6585 80.963 15.7484 82.8524 13.9189C84.741 12.0903 86.6552 10.356 88.2105 9.05366C88.9894 8.40147 89.6679 7.86638 90.2023 7.48415C90.4701 7.29262 90.6904 7.14768 90.8615 7.04765C90.9997 6.96689 91.0721 6.93561 91.0928 6.92672C91.0999 6.92365 91.1008 6.92325 91.0961 6.9244C91.2242 6.89272 91.2921 6.91353 91.3581 6.95173C91.4525 7.00632 91.5841 7.12895 91.728 7.36188C92.0075 7.81427 92.1905 8.4486 92.2669 8.92654Z" fill="#880D1E" stroke="black" stroke-width="2"/>
<path d="M10.9098 119.466C13.2048 120.308 15.4722 121.343 17.2247 122.226C16.6088 122.56 15.8671 122.901 15.0397 123.186C13.4266 123.742 11.5523 124.062 9.68756 123.751C7.15804 123.329 6.19104 122.959 5.57192 122.707C5.53392 122.692 5.49552 122.676 5.45665 122.66C5.17326 122.544 4.86471 122.417 4.50001 122.329C4.0721 122.226 3.59738 122.179 2.94518 122.179C2.69756 122.179 2.30889 122.028 1.89776 121.619C1.49997 121.223 1.18837 120.687 1.06161 120.156C0.936617 119.633 1.00393 119.19 1.23559 118.856C1.4676 118.521 1.98392 118.122 3.10958 117.934C3.96982 117.791 5.13439 117.876 6.51816 118.162C7.88597 118.446 9.39426 118.91 10.9098 119.466Z" fill="#880D1E" stroke="black" stroke-width="2"/>
<path d="M15.2673 109.109L11.4056 106.534C11.6753 106.153 12.0087 105.741 12.381 105.375C13.0647 104.704 13.7001 104.364 14.1946 104.364C14.4231 104.364 14.7866 104.456 15.2842 104.698C15.7653 104.932 16.2945 105.269 16.8315 105.663C17.4714 106.132 18.0925 106.661 18.6177 107.145L15.2673 109.109Z" fill="#880D1E" stroke="black" stroke-width="2"/>
<path d="M26.8508 113.887L16.3863 110.261C16.3928 109.047 16.6057 107.425 17.219 105.928C17.9436 104.159 19.1805 102.658 21.2205 102.075C22.0438 101.84 22.6699 102.044 23.2647 102.628C23.9195 103.272 24.5056 104.363 25.0184 105.813C25.8608 108.195 26.3937 111.196 26.8508 113.887Z" fill="#880D1E" stroke="black" stroke-width="2"/>
<path d="M25.3205 121.044C22.6899 122.453 20.3483 122.295 18.9363 121.883L28.2391 110.72C30.0972 110.379 30.7644 110.802 30.9967 111.121C31.3068 111.548 31.3918 112.45 30.9236 113.865C30.4803 115.205 29.6294 116.717 28.5875 118.055C27.5395 119.4 26.364 120.485 25.3205 121.044Z" fill="#880D1E" stroke="black" stroke-width="2"/>
<path d="M7.8665 106.236C9.60561 105.787 11.1767 106.393 12.5162 107.471C13.548 108.301 14.3791 109.366 14.9364 110.28L6.14963 115.665C5.76535 114.087 5.46877 112.134 5.55577 110.385C5.67141 108.06 6.40849 106.612 7.8665 106.236Z" fill="#880D1E" stroke="black" stroke-width="2"/>
<path d="M15.9687 116.272L10.6112 113.376C10.7502 112.751 11.0464 111.981 11.5729 111.285C12.2681 110.368 13.3785 109.557 15.1596 109.379C16.8839 109.206 18.5066 109.93 19.8933 111.025C20.8615 111.789 21.6637 112.696 22.2376 113.485L15.9687 116.272Z" fill="#880D1E" stroke="black" stroke-width="2"/>
<path d="M14.6755 113.748C14.8452 113.557 15.0945 113.398 15.4969 113.361C15.8716 113.327 16.142 113.47 16.3771 113.735C16.4224 113.786 16.4647 113.84 16.504 113.896L16.0276 114.086L14.6755 113.748Z" fill="#880D1E" stroke="black" stroke-width="2"/>
<path d="M16.8667 114.781C17.026 114.498 17.2059 114.207 17.3994 113.934C17.6346 113.602 17.8721 113.322 18.0969 113.12C18.3306 112.91 18.4897 112.839 18.566 112.822C18.995 112.727 19.6324 112.757 20.3329 112.879C20.3527 112.882 20.3725 112.886 20.3922 112.889L18.2032 115.078L16.8667 114.781Z" fill="#880D1E" stroke="black" stroke-width="2"/>
<path d="M3.32704 113.79C3.39441 113.752 3.48908 113.72 3.58609 113.704C6.17992 113.45 9.35462 113.936 12.3273 114.685C15.2026 115.41 17.8039 116.358 19.3626 117.027C19.5554 117.224 19.7863 117.616 19.7686 118.203C19.7484 118.872 19.3974 119.943 17.9881 121.352C17.3508 121.989 16.4127 122.212 15.1126 121.992C13.804 121.772 12.2892 121.123 10.7551 120.24C7.68476 118.474 4.83283 115.948 3.87507 114.83C3.51074 114.405 3.36221 114.113 3.30825 113.944C3.28854 113.882 3.28295 113.842 3.2819 113.82C3.2909 113.812 3.30523 113.802 3.32704 113.79ZM3.28312 113.797C3.28334 113.797 3.28317 113.8 3.28194 113.804C3.28229 113.799 3.2829 113.797 3.28312 113.797ZM3.26977 113.831C3.26913 113.832 3.26875 113.832 3.26872 113.832L3.26977 113.831Z" fill="#880D1E" stroke="black" stroke-width="2"/>
<path d="M28.9493 106.425C29.1194 106.701 29.24 107.103 29.293 107.42C29.2649 110.488 27.5077 113.516 25.1384 116.129C23.0291 118.456 20.5355 120.341 18.6824 121.491C18.4947 121.224 18.2791 120.868 18.0822 120.458C17.598 119.449 17.3349 118.343 17.5796 117.487C17.6174 117.354 17.7628 117.061 18.0923 116.591C18.4043 116.146 18.828 115.616 19.3379 115.026C20.3562 113.85 21.6755 112.487 23.0262 111.179C24.3759 109.872 25.7427 108.634 26.8512 107.706C27.4066 107.241 27.8868 106.862 28.2616 106.594C28.4497 106.46 28.5998 106.361 28.7122 106.296C28.7547 106.271 28.7854 106.254 28.8057 106.244C28.8341 106.269 28.8853 106.322 28.9493 106.425Z" fill="#880D1E" stroke="black" stroke-width="2"/>
<path d="M141.825 363.013C141.325 369.513 144.325 376.013 139.325 398.513C136.053 413.239 120.825 413.013 91.3252 411.013C90.669 359.44 0.899622 318.772 0 281.5V234C0 234 7 230 14.5 234C16.0472 234.336 16.3558 239.151 20 241.5L23.0609 242.775C24.2154 243.048 25.1388 243.156 26 244C27.1422 245.119 28.9126 247.687 30.4763 249.854L32.5 252.5C34.9909 255.373 44.6428 256.456 47 259.5C53.8029 268.285 58.009 272 59.5 272C61.5 272 61.6749 272.987 82 276C83.7833 276.264 89 270 92.5 272C94.6965 273.255 100 276.5 103.825 278.013C111.5 280 111.825 286.513 112.325 288.013C107.825 311.513 114.325 316.513 115.825 318.013C117.325 319.513 125.325 318.013 125.825 320.013C126.325 322.013 134.325 330.013 137.825 332.513C141.325 335.013 136.825 349.513 138.325 352.513C139.825 355.513 142.325 356.513 141.825 363.013Z" fill="#1B2021"/>
<path d="M131.825 386.013C131.325 392.513 119.325 412.013 114.325 434.513C111.053 449.239 95.8252 449.013 66.3252 447.013C65.3252 368.414 39 283 39 283C34 283 52.5 273.5 52.5 273.5C52.9295 273.143 55.2761 275.477 58.5 277C59.3447 277.399 59.4671 277.533 59.7241 277.734L61 278.5C62.6228 279.336 69.3161 278.595 71 279.5L75.4132 276.644C77.0822 275.084 78.7185 273.568 79.5 274C81.1235 274.897 84.6522 282.238 86 283C88.8883 284.633 88.5 289.5 88.5 289.5C88.5 289.5 91.8252 290.5 92.8252 293.5C93.6252 295.9 92.6585 296.68 92.8252 297.013C98.4252 301.413 100.825 305.513 101.325 307.013C96.8251 330.513 103.325 335.513 104.825 337.013C106.325 338.513 114.325 337.013 114.825 339.013C115.325 341.013 124.325 353.013 127.825 355.513C131.325 358.013 126.825 372.513 128.325 375.513C129.825 378.513 132.325 379.513 131.825 386.013Z" fill="#475016"/>
<path d="M99.8252 389.013C99.3252 395.513 87.3252 415.013 82.3252 437.513C79.0528 452.239 63.8252 452.013 34.3252 450.013C33.3252 371.414 7.60001 259.2 10 256C13 252 37.5 269 38 271C38.5 273 49.8252 291.013 51.3252 292.013C52.8252 293.013 58.3252 293.013 59.3252 296.013C60.1252 298.413 60.6585 299.68 60.8252 300.013C66.4252 304.413 68.8252 308.513 69.3252 310.013C64.8252 333.513 71.3252 338.513 72.8252 340.013C74.3252 341.513 82.3252 340.013 82.8252 342.013C83.3252 344.013 92.3252 356.013 95.8252 358.513C99.3252 361.013 94.8252 375.513 96.3252 378.513C97.8252 381.513 100.325 382.513 99.8252 389.013Z" fill="#475016"/>
<path d="M63.3889 364C62.8889 370.5 53.8889 390 48.8889 412.5C45.6165 427.226 29.5 427 0 425V239C7.17485 239 11.3889 244 11.8889 246C12.3889 248 16.3889 266 17.8889 267C19.3889 268 24.8889 268 25.8889 271C26.6889 273.4 27.2222 274.667 27.3889 275C32.9889 279.4 35.3889 283.5 35.8889 285C31.3889 308.5 37.8889 313.5 39.3889 315C40.8889 316.5 46.8889 315 47.3889 317C47.8889 319 56.5453 329.282 57.3889 333.5C57.8889 336 58.3889 350.5 59.8889 353.5C61.3889 356.5 63.8889 357.5 63.3889 364Z" fill="#475016"/>
<path d="M54.3889 414C53.8889 420.5 36.8889 462.5 36.8889 462.5L0 475V289C7.17485 289 7.38888 294 7.88888 296C8.38888 298 12.3889 316 13.8889 317C15.3889 318 20.8889 318 21.8889 321C22.6889 323.4 23.2222 324.667 23.3889 325C28.9889 329.4 31.3889 333.5 31.8889 335C27.3889 358.5 33.8889 363.5 35.3889 365C36.8889 366.5 36.8889 365 37.3889 367C37.8889 369 46.8889 381 50.3889 383.5C53.8889 386 49.3889 400.5 50.8889 403.5C52.3889 406.5 54.8889 407.5 54.3889 414Z" fill="#dceab2"/>
</svg>
