<svg width="50" height="50" viewBox="0 0 50 50" fill="none" xmlns="http://www.w3.org/2000/svg">
<mask id="path-1-inside-1_40_295" fill="white">
<path fill-rule="evenodd" clip-rule="evenodd" d="M46.3251 43.9957L47.3085 41.7145L42.8054 36.2047C39.1132 34.3447 31.1594 30.9615 28.882 32.3092C26.6046 33.6568 25.2588 34.8076 25 35.1234V41.7212L46.3251 43.9957ZM2.6915 41.7145L7.1946 36.2047C10.8868 34.3447 18.8406 30.9616 21.118 32.3092C23.3954 33.6568 24.7412 34.8076 25 35.1234V41.7212L3.67493 43.9957L2.6915 41.7145Z"/>
</mask>
<path fill-rule="evenodd" clip-rule="evenodd" d="M46.3251 43.9957L47.3085 41.7145L42.8054 36.2047C39.1132 34.3447 31.1594 30.9615 28.882 32.3092C26.6046 33.6568 25.2588 34.8076 25 35.1234V41.7212L46.3251 43.9957ZM2.6915 41.7145L7.1946 36.2047C10.8868 34.3447 18.8406 30.9616 21.118 32.3092C23.3954 33.6568 24.7412 34.8076 25 35.1234V41.7212L3.67493 43.9957L2.6915 41.7145Z" fill="#FFE5EC"/>
<path d="M47.3085 41.7145L48.2268 42.1104L48.4674 41.5523L48.0828 41.0817L47.3085 41.7145ZM46.3251 43.9957L46.219 44.99L46.9516 45.0682L47.2433 44.3916L46.3251 43.9957ZM42.8054 36.2047L43.5797 35.5718L43.4451 35.4072L43.2553 35.3116L42.8054 36.2047ZM28.882 32.3092L28.3727 31.4485V31.4485L28.882 32.3092ZM25 35.1234L24.2265 34.4896L24 34.7661V35.1234H25ZM25 41.7212H24V42.6202L24.8939 42.7156L25 41.7212ZM7.1946 36.2047L6.7447 35.3116L6.55484 35.4073L6.42031 35.5719L7.1946 36.2047ZM2.6915 41.7145L1.9172 41.0817L1.53259 41.5523L1.7732 42.1104L2.6915 41.7145ZM21.118 32.3092L21.6273 31.4486V31.4486L21.118 32.3092ZM25 35.1234H26V34.7661L25.7735 34.4897L25 35.1234ZM25 41.7212L25.106 42.7156L26 42.6202V41.7212H25ZM3.67493 43.9957L2.75664 44.3916L3.04833 45.0682L3.78099 44.99L3.67493 43.9957ZM46.3902 41.3186L45.4068 43.5998L47.2433 44.3916L48.2268 42.1104L46.3902 41.3186ZM42.0311 36.8375L46.5342 42.3473L48.0828 41.0817L43.5797 35.5718L42.0311 36.8375ZM29.3912 33.1698C29.6422 33.0213 30.2582 32.9243 31.361 33.0782C32.3988 33.2229 33.6569 33.5569 34.9975 34.0029C37.673 34.8931 40.5383 36.1823 42.3555 37.0977L43.2553 35.3116C41.3802 34.367 38.4226 33.0347 35.6288 32.1052C34.2347 31.6414 32.8466 31.266 31.6372 31.0973C30.4928 30.9377 29.2605 30.9232 28.3727 31.4485L29.3912 33.1698ZM25.7735 35.7572C25.7719 35.7591 25.7914 35.7361 25.8456 35.6833C25.896 35.6342 25.965 35.5704 26.0539 35.4926C26.2317 35.3371 26.4768 35.1362 26.7883 34.9C27.4108 34.4278 28.2848 33.8245 29.3912 33.1698L28.3727 31.4485C27.2017 32.1415 26.2641 32.7873 25.5797 33.3065C24.9251 33.8029 24.4382 34.2313 24.2265 34.4896L25.7735 35.7572ZM26 41.7212V35.1234H24V41.7212H26ZM46.4311 43.0013L25.1061 40.7268L24.8939 42.7156L46.219 44.99L46.4311 43.0013ZM6.42031 35.5719L1.9172 41.0817L3.4658 42.3474L7.9689 36.8375L6.42031 35.5719ZM21.6273 31.4486C20.7395 30.9232 19.5072 30.9377 18.3628 31.0973C17.1533 31.266 15.7653 31.6414 14.3712 32.1052C11.5774 33.0347 8.61974 34.367 6.7447 35.3116L7.64451 37.0978C9.46166 36.1823 12.327 34.8931 15.0025 34.0029C16.3431 33.5569 17.6012 33.2229 18.639 33.0782C19.7418 32.9244 20.3578 33.0213 20.6087 33.1698L21.6273 31.4486ZM25.7735 34.4897C25.5618 34.2313 25.0749 33.8029 24.4203 33.3065C23.7358 32.7874 22.7983 32.1415 21.6273 31.4486L20.6087 33.1698C21.7152 33.8245 22.5892 34.4279 23.2117 34.9C23.5232 35.1362 23.7683 35.3371 23.946 35.4926C24.035 35.5704 24.104 35.6342 24.1544 35.6833C24.2086 35.7361 24.2281 35.7592 24.2265 35.7572L25.7735 34.4897ZM26 41.7212V35.1234H24V41.7212H26ZM3.78099 44.99L25.106 42.7156L24.8939 40.7269L3.56888 43.0013L3.78099 44.99ZM1.7732 42.1104L2.75664 44.3916L4.59323 43.5998L3.6098 41.3186L1.7732 42.1104Z" fill="#1B2021" mask="url(#path-1-inside-1_40_295)"/>
<mask id="path-3-inside-2_40_295" fill="white">
<path fill-rule="evenodd" clip-rule="evenodd" d="M22.2309 45.1666C21.9634 44.5927 20.0362 43.6543 18.8147 43.7232C17.7736 43.7819 14.6909 44.7682 12.3128 45.5291C11.9007 45.6609 11.5097 45.786 11.1542 45.8983L0 47.2326L2.76915 41.5941C4.80504 41.5367 10.2577 40.6081 11.1542 40.2839C12.1374 39.9284 13.0723 39.5177 13.968 39.1244C16.609 37.9644 18.9083 36.9546 21.0921 37.951C23.4317 39.0184 24.6722 40.8635 25 41.6526V41.6544C25.3278 40.8653 26.5683 39.0202 28.9079 37.9527C31.0917 36.9564 33.391 37.9662 36.032 39.1261C36.9277 39.5195 37.8626 39.9302 38.8458 40.2857C39.7423 40.6099 45.195 41.5385 47.2309 41.5959L50 47.2344L38.8458 45.9001C38.4903 45.7878 38.0993 45.6627 37.6872 45.5308C35.3091 44.77 32.2264 43.7836 31.1853 43.7249C29.9638 43.6561 28.0366 44.5945 27.7691 45.1684H25V45.1666H22.2309Z"/>
</mask>
<path fill-rule="evenodd" clip-rule="evenodd" d="M22.2309 45.1666C21.9634 44.5927 20.0362 43.6543 18.8147 43.7232C17.7736 43.7819 14.6909 44.7682 12.3128 45.5291C11.9007 45.6609 11.5097 45.786 11.1542 45.8983L0 47.2326L2.76915 41.5941C4.80504 41.5367 10.2577 40.6081 11.1542 40.2839C12.1374 39.9284 13.0723 39.5177 13.968 39.1244C16.609 37.9644 18.9083 36.9546 21.0921 37.951C23.4317 39.0184 24.6722 40.8635 25 41.6526V41.6544C25.3278 40.8653 26.5683 39.0202 28.9079 37.9527C31.0917 36.9564 33.391 37.9662 36.032 39.1261C36.9277 39.5195 37.8626 39.9302 38.8458 40.2857C39.7423 40.6099 45.195 41.5385 47.2309 41.5959L50 47.2344L38.8458 45.9001C38.4903 45.7878 38.0993 45.6627 37.6872 45.5308C35.3091 44.77 32.2264 43.7836 31.1853 43.7249C29.9638 43.6561 28.0366 44.5945 27.7691 45.1684H25V45.1666H22.2309Z" fill="#1B2021"/>
<path d="M18.8147 43.7232L18.871 44.7216L18.8147 43.7232ZM22.2309 45.1666L21.3244 45.589L21.5936 46.1666H22.2309V45.1666ZM12.3128 45.5291L12.0081 44.5766H12.0081L12.3128 45.5291ZM11.1542 45.8983L11.273 46.8912L11.3661 46.8801L11.4555 46.8519L11.1542 45.8983ZM0 47.2326L-0.897595 46.7918L-1.70911 48.4442L0.118776 48.2256L0 47.2326ZM2.76915 41.5941L2.74097 40.5945L2.13763 40.6115L1.87156 41.1533L2.76915 41.5941ZM11.1542 40.2839L10.8142 39.3435L11.1542 40.2839ZM13.968 39.1244L13.5659 38.2088L13.968 39.1244ZM21.0921 37.951L21.5072 37.0412L21.0921 37.951ZM25 41.6526H26V41.4531L25.9235 41.2689L25 41.6526ZM25 41.6544H24L25.9235 42.038L25 41.6544ZM28.9079 37.9527L28.4928 37.043L28.9079 37.9527ZM36.032 39.1261L35.6299 40.0417V40.0417L36.032 39.1261ZM38.8458 40.2857L39.1858 39.3453V39.3453L38.8458 40.2857ZM47.2309 41.5959L48.1284 41.1551L47.8624 40.6133L47.259 40.5963L47.2309 41.5959ZM50 47.2344L49.8812 48.2273L51.7091 48.446L50.8976 46.7936L50 47.2344ZM38.8458 45.9001L38.5445 46.8537L38.6339 46.8819L38.727 46.893L38.8458 45.9001ZM37.6872 45.5308L37.3824 46.4833L37.6872 45.5308ZM31.1853 43.7249L31.2416 42.7265L31.1853 43.7249ZM27.7691 45.1684V46.1684H28.4064L28.6756 45.5908L27.7691 45.1684ZM25 45.1684H24V46.1684H25V45.1684ZM25 45.1666H26V44.1666H25V45.1666ZM18.871 44.7216C19.2523 44.7001 19.869 44.8478 20.4734 45.1172C20.7615 45.2456 21.0061 45.3839 21.1792 45.5062C21.3938 45.6577 21.375 45.6975 21.3244 45.589L23.1373 44.7442C22.953 44.3488 22.593 44.0561 22.3328 43.8724C22.0312 43.6594 21.6676 43.4598 21.2877 43.2905C20.5563 42.9645 19.5986 42.6774 18.7584 42.7247L18.871 44.7216ZM12.6175 46.4815C13.8095 46.1001 15.1617 45.6676 16.3448 45.3229C17.5757 44.9643 18.4878 44.7432 18.871 44.7216L18.7584 42.7247C18.1005 42.7618 16.9507 43.0632 15.7854 43.4027C14.5724 43.7561 13.1941 44.1971 12.0081 44.5766L12.6175 46.4815ZM11.4555 46.8519C11.8131 46.7389 12.2059 46.6132 12.6175 46.4815L12.0081 44.5766C11.5955 44.7086 11.2064 44.8331 10.853 44.9448L11.4555 46.8519ZM0.118776 48.2256L11.273 46.8912L11.0355 44.9054L-0.118776 46.2397L0.118776 48.2256ZM1.87156 41.1533L-0.897595 46.7918L0.897595 47.6735L3.66675 42.0349L1.87156 41.1533ZM10.8142 39.3435C10.6738 39.3943 10.2421 39.4998 9.55642 39.6367C8.9018 39.7673 8.08487 39.9135 7.22925 40.0519C5.49726 40.3321 3.68493 40.5679 2.74097 40.5945L2.79733 42.5937C3.88926 42.563 5.82122 42.3057 7.54868 42.0262C8.42278 41.8848 9.26436 41.7344 9.94789 41.598C10.6004 41.4677 11.1865 41.3356 11.4943 41.2243L10.8142 39.3435ZM13.5659 38.2088C12.666 38.604 11.7609 39.0011 10.8142 39.3435L11.4943 41.2243C12.5138 40.8556 13.4787 40.4315 14.3701 40.04L13.5659 38.2088ZM21.5072 37.0412C20.1534 36.4235 18.7922 36.4499 17.4758 36.7548C16.189 37.053 14.8635 37.6389 13.5659 38.2088L14.3701 40.04C15.7136 39.4499 16.8582 38.9509 17.9272 38.7032C18.9667 38.4624 19.847 38.4821 20.677 38.8607L21.5072 37.0412ZM25.9235 41.2689C25.5101 40.2738 24.1021 38.2251 21.5072 37.0412L20.677 38.8607C22.7613 39.8117 23.8343 41.4532 24.0765 42.0362L25.9235 41.2689ZM26 41.6544V41.6526H24V41.6544H26ZM25.9235 42.038C26.1657 41.455 27.2387 39.8135 29.323 38.8625L28.4928 37.043C25.8979 38.2269 24.4899 40.2755 24.0765 41.2707L25.9235 42.038ZM29.323 38.8625C30.153 38.4838 31.0333 38.4642 32.0728 38.705C33.1418 38.9527 34.2864 39.4517 35.6299 40.0417L36.4341 38.2106C35.1365 37.6407 33.811 37.0548 32.5242 36.7566C31.2078 36.4516 29.8466 36.4253 28.4928 37.043L29.323 38.8625ZM35.6299 40.0417C36.5213 40.4332 37.4862 40.8574 38.5057 41.2261L39.1858 39.3453C38.2391 39.0029 37.334 38.6058 36.4341 38.2106L35.6299 40.0417ZM38.5057 41.2261C38.8135 41.3374 39.3996 41.4695 40.0521 41.5998C40.7356 41.7362 41.5772 41.8866 42.4513 42.028C44.1788 42.3075 46.1107 42.5647 47.2027 42.5955L47.259 40.5963C46.3151 40.5697 44.5027 40.3339 42.7708 40.0537C41.9151 39.9152 41.0982 39.7691 40.4436 39.6384C39.7579 39.5016 39.3262 39.3961 39.1858 39.3453L38.5057 41.2261ZM46.3333 42.0367L49.1024 47.6752L50.8976 46.7936L48.1284 41.1551L46.3333 42.0367ZM50.1188 46.2415L38.9645 44.9072L38.727 46.893L49.8812 48.2273L50.1188 46.2415ZM39.147 44.9466C38.7936 44.8349 38.4045 44.7104 37.9919 44.5784L37.3824 46.4833C37.7941 46.615 38.1869 46.7407 38.5445 46.8537L39.147 44.9466ZM37.9919 44.5784C36.8058 44.1989 35.4276 43.7579 34.2146 43.4045C33.0493 43.065 31.8995 42.7636 31.2416 42.7265L31.129 44.7234C31.5122 44.745 32.4243 44.9661 33.6552 45.3247C34.8383 45.6693 36.1905 46.1019 37.3824 46.4833L37.9919 44.5784ZM31.2416 42.7265C30.4014 42.6792 29.4437 42.9663 28.7123 43.2923C28.3324 43.4616 27.9688 43.6612 27.6672 43.8742C27.407 44.0578 27.047 44.3506 26.8627 44.746L28.6756 45.5908C28.625 45.6993 28.6062 45.6595 28.8208 45.5079C28.9939 45.3857 29.2385 45.2474 29.5266 45.119C30.131 44.8495 30.7477 44.7019 31.129 44.7234L31.2416 42.7265ZM27.7691 44.1684H25V46.1684H27.7691V44.1684ZM26 45.1684V45.1666H24V45.1684H26ZM22.2309 46.1666H25V44.1666H22.2309V46.1666Z" fill="#1B2021" mask="url(#path-3-inside-2_40_295)"/>
<path d="M24.3869 36.189L23.1748 34.7704C23.1748 34.3369 23.1991 33.9232 23.2478 33.5291C23.126 33.1745 20.6896 32.1105 23.2113 30.3373C22.0479 28.1693 22.0966 27.4009 22.1453 26.8098C22.1697 26.2188 22.1818 24.5828 22.1818 24.3464V23.8735C22.1818 23.7159 22.1818 23.5582 22.1818 23.4006C22.1575 23.2036 22.1331 23.0066 22.1088 22.8095C22.0844 21.9032 23.26 22.5147 23.2113 22.1994C23.1869 22.0812 23.126 20.7014 23.0286 20.5043C22.9312 20.2679 22.8825 20.0315 22.8825 19.795C22.8825 18.0218 24.0459 18.5748 23.9485 16.5651C23.8267 14.516 23.7536 12.6049 23.7293 10.8316C23.7049 9.45245 23.6927 8.3491 23.6927 7.52159C23.6927 6.69407 23.6806 6.1818 23.6562 5.98478C23.6318 5.47251 23.6318 4.92083 23.6562 4.32975C23.6562 3.69926 23.6562 3.10818 23.6562 2.55651C23.6562 2.43829 23.6684 2.35948 23.6927 2.32008L22.7429 1.07881H19.5644C19.2234 1 18.9799 0.980298 18.8337 1.0197C18.6876 1.05911 18.5902 1.11821 18.5415 1.19702L17.7377 2.14275C17.5185 2.57621 17.3359 2.83235 17.1897 2.91116C17.0192 2.95056 16.8853 2.89146 16.7878 2.73383C16.6661 2.53681 16.5565 2.30037 16.459 2.02454C16.3616 1.7093 16.2642 1.41376 16.1668 1.13792L14.2305 1.31524L11.3443 3.26581C11.2469 3.42343 11.1616 3.58105 11.0886 3.73867C11.0155 3.85689 10.9424 3.9554 10.8694 4.03421C10.7476 4.23124 10.638 4.40856 10.5406 4.56618C10.4188 4.72381 10.3335 4.80262 10.2848 4.80262C10.2361 4.80262 10.0047 4.90113 9.59069 5.09816C9.15229 5.29518 8.7626 5.84686 8.42161 6.75318C8.1537 6.75318 7.88578 6.8911 7.61787 7.16694C7.3256 7.44277 7.08204 7.75802 6.88719 8.11266C6.69235 8.42791 6.54621 8.74315 6.44879 9.05839C6.32701 9.33423 6.29048 9.49185 6.33919 9.53126C6.75324 10.1617 6.8872 10.7134 6.74106 11.1863C6.57057 11.6591 6.32701 11.9941 6.01038 12.1911C5.91296 12.861 5.71811 13.3339 5.42584 13.6097C5.13357 13.8461 4.91437 14.0235 4.76824 14.1417C4.76824 14.2599 4.74388 14.8707 4.69517 15.974C4.64646 17.038 4.57339 12.4834 4.47597 14.5325C4.42725 15.557 4.37854 16.4633 4.32983 17.2514C4.28112 18.0001 4.23241 18.6306 4.18369 19.1429C4.13498 19.4581 4.09845 19.7537 4.07409 20.0295C4.04974 20.2659 4.02538 20.4827 4.00103 20.6797C3.97667 20.8767 4.39072 21.9998 5.24317 24.0488C6.11998 24.7969 6.55839 26.117 6.55839 26.7869L8.49468 30.4535C8.5921 30.4535 8.71388 30.5323 8.86002 30.69C9.00615 30.8082 9.15229 29.7239 9.29842 29.8815L9.88296 32.917C9.95603 32.9564 10.0291 32.9761 10.1022 32.9761C10.1752 32.9761 10.2605 31.7736 10.3579 31.813C10.504 31.8524 10.6989 31.8918 10.9424 31.9312C11.1616 31.9706 11.4174 33.252 11.7097 33.3308C12.3185 33.5278 12.83 34.8682 13.2441 34.9076C13.6581 34.947 13.9991 33.7051 14.267 33.6263C14.2914 33.114 15.1195 34.4939 16.7513 35.3214C17.1654 34.2962 17.5916 34.4735 18.03 34.6311C18.4684 34.7494 18.8703 36.0701 19.2356 36.1489C19.4548 36.2277 19.674 36.2868 19.8932 36.3262C20.0881 36.3656 20.2829 36.405 20.4778 37.6667L21.2815 37.3711C21.4276 37.4105 21.5738 37.4696 21.7199 37.5485C21.866 37.5879 21.9635 37.6076 22.0122 37.6076C22.0852 37.6076 22.1948 37.5682 22.341 37.4893C22.4628 37.4105 22.5724 37.3711 22.6698 37.3711C22.7185 37.3711 22.8281 37.3908 22.9986 37.4302C23.1447 37.4302 23.2421 37.4696 23.2909 37.5485L24.3869 36.189ZM17.2993 32.7206C17.0558 32.563 16.8 32.3463 16.5321 32.0705C16.2398 31.7552 15.9963 31.6567 15.8014 31.7749H14.7785C14.7298 31.7749 14.6202 31.6764 14.4497 31.4794C14.2792 31.2429 14.1574 31.1247 14.0843 31.1247C13.9869 31.1247 13.9382 31.2035 13.9382 31.3612C13.9382 31.4794 13.8043 31.5385 13.5363 31.5385C13.4389 31.5385 13.2075 31.4597 12.8422 31.302C12.4769 31.105 12.0872 29.6267 11.6731 29.3114C11.2347 28.9962 10.8937 29.982 10.6502 29.8244C10.3823 29.6667 10.2239 29.5682 10.1752 29.5288C10.1509 29.45 10.1387 29.3515 10.1387 29.2333C10.1143 29.1151 10.0778 24.0882 10.0291 23.9306C9.98039 23.6942 9.93167 23.4184 9.88296 23.1031C9.80989 22.7879 9.71247 22.4135 9.59069 21.9801C9.4202 21.0343 9.28625 20.3053 9.18882 19.7931C9.0914 19.2808 9.04269 18.9261 9.04269 18.7291L10.2118 11.7544C10.2118 11.4785 10.1996 11.2618 10.1752 11.1042C10.1752 10.9072 10.1752 16.7818 10.1752 16.506C10.1509 16.1908 10.1265 15.8164 10.1022 15.3829C10.0047 13.6885 9.94385 12.8413 9.9195 12.8413C9.94385 12.8019 10.0291 12.5852 10.1752 12.1911C10.297 11.7971 10.4797 11.2651 10.7232 10.5952C10.9668 9.88591 11.1738 9.15691 11.3443 8.40821C11.4904 7.6201 11.6122 7.22605 11.7097 7.22605L14.5958 4.21153H17.3359C17.3359 4.6844 17.3967 4.96024 17.5185 5.03905C17.6403 5.07845 17.7012 5.13756 17.7012 5.21637V6.28032C17.7012 6.59556 17.7012 6.96991 17.7012 7.40337C17.7012 7.83683 17.7134 8.32939 17.7377 8.88107V12.7822C18.1518 13.1368 18.3832 13.5506 18.4319 14.0235C18.4319 14.3781 18.5415 14.9298 18.7607 15.6785C18.8094 15.7573 18.8337 15.8952 18.8337 16.0922C18.8337 16.6439 18.8337 17.038 18.8337 17.2744C18.8094 17.4714 18.8337 17.8261 18.9068 18.3384C18.9555 18.4172 18.9068 19.1068 18.7607 20.4071C18.6145 21.7863 18.5293 22.4956 18.5049 22.535C18.5293 22.732 18.5658 23.0079 18.6145 23.3625C18.6389 23.7172 18.6876 24.1309 18.7607 24.6038C18.8337 25.0767 18.8825 25.4313 18.9068 25.6677C18.9312 25.9042 18.9433 26.0618 18.9433 26.1406C18.9433 26.6135 18.9068 27.4607 18.8337 28.6823C18.8094 29.3127 18.7972 29.8644 18.7972 30.3373C18.7728 30.7707 18.7607 29.8638 18.7607 30.0608C18.712 30.376 18.6754 30.6913 18.6511 31.0065C18.6024 31.3218 18.5536 31.6567 18.5049 32.0113L17.2993 32.7206Z" fill="#475016"/>
<path d="M39.9519 4.10735C40.0046 4.52166 40.1232 4.78531 40.3078 4.89831C40.5188 5.0113 40.6374 5.16196 40.6638 5.35028C40.7165 5.7646 40.7824 6.10358 40.8615 6.36723C40.967 6.63089 41.1516 6.87571 41.4152 7.1017C41.7053 7.32769 41.8767 7.629 41.9294 8.00565C41.9821 8.34463 42.114 8.68362 42.3249 9.0226C42.3513 9.17326 42.3513 9.38042 42.3249 9.64407C42.3249 9.90772 42.2986 10.1714 42.2458 10.435C42.2194 10.661 42.1799 10.887 42.1272 11.113C42.0744 11.339 42.0349 11.4708 42.0085 11.5085C41.9821 11.6215 41.9558 11.7345 41.9294 11.8475C41.903 11.9605 41.8635 12.0923 41.8108 12.2429C41.758 12.4313 41.6789 12.6761 41.5735 12.9774C41.4943 13.2411 41.3889 13.5424 41.257 13.8814C40.7824 15.1996 40.3869 16.0471 40.0705 16.4237C40.0441 16.4991 39.9123 16.5367 39.675 16.5367C39.4641 16.5367 39.2268 16.5556 38.9631 16.5932C38.6994 16.6309 38.4621 16.7062 38.2512 16.8192C38.0402 16.9322 37.9348 17.1394 37.9348 17.4407C37.7502 17.516 37.6711 17.6478 37.6975 17.8362C37.7502 17.9868 37.8293 18.1563 37.9348 18.3446C38.0666 18.533 38.1852 18.7213 38.2907 18.9096C38.3962 19.0603 38.4226 19.1544 38.3698 19.1921C38.8181 19.3428 39.3322 19.3993 39.9123 19.3616C40.4924 19.3239 40.967 19.3051 41.3361 19.3051C41.4943 19.7194 41.6789 20.0396 41.8899 20.2655C42.1008 20.4539 42.4172 20.548 42.8391 20.548L44 22.2279L43.8814 25.3202L42.6157 27.58C41.6929 27.58 42.0744 28.2015 41.3361 29.4444L40.2683 30.0866C39.9782 30.275 39.5959 32.8512 39.1213 32.9266C38.6467 32.9642 37.8688 31.7608 36.7878 31.7608C36.0759 31.7608 35.3771 32.9642 34.6916 32.9266C34.0324 32.8889 33.4259 32.8701 32.8722 32.8701C32.3449 32.8701 31.9098 34.1111 31.5671 34.1488C31.2506 34.1488 31.0924 34.2053 31.0924 34.3183C30.6706 34.2053 30.3542 32.9454 30.1432 32.9831C29.9323 34.2429 29.7477 34.2241 29.5895 34.1488L25.5949 37.6667L25.8182 36.4802C25.8446 36.1413 25.8841 35.7458 25.9369 35.2938C26.0687 34.6912 26.1478 34.1827 26.1742 33.7684C26.2269 33.3164 26.2533 32.9397 26.2533 32.6384C26.2533 32.5631 26.2401 32.4124 26.2137 32.1864C26.1873 31.9228 26.1346 31.7156 26.0555 31.565L26.2137 30.5631C26.6356 30.6761 27.0047 30.5631 27.3211 30.2241L26.3859 26.6497C26.1749 26.1224 27.242 25.7269 27.1629 25.4633C27.0838 25.162 26.8597 25.0113 26.4906 25.0113L25.0411 21.5085C25.173 21.4708 25.2653 21.3767 25.318 21.226C25.3707 21.0753 25.3971 20.9247 25.3971 20.774L25.4366 20.322C25.4894 20.1337 25.5421 20.0207 25.5949 19.9831C25.7267 19.4557 25.8322 18.7401 25.9113 17.8362C25.9904 16.8945 26.0695 15.7834 26.1486 14.5028C26.254 13.1846 26.32 12.0546 26.3463 11.113C26.3991 10.1714 26.4254 9.58757 26.4254 9.36159C26.4254 9.32392 26.3859 8.75895 26.3068 7.66667C26.2277 6.61205 25.8717 5.80226 25.2389 5.23729V2.18644C25.3707 1.88512 25.7794 1.73446 26.465 1.73446C26.6495 1.6968 26.8077 1.67797 26.9396 1.67797C27.0978 1.67797 27.2296 1.67797 27.3351 1.67797H27.7306C27.8888 1.67797 28.2052 1.67797 28.6798 1.67797C29.1808 1.6403 29.6159 1.56497 29.985 1.45198C30.0641 1.37665 30.2223 1.28249 30.4596 1.16949C30.6969 1.0565 30.8419 1 30.8947 1L35.443 1.16949C35.4694 1.43315 35.5485 1.67797 35.6804 1.90396C35.8386 2.09228 36.0099 2.2806 36.1945 2.46893C36.3791 2.61959 36.5505 2.75141 36.7087 2.86441C36.8932 2.9774 37.0251 3.07156 37.1042 3.1469C37.3679 3.1469 37.592 3.16573 37.7766 3.20339C37.9611 3.20339 38.1325 3.22222 38.2907 3.25989C38.528 3.29755 38.8972 3.29755 39.3981 3.25989L39.9519 4.10735ZM30.8947 29.1412L36.155 29.7627C36.4977 28.4275 36.7878 28.3145 37.0251 28.2015C37.2888 28.0885 37.5392 29.1601 37.7766 28.9718C38.0139 28.7458 38.2644 28.4445 38.528 28.0678C38.8181 27.6912 39.1608 28.4049 39.5563 27.7646L40.3078 26.7627L39.319 22.5819L33.8215 19.8136L31.6857 19.7571C31.3166 19.9454 31.0529 20.322 30.8947 20.887C30.7365 21.4143 30.6574 21.9605 30.6574 22.5254C30.6837 23.6554 30.7365 24.1638 30.8156 24.0509C30.8419 24.2015 30.7892 24.5593 30.6574 25.1243C30.5519 25.6516 30.486 26.4049 30.4596 27.3842C30.4333 27.8738 30.4201 28.307 30.4201 28.6836C30.4201 29.0603 30.4201 29.3804 30.4201 29.6441V30.548L30.3805 28.0678L30.8947 29.1412ZM31.3297 6.19774L31.3693 8.28814L30.8156 9.58757L31.3297 11.6215V15.1808L31.923 16.0848H32.9118C33.2018 16.0471 33.4655 16.0659 33.7028 16.1412C33.9665 16.1789 34.1247 16.1977 34.1774 16.1977C34.4675 16.1977 34.6652 16.1224 34.7707 15.9718C34.9025 15.7834 34.9816 15.6893 35.008 15.6893C35.0871 15.6893 35.2321 15.7834 35.443 15.9718L36.2341 15.2373C36.1813 14.8983 36.1813 14.5593 36.2341 14.2203C36.2604 13.919 36.3 13.6177 36.3527 13.3164C36.4055 12.9774 36.5109 12.6573 36.6691 12.3559C36.9328 11.791 37.1042 11.3767 37.1833 11.113C37.2888 10.8117 37.381 10.4727 37.4601 10.096C37.381 9.53108 37.2624 9.0791 37.1042 8.74011C36.9724 8.36347 36.8273 8.06215 36.6691 7.83616C36.5109 7.57251 36.3659 7.34652 36.2341 7.15819C36.1286 6.96987 36.0627 6.76271 36.0363 6.53673C35.8254 6.19774 35.6672 5.82109 35.5617 5.40678C35.4562 4.99247 35.3639 4.78531 35.2848 4.78531L33.7424 4.33333L32.1208 4.84181L31.3297 6.19774Z" fill="#475016"/>
<path d="M24.6061 35.2222V37.6667L29.4546 34V38.2778L28.8485 37.6667L28.2424 40.1111L27.6364 38.8889L26.4243 41.9444V40.7222L25.8182 41.9444L24.6061 45L24 42.5556L23.394 41.9444V39.5L22.7879 40.1111L22.1818 38.2778L21.5758 37.6667L24.6061 35.2222Z" fill="#475016"/>
</svg>
