<svg width="320" height="77" viewBox="0 0 320 77" fill="none" xmlns="http://www.w3.org/2000/svg">
<path d="M130 36L102.5 63.5L163.5 68L130 36Z" fill="#1B2021"/>
<path d="M35.5 66.5L0 38.5V65L35.5 66.5Z" fill="#1B2021"/>
<path d="M31 35L0 65L154 72L71 7.5L35 38L31 35Z" fill="#1B2021"/>
<path d="M160.5 33.5L105 76.5L320 72L297 56L272 39.5L267 41.5L237.5 19.5L235 22L208 0L164 37L160.5 33.5Z" fill="#1B2021"/>
<path d="M1.5 41L5.5 52.5" stroke="#FFE5EC" stroke-width="2"/>
<path d="M33 41L21 60" stroke="#FFE5EC" stroke-width="2"/>
<path d="M49.5 29.5L39.5 56" stroke="#FFE5EC" stroke-width="2"/>
<path d="M71.5 10L64.5 20V28H60.5L53.5 44L48 54" stroke="#FFE5EC" stroke-width="2"/>
<path d="M75 14.5L72 24.5V31.5L69 35L66 42.5L65 54.5L59.5 60" stroke="#FFE5EC" stroke-width="2"/>
<path d="M80 27L81 38L80 45L77 57.5" stroke="#FFE5EC" stroke-width="2"/>
<path d="M88.5 25.5L93 35L94.5 40.5L101 47.5L107.5 59L112 62.5" stroke="#FFE5EC" stroke-width="2"/>
<path d="M111 46L119.5 62" stroke="#FFE5EC" stroke-width="2"/>
<path d="M131 40L133.5 45V49.5L134.5 51.5" stroke="#FFE5EC" stroke-width="2"/>
<path d="M133.5 61.5L130 65" stroke="#FFE5EC" stroke-width="2"/>
<path d="M166 35.5L156.5 49L152.5 50.5L146.5 59" stroke="#FFE5EC" stroke-width="2"/>
<path d="M188.5 16L181 24.5L176.5 32.5L168.5 40L161 50.5" stroke="#FFE5EC" stroke-width="2"/>
<path d="M199 9L192.5 19L191 25L184 33L181.5 41.5L174 52" stroke="#FFE5EC" stroke-width="2"/>
<path d="M208 2L206.5 9.5L203 15L199 24L189.5 37" stroke="#FFE5EC" stroke-width="2"/>
<path d="M203.5 15.5L212.5 25L215 31.5" stroke="#FFE5EC" stroke-width="2"/>
<path d="M197 27L205.5 35L209 40.5" stroke="#FFE5EC" stroke-width="2"/>
<path d="M190.5 36L205 45.5L209 50.5" stroke="#FFE5EC" stroke-width="2"/>
<path d="M235 23L237 29.5L242.5 34" stroke="#FFE5EC" stroke-width="2"/>
<path d="M267.5 44.5L273 48" stroke="#FFE5EC" stroke-width="2"/>
</svg>
