<svg width="40" height="80" viewBox="0 0 40 80" fill="none" xmlns="http://www.w3.org/2000/svg">
<path d="M1.27273 80L0 77.4041C0.848486 76.1455 1.75758 74.4936 2.72727 72.4484C3.81818 70.5605 4.42424 68.7512 4.54546 67.0206L5.45455 67.4926C8.60606 63.7168 11.697 59.8623 14.7273 55.9292C17.7576 51.9961 20.3636 47.591 22.5455 42.7139C23.8788 41.4553 25.3939 40.1967 27.0909 38.938C28.9091 37.5221 30.1212 35.7915 30.7273 33.7463C30.1212 32.0157 29.0909 30.7571 27.6364 29.9705C26.303 29.1839 25.5152 27.8466 25.2727 25.9587L24.9091 27.1386C23.4545 25.5654 21.9394 23.7561 20.3636 21.7109C18.7879 19.5084 18.2424 17.0698 18.7273 14.3953L18.1818 14.1593L17.0909 14.6313L16.3636 14.3953C15.5152 13.294 14.6061 12.1141 13.6364 10.8555C12.6667 9.59685 11.9394 8.25959 11.4545 6.84366C10.7273 5.89971 10.0606 5.03441 9.45455 4.24779C8.84849 3.46116 8.42424 2.43855 8.18182 1.17994L9.45455 0C10.9091 0 12.6061 1.02261 14.5455 3.06784C16.6061 5.11307 18.6667 7.55162 20.7273 10.3835C22.7879 13.2153 24.7273 15.9685 26.5455 18.6431C28.4848 21.3176 30.0606 23.3628 31.2727 24.7788C33.3333 27.1386 35.2727 29.4985 37.0909 31.8584C39.0303 34.061 40 37.1288 40 41.0619C40 41.6913 39.9394 42.3206 39.8182 42.9499C39.697 43.4218 39.5758 43.8938 39.4545 44.3658V43.8938L38.9091 42.7139L38.3636 43.1858L37.8182 43.8938L38.5455 45.5457L36.1818 46.7257L35.2727 45.3097L34.3636 47.6696C32.1818 49.5575 30.1212 51.6814 28.1818 54.0413C26.3636 56.2439 24.4849 58.4464 22.5455 60.649L20.9091 59.469L19.2727 60.885C19.6364 61.9862 20.3636 62.9302 21.4545 63.7168C20.4848 64.8181 19.4545 65.4474 18.3636 65.6047L18.1818 65.1327L18.7273 63.9528L18.3636 63.2448C17.5152 64.3461 16.6667 65.8407 15.8182 67.7286L16 68.6726C13.697 70.8751 11.2121 72.6844 8.54545 74.1003C5.87879 75.6736 3.45455 77.6401 1.27273 80Z" fill="#052319"/>
</svg>
