<svg width="121" height="569" viewBox="0 0 121 569" fill="none" xmlns="http://www.w3.org/2000/svg">
<path d="M87.0834 340H121V0L92.6318 3.5C92.6318 7.91298 81.9222 13.5398 80.6318 17.5516C82.7824 19.2232 87.3415 22.8673 88.3738 24.0708C89.406 25.2743 88.5171 30.59 87.9437 33.0973C87.9437 35.1032 85.6498 41.9567 84.5028 45.1327C85.363 46.9715 87.2555 50.9499 87.9437 52.1534C88.6318 53.3569 88.5171 58.3382 88.3738 60.6785C89.6641 61.6814 94.3953 74.7198 98.6964 80.236C102.997 85.7522 106.438 106.814 106.438 108.82C106.438 110.425 101.564 114.503 99.1265 116.342C99.4132 119.184 99.9867 125.469 99.9867 127.876C99.9867 130.283 99.1265 138.909 98.6964 142.92C100.847 148.771 105.406 161.074 106.438 163.481C107.729 166.49 107.729 187.552 107.729 189.558C107.729 191.563 101.277 200.088 99.9867 202.094C98.6964 204.1 96.9759 212.625 96.1157 214.631C95.4275 216.236 92.9616 218.309 91.8146 219.145C92.5028 232.785 92.3881 246.893 92.2447 252.242C97.7501 255.451 97.406 259.263 96.5458 260.767C87.9437 275.611 86.6533 319.774 87.0834 340Z" fill="#1b2021"/>
<path d="M65.6967 429.013C66.1967 435.513 78.1967 455.013 83.1967 477.513C86.4691 492.239 91.5 476 121 474V287.054C121 287.054 107.697 292.013 107.197 294.013C106.697 296.013 102.697 314.013 101.197 315.013C99.6967 316.013 94.1967 316.013 93.1967 319.013C92.3967 321.413 91.8634 322.68 91.6967 323.013C86.0967 327.413 83.6967 331.513 83.1967 333.013C87.6967 356.513 81.1967 361.513 79.6967 363.013C78.1967 364.513 83.1967 380.013 82.6967 382.013C82.1967 384.013 73.1967 396.013 69.6967 398.513C66.1967 401.013 70.6967 415.513 69.1967 418.513C67.6967 421.513 65.1967 422.513 65.6967 429.013Z" fill="#475016"/>
<path d="M13.0001 521.772C12.5001 523.772 3.50014 535.772 0.000137329 538.272L107.132 560.5C108.132 481.901 93.8351 442.959 91.4351 439.759C88.4351 435.759 51.0002 448.772 50.5002 450.772C50.0002 452.772 46.0002 470.772 44.5002 471.772C43.0002 472.772 37.5001 472.772 36.5001 475.772C35.7001 478.172 35.1668 479.439 35.0001 479.772C29.4001 484.172 27.0001 488.272 26.5001 489.772C31.0001 513.272 24.5001 518.272 23.0001 519.772C21.5001 521.272 13.5001 519.772 13.0001 521.772Z" fill="#dceab2"/>
<path d="M51.6967 510.013C52.1967 516.513 69.1967 558.513 69.1967 558.513L121 569V385C116 385 106.697 390.013 106.197 392.013C105.697 394.013 101.697 412.013 100.197 413.013C98.6967 414.013 93.1967 414.013 92.1967 417.013C91.3967 419.413 90.8634 420.68 90.6967 421.013C85.0967 425.413 82.6967 429.513 82.1967 431.013C86.6967 454.513 80.1967 459.513 78.6967 461.013C77.1967 462.513 69.1967 461.013 68.6967 463.013C68.1967 465.013 59.1967 477.013 55.6967 479.513C52.1967 482.013 56.6967 496.513 55.1967 499.513C53.6967 502.513 51.1967 503.513 51.6967 510.013Z" fill="#dceab2"/>
</svg>
