<?xml version="1.0" standalone="no"?>
<!DOCTYPE svg PUBLIC "-//W3C//DTD SVG 20010904//EN"
 "http://www.w3.org/TR/2001/REC-SVG-20010904/DTD/svg10.dtd">
<svg version="1.0" xmlns="http://www.w3.org/2000/svg"
 width="700.000000pt" height="700.000000pt" viewBox="0 0 700.000000 700.000000"
 preserveAspectRatio="xMidYMid meet">
<metadata>
Created by potrace 1.14, written by Peter Selinger 2001-2017
</metadata>
<g transform="translate(0.000000,700.000000) scale(0.100000,-0.100000)"
fill="#000000" stroke="none">
<path d="M2158 5561 c-13 -11 -37 -43 -52 -73 -60 -111 -79 -135 -119 -145
-37 -10 -37 -10 -21 8 10 11 14 22 10 26 -3 4 -13 -3 -22 -15 -8 -12 -19 -22
-24 -22 -12 0 -2 27 22 62 24 35 23 38 -9 38 -37 -1 -62 -16 -107 -67 -21 -24
-47 -43 -58 -43 -32 0 -17 31 22 44 28 9 35 16 35 36 0 39 -28 29 -94 -31 -61
-56 -79 -83 -37 -56 21 14 25 14 30 2 7 -20 46 -19 74 1 20 14 22 14 22 0 0
-20 19 -20 40 -1 16 14 18 14 23 -4 3 -13 -3 -22 -22 -31 -39 -17 -211 -133
-211 -142 0 -4 -6 -8 -14 -8 -7 0 -20 -7 -27 -16 -14 -17 -78 -199 -79 -222 0
-8 -29 -95 -65 -195 l-65 -181 12 -193 c11 -186 16 -219 24 -153 2 17 18 77
35 133 16 56 35 120 41 142 6 22 17 47 25 55 12 13 13 11 4 -12 -16 -42 10
-36 33 7 10 19 28 42 39 52 20 18 20 18 3 -14 -19 -38 -21 -73 -4 -73 7 0 29
17 50 37 l38 37 -12 -32 c-15 -39 -7 -48 28 -29 25 13 30 13 40 -1 17 -24 63
-6 107 41 l38 42 -20 -48 c-24 -56 -10 -64 18 -9 10 20 28 45 39 55 20 18 21
18 31 0 9 -16 10 -16 11 6 0 20 -3 22 -26 17 -15 -4 -23 -3 -20 3 3 5 -2 7
-11 4 -10 -2 -31 -22 -48 -45 -33 -44 -82 -75 -96 -61 -14 14 0 43 20 43 23 0
61 28 61 46 0 8 -10 14 -26 14 -19 0 -39 -14 -72 -50 -25 -27 -49 -50 -53 -50
-4 0 -1 20 8 45 11 34 20 45 36 46 18 1 19 2 4 6 -17 4 -16 7 3 39 12 19 17
34 10 34 -6 0 -20 -16 -31 -35 -12 -19 -28 -35 -37 -35 -10 0 -13 -3 -7 -8 13
-9 18 -33 6 -29 -6 1 -23 -14 -39 -33 -37 -44 -48 -36 -22 15 11 22 20 43 20
47 0 13 -35 9 -49 -4 -10 -11 -11 -10 -6 5 11 28 -21 21 -43 -10 -18 -24 -16
-16 7 52 57 162 104 256 137 272 17 8 24 8 27 -1 3 -8 11 -7 28 3 16 10 24 10
27 2 2 -6 10 -11 17 -11 17 0 75 48 75 63 0 6 -13 -2 -30 -18 -36 -35 -38 -24
-5 34 14 23 25 45 25 47 0 8 -50 4 -72 -7 -13 -5 -36 -28 -52 -49 -16 -22 -32
-38 -34 -35 -9 8 80 115 130 156 57 48 174 110 194 102 8 -3 14 0 14 7 0 8 9
10 24 6 14 -3 27 -2 30 2 6 10 60 8 91 -3 86 -29 144 -71 191 -136 l32 -44
-24 -18 c-30 -22 -57 -74 -50 -93 6 -17 36 -18 70 -3 32 15 56 -7 73 -65 l11
-41 2 50 c2 60 2 84 1 386 l-1 237 -62 -19 c-33 -11 -70 -17 -80 -13 -11 3
-27 -1 -36 -9 -19 -16 -62 -29 -62 -18 0 4 5 12 12 19 9 9 8 12 -5 12 -9 0
-27 -11 -39 -25 -12 -14 -25 -25 -30 -25 -5 0 -6 11 -2 25 8 34 -12 33 -51 -4
-16 -16 -43 -31 -58 -35 -25 -6 -27 -5 -18 11 5 10 21 29 36 43 55 50 106 150
76 150 -4 0 -19 -9 -33 -19z m-2 -55 c-31 -53 -55 -73 -30 -25 26 51 46 80 52
75 2 -3 -7 -25 -22 -50z m-336 -96 c0 -9 -31 -30 -45 -30 -3 0 -1 9 5 20 11
20 40 28 40 10z m100 0 c0 -13 -59 -78 -60 -65 0 16 39 75 50 75 5 0 10 -4 10
-10z m-89 -427 c-5 -10 -21 -29 -36 -43 l-28 -25 13 25 c16 32 40 60 52 60 5
0 4 -8 -1 -17z m603 -50 c-52 -47 -73 -18 -27 37 l26 32 13 -24 c12 -21 11
-25 -12 -45z m-586 -365 c-6 -16 -36 -34 -44 -25 -9 9 15 37 33 37 8 0 13 -5
11 -12z"/>
<path d="M4540 5562 c-8 -10 -28 -42 -43 -70 -27 -49 -28 -57 -30 -209 l-2
-158 -36 -73 -37 -73 39 -147 c21 -81 39 -149 39 -152 1 -3 14 30 30 72 31 85
64 138 84 138 8 0 19 7 27 16 11 14 13 14 21 0 5 -9 18 -16 30 -16 26 0 84 35
92 56 4 10 -6 6 -25 -10 -33 -28 -69 -34 -69 -12 0 8 16 20 35 26 41 13 58 38
44 63 -6 9 -6 17 -2 18 4 0 17 3 28 6 57 16 209 -5 179 -25 -6 -4 -18 -21 -27
-37 -19 -38 -57 -74 -57 -54 0 8 9 28 20 44 41 62 11 77 -39 20 -38 -43 -41
-57 -5 -24 l27 24 -17 -32 c-29 -58 -18 -78 28 -48 21 14 24 14 29 0 9 -22 22
-19 62 16 38 34 40 33 25 -5 -14 -39 14 -34 30 4 18 44 32 48 28 9 -3 -32 -1
-34 24 -32 24 2 33 -7 67 -65 22 -37 52 -97 67 -134 l27 -67 23 50 c32 67 74
204 74 237 0 69 -62 219 -138 336 -29 44 -52 85 -53 90 -2 31 -9 52 -21 61 -7
5 -15 21 -16 35 -5 34 -10 37 -26 15 -12 -17 -17 -16 -89 19 -86 41 -268 91
-367 101 -56 5 -67 3 -80 -13z m426 -621 c-28 -27 -36 -32 -36 -18 0 24 27 74
42 80 7 2 17 -3 22 -11 6 -10 -2 -25 -28 -51z m-246 50 c0 -13 -29 -35 -37
-28 -7 8 15 37 28 37 5 0 9 -4 9 -9z m-70 -24 c0 -2 -14 -16 -32 -33 l-31 -29
22 33 c18 26 41 42 41 29z"/>
<path d="M6119 5505 c-36 -79 -37 -98 -2 -30 30 59 52 87 64 79 5 -3 9 0 9 5
0 6 -9 11 -21 11 -15 0 -27 -16 -50 -65z"/>
<path d="M1033 5543 c-25 -5 -35 -24 -22 -44 7 -11 9 -11 9 4 0 20 42 40 75
35 20 -3 17 -10 -37 -107 -32 -58 -58 -106 -58 -109 0 -2 6 -2 14 0 8 2 38 50
68 108 50 98 55 105 83 105 26 0 30 -4 33 -32 4 -41 -29 -72 -77 -74 -32 -2
-33 -2 -7 -6 84 -13 154 93 80 121 -17 6 -125 6 -161 -1z"/>
<path d="M5933 5543 c-35 -7 -50 -31 -30 -50 15 -15 16 -15 11 4 -7 24 -1 29
47 38 l36 7 -35 -74 c-19 -40 -45 -88 -59 -105 -13 -18 -19 -33 -13 -33 14 0
63 78 80 129 7 22 16 41 20 41 8 0 50 -148 50 -176 0 -16 2 -16 14 -4 7 8 16
29 19 45 4 17 4 24 1 18 -11 -25 -24 -12 -38 40 -29 100 -30 107 -12 107 9 0
16 5 16 10 0 10 -63 12 -107 3z"/>
<path d="M2370 5484 c0 -17 22 -14 28 4 2 7 -3 12 -12 12 -9 0 -16 -7 -16 -16z"/>
<path d="M6191 5423 c4 -24 -4 -45 -26 -71 l-24 -29 35 11 c19 6 30 12 24 14
-6 2 -4 15 5 32 19 37 19 50 0 50 -8 0 -14 -3 -14 -7z"/>
<path d="M6245 5394 c-33 -35 -36 -59 -11 -76 18 -12 31 -9 18 4 -19 19 -14
38 11 48 19 8 20 9 3 9 -18 1 -18 3 4 26 13 14 20 25 16 25 -5 0 -23 -16 -41
-36z"/>
<path d="M6305 5420 c4 -6 1 -17 -5 -25 -8 -10 -9 -15 -2 -15 14 0 34 35 25
44 -10 10 -25 7 -18 -4z"/>
<path d="M3629 5378 c-68 -56 -89 -97 -89 -173 0 -33 -5 -67 -10 -75 -9 -13
-10 -13 -11 0 -1 8 -5 -1 -9 -20 l-7 -35 -8 33 c-6 24 -10 30 -16 20 -5 -7 -9
-11 -9 -8 -1 3 -5 42 -9 86 -4 45 -13 88 -19 95 -7 8 -24 29 -38 47 -15 18
-28 31 -30 29 -8 -7 17 -993 31 -1262 9 -159 20 -436 24 -615 7 -305 9 -328
30 -375 18 -40 24 -79 31 -205 13 -211 12 -479 -2 -630 -6 -69 -12 -260 -13
-425 -1 -165 -3 -358 -4 -430 l-1 -130 -76 -90 c-41 -49 -81 -88 -87 -86 -55
18 -92 18 -132 0 -40 -18 -45 -18 -96 -3 -49 15 -58 15 -105 0 -28 -9 -62 -16
-76 -16 -30 0 -338 75 -394 96 -39 15 -44 15 -83 -5 -69 -36 -155 -53 -234
-48 -40 3 -81 8 -92 11 -11 3 -39 10 -61 16 -78 18 -303 129 -342 166 -16 17
-26 19 -172 49 l-125 25 -60 62 c-33 34 -63 61 -67 60 -4 -1 -17 11 -30 26
l-23 27 -145 -2 c-156 -2 -159 -1 -160 52 0 46 -70 242 -152 430 -41 94 -86
197 -99 229 l-24 59 -3 -93 c-4 -133 28 -324 83 -488 56 -166 157 -377 224
-466 28 -37 51 -71 51 -75 0 -10 80 -77 140 -118 141 -95 408 -199 563 -218
21 -3 48 -7 60 -10 12 -3 90 -10 172 -16 83 -5 164 -12 180 -13 64 -8 202 -49
319 -95 66 -27 132 -52 146 -56 14 -4 43 -16 66 -26 22 -10 52 -20 65 -23 13
-3 47 -9 74 -15 28 -6 121 -8 210 -6 88 3 174 4 190 4 93 -2 123 -2 152 4 77
14 133 36 133 52 0 30 75 25 85 -5 8 -25 98 -51 181 -51 144 -1 439 27 594 56
41 8 120 19 175 25 55 6 116 13 135 15 52 7 288 15 530 19 191 3 226 7 311 29
53 14 116 36 140 49 63 34 139 87 139 98 0 6 4 10 10 10 12 0 361 348 415 413
144 175 202 331 212 562 3 72 3 128 0 125 -3 -3 -35 -55 -69 -115 l-64 -109
-54 -11 c-142 -29 -214 -100 -377 -371 -79 -132 -88 -144 -127 -158 -83 -30
-124 -36 -260 -36 -135 0 -141 -1 -225 -35 -187 -74 -385 -67 -566 22 -45 22
-58 24 -125 18 -41 -4 -81 -12 -87 -17 -7 -6 -21 -7 -30 -3 -10 4 -61 8 -113
10 -90 3 -109 0 -360 -66 -146 -38 -272 -69 -281 -69 -9 0 -47 35 -83 78 -77
90 -78 98 -46 283 33 196 42 320 28 391 -14 69 -15 192 -3 420 l7 146 43 0
c25 -1 56 7 76 18 29 17 37 31 56 97 l22 78 -35 92 c-39 103 -54 123 -94 132
-31 7 -28 -10 -51 318 -12 167 -12 168 10 191 17 18 24 41 28 88 3 34 12 75
19 89 32 64 51 225 89 756 33 461 41 744 26 902 -12 126 -35 231 -51 231 -5 0
-33 -19 -61 -42z m-109 -355 c0 -20 4 -32 10 -28 6 4 10 -26 10 -82 0 -48 5
-104 10 -123 5 -19 18 -69 29 -110 11 -41 21 -90 21 -108 0 -20 4 -31 10 -27
6 4 10 -11 11 -37 0 -24 3 -86 5 -139 6 -145 -31 -455 -65 -543 -7 -16 -15
-94 -18 -172 -3 -79 -10 -141 -14 -139 -4 3 -9 -1 -12 -7 -2 -7 -7 5 -11 27
-4 22 -11 45 -16 50 -22 28 -29 144 -35 525 -5 393 5 826 21 879 7 23 8 24 16
5 5 -13 7 -4 5 27 -1 34 1 45 11 42 6 -3 12 -21 12 -40z"/>
<path d="M6135 5394 c-14 -15 -25 -30 -25 -35 0 -4 -3 -14 -6 -23 -4 -10 -1
-16 10 -16 8 0 13 6 10 13 -2 7 7 30 20 50 30 43 25 48 -9 11z"/>
<path d="M6286 5335 c-11 -8 -15 -15 -9 -15 6 0 16 7 23 15 16 19 11 19 -14 0z"/>
<path d="M2127 5140 c-14 -11 -39 -44 -55 -74 -24 -41 -37 -55 -60 -59 -33 -7
-72 -59 -72 -96 0 -25 3 -26 35 -5 23 15 25 15 25 0 0 -25 16 -19 62 22 28 25
38 30 30 15 -15 -27 -15 -53 -2 -53 5 0 29 17 52 38 29 26 39 31 34 17 -16
-39 -18 -55 -8 -55 5 0 15 13 22 29 12 29 60 82 60 65 -1 -5 -7 -20 -15 -34
-18 -32 -19 -60 -2 -60 7 0 26 15 43 32 28 32 28 32 2 9 -38 -33 -43 -23 -14
31 14 26 22 49 19 52 -3 3 -18 -1 -34 -10 -25 -13 -28 -13 -23 1 6 16 -4 20
-21 7 -5 -4 -27 -28 -48 -54 -50 -62 -64 -61 -32 2 28 55 29 60 15 60 -9 0
-24 -15 -83 -85 -44 -52 -39 -21 13 83 53 105 79 133 106 111 11 -9 14 -8 14
10 0 27 -29 28 -63 1z m-97 -150 c0 -12 -61 -82 -67 -76 -6 5 15 45 35 69 17
19 32 22 32 7z"/>
<path d="M6041 5124 c-12 -15 -21 -34 -21 -43 0 -9 10 1 22 22 12 20 26 37 30
37 15 0 8 -26 -19 -65 -16 -24 -20 -34 -9 -26 16 13 56 82 56 96 0 16 -42 1
-59 -21z"/>
<path d="M2152 5069 c2 -6 8 -10 13 -10 5 0 11 4 13 10 2 6 -4 11 -13 11 -9 0
-15 -5 -13 -11z"/>
<path d="M6055 4985 c-17 -16 -25 -35 -25 -60 0 -42 16 -45 66 -14 46 28 43
34 -3 9 -23 -12 -41 -16 -46 -11 -15 15 0 41 23 41 24 0 63 36 55 50 -11 18
-45 10 -70 -15z m53 3 c-6 -16 -36 -34 -44 -25 -9 9 15 37 33 37 8 0 13 -5 11
-12z"/>
<path d="M5139 4659 c-9 -4 -22 -22 -29 -39 -7 -16 -18 -30 -26 -30 -7 0 -11
-6 -8 -13 2 -7 -14 -30 -36 -52 -43 -42 -53 -32 -20 23 11 18 20 35 20 37 0 9
-39 5 -45 -5 -3 -5 -2 -10 4 -10 5 0 2 -19 -9 -42 -31 -70 -7 -79 51 -18 l38
40 -15 -35 c-17 -41 -4 -54 31 -31 20 13 25 13 35 1 14 -17 50 -20 50 -5 0 6
-7 10 -15 10 -23 0 -18 28 6 35 16 5 18 9 8 15 -10 7 -10 11 0 24 8 9 20 16
27 16 8 0 14 5 14 10 0 23 -28 6 -77 -47 -29 -31 -56 -54 -59 -50 -14 14 21
81 46 88 16 5 19 7 8 8 -23 1 -23 7 3 43 23 32 22 41 -2 27z"/>
<path d="M4755 4650 c-3 -5 1 -10 9 -10 9 0 16 5 16 10 0 6 -4 10 -9 10 -6 0
-13 -4 -16 -10z"/>
<path d="M4910 4650 c0 -5 5 -10 10 -10 6 0 10 5 10 10 0 6 -4 10 -10 10 -5 0
-10 -4 -10 -10z"/>
<path d="M2492 4600 c-13 -11 -21 -23 -18 -28 6 -9 -63 -87 -70 -79 -3 3 4 24
16 47 25 50 19 61 -21 38 -28 -17 -29 -17 -19 2 16 30 -5 25 -34 -7 -13 -16
-35 -41 -49 -58 -36 -42 -44 -25 -14 29 l26 46 -34 0 c-25 0 -40 -8 -64 -35
-17 -20 -31 -47 -31 -61 0 -26 8 -26 43 4 15 14 17 13 17 -6 0 -32 17 -27 61
17 44 44 45 44 25 -4 -18 -41 -3 -47 18 -7 8 15 26 38 41 52 l28 25 -17 -32
c-19 -38 -21 -73 -4 -73 7 0 27 14 45 32 l33 32 -6 -32 c-7 -35 3 -40 36 -19
31 18 37 0 47 -142 11 -165 10 -167 -6 -163 -21 4 -63 -28 -57 -44 3 -7 1 -13
-3 -11 -5 1 -21 -11 -37 -28 -23 -25 -29 -27 -32 -13 -6 28 26 78 51 79 17 1
18 2 5 6 -23 6 -22 8 3 49 16 26 17 33 5 28 -8 -3 -24 -21 -35 -40 -11 -19
-25 -34 -30 -34 -5 0 -8 -11 -6 -25 1 -14 0 -23 -3 -20 -3 3 -21 -9 -39 -27
-38 -37 -42 -25 -12 33 l20 41 -23 -4 c-13 -2 -22 -9 -21 -15 2 -6 -4 -28 -13
-48 -27 -64 1 -74 54 -17 21 23 32 29 27 17 -22 -58 -1 -68 51 -23 23 20 35
26 31 16 -4 -10 -10 -25 -13 -33 -13 -32 17 -13 35 23 20 39 48 69 56 60 9 -9
81 -393 75 -398 -11 -9 -40 -54 -40 -63 0 -4 5 -5 10 -2 6 4 10 -7 10 -26 0
-28 3 -31 25 -27 23 5 25 2 26 -31 1 -28 4 -21 13 29 7 43 8 94 3 150 -5 47
-7 140 -4 207 2 67 1 126 -3 130 -13 14 -38 114 -54 212 -12 71 -23 105 -47
142 -17 27 -33 49 -35 49 -3 0 -16 -7 -29 -16 -24 -16 -24 -16 -16 14 5 16 14
39 21 51 19 36 9 53 -18 31z m-222 -30 c0 -17 -69 -87 -70 -70 0 16 27 60 44
72 15 11 26 10 26 -2z m371 -913 c-8 -8 -11 -7 -11 4 0 20 13 34 18 19 3 -7
-1 -17 -7 -23z"/>
<path d="M4466 4593 c-3 -3 -6 -20 -6 -36 l0 -30 26 24 26 24 -21 -43 c-12
-23 -19 -47 -16 -52 9 -15 31 -12 46 7 12 15 12 16 -3 10 -15 -5 -16 -3 -7 21
6 14 15 32 20 39 6 6 9 19 7 27 -3 14 -6 14 -31 1 -15 -8 -25 -10 -22 -5 6 10
-10 22 -19 13z"/>
<path d="M4721 4584 c-12 -9 -20 -21 -18 -27 2 -7 -2 -25 -10 -40 -8 -15 -11
-32 -8 -37 8 -14 61 15 69 37 5 13 1 12 -18 -6 -31 -30 -33 -14 -5 40 24 47
22 55 -10 33z"/>
<path d="M4879 4587 c-8 -6 -23 -23 -34 -37 -16 -19 -16 -22 -2 -11 16 13 16
11 2 -22 -8 -19 -12 -37 -9 -40 12 -11 46 8 74 42 34 40 36 38 15 -13 -19 -45
-2 -48 21 -3 9 17 21 38 27 45 14 17 17 52 4 52 -8 0 -41 -35 -85 -90 -31 -38
-39 -15 -13 36 23 49 24 61 0 41z"/>
<path d="M5960 4585 c-11 -13 -10 -14 4 -9 22 9 20 -12 -4 -29 -17 -12 -39
-52 -46 -85 -12 -61 -172 -410 -198 -431 -7 -6 -56 -15 -108 -20 -52 -5 -110
-16 -130 -24 -38 -16 -68 -51 -68 -78 0 -9 -7 -22 -15 -29 -24 -20 -18 -53 24
-116 21 -33 44 -73 52 -88 17 -34 40 -38 202 -38 75 0 113 4 124 14 12 9 15 9
9 1 -5 -9 0 -13 16 -13 26 0 37 7 58 35 12 17 10 16 -11 -2 -14 -13 -28 -23
-32 -23 -10 0 33 83 47 92 6 4 -9 8 -32 8 -36 0 -49 -5 -73 -31 -16 -17 -29
-26 -29 -21 0 6 6 17 13 24 21 22 109 218 137 306 15 46 33 89 41 95 11 10 11
9 0 -5 -7 -10 -10 -18 -6 -18 5 0 17 8 28 18 19 17 20 17 3 -15 -9 -18 -16
-37 -16 -43 0 -16 25 -12 53 10 21 17 25 17 23 3 -2 -27 21 -26 51 4 16 15 19
20 8 11 -12 -10 -24 -18 -28 -18 -13 0 -7 35 13 68 16 26 17 32 5 32 -8 0 -21
-12 -29 -27 -14 -29 -66 -82 -66 -69 0 4 9 24 20 46 11 22 20 42 20 45 0 12
-39 4 -51 -11 -22 -27 -30 17 -18 108 7 45 9 110 6 145 -4 59 -3 65 18 79 13
8 26 22 29 30 4 11 -2 10 -23 -5 -24 -18 -30 -19 -35 -6 -3 10 5 20 25 30 22
12 29 22 27 37 -4 27 -21 33 -38 13z m-120 -855 c0 -6 -16 -27 -36 -48 l-35
-37 17 35 c9 19 21 41 26 48 12 15 28 16 28 2z"/>
<path d="M2016 4563 c-41 -41 -47 -93 -10 -93 8 0 28 7 44 15 25 13 29 13 34
-1 8 -20 56 -15 70 9 8 13 7 25 -7 49 -20 35 -15 48 13 30 17 -10 20 -10 20 3
0 32 -46 16 -75 -26 -32 -46 -81 -77 -97 -61 -15 15 -2 42 21 42 26 0 66 34
57 48 -12 20 -42 13 -70 -15z m52 5 c-6 -16 -36 -34 -44 -25 -9 9 15 37 33 37
8 0 13 -5 11 -12z m78 -73 c-5 -17 -46 -18 -52 -1 -3 8 0 25 6 37 l12 22 19
-24 c10 -13 17 -28 15 -34z"/>
<path d="M4567 4549 c-23 -26 -33 -47 -30 -60 6 -23 12 -24 41 -3 20 14 22 14
22 0 0 -30 46 -7 81 39 21 29 21 28 -14 -4 -20 -19 -37 -29 -37 -22 0 17 30
74 44 83 6 4 -8 8 -31 8 -36 0 -46 -5 -76 -41z m64 14 c-11 -20 -49 -63 -56
-63 -10 0 -5 16 15 48 21 34 59 48 41 15z"/>
<path d="M1580 4225 c0 -9 6 -12 15 -9 8 4 12 10 9 15 -8 14 -24 10 -24 -6z"/>
<path d="M1649 4205 c-12 -19 -28 -35 -37 -35 -10 0 -13 -3 -7 -8 13 -9 18
-33 6 -29 -6 1 -23 -14 -39 -33 -40 -47 -48 -35 -17 26 29 56 28 54 16 54 -12
0 -71 -61 -71 -73 0 -5 4 -5 10 -2 7 4 7 -3 0 -20 -17 -44 15 -44 61 1 l39 38
-12 -32 c-14 -37 -7 -48 22 -32 15 8 25 8 34 1 10 -8 20 -6 40 10 24 19 27 20
24 4 -6 -34 23 -27 65 16 22 24 37 35 33 24 -15 -36 -19 -65 -8 -65 6 0 27 14
47 31 l35 31 -6 -31 c-8 -39 6 -40 44 -3 15 15 18 18 5 8 -34 -29 -37 -14 -8
44 23 45 24 50 7 41 -10 -5 -25 -18 -33 -27 -9 -11 -9 -15 -2 -10 9 5 11 2 7
-9 -4 -9 -9 -13 -12 -10 -3 3 -18 -7 -34 -22 -35 -33 -45 -24 -27 24 10 25 23
40 39 44 16 5 19 7 8 8 -22 1 -22 5 -2 37 9 13 14 27 11 31 -4 3 -16 -11 -28
-31 -11 -20 -28 -36 -37 -37 -11 0 -12 -2 -5 -6 14 -5 -51 -93 -68 -93 -16 0
-9 27 16 64 l24 36 -36 0 c-30 0 -42 -8 -81 -50 -51 -57 -64 -62 -52 -22 15
52 22 62 44 63 17 1 18 2 3 6 -17 4 -16 7 3 39 12 19 17 34 10 34 -6 0 -20
-16 -31 -35z m101 -55 c0 -16 -69 -87 -70 -71 0 22 40 81 56 81 8 0 14 -5 14
-10z"/>
<path d="M1955 4230 c-3 -5 -1 -10 4 -10 6 0 11 5 11 10 0 6 -2 10 -4 10 -3 0
-8 -4 -11 -10z"/>
<path d="M4648 4206 c-13 -20 -28 -36 -34 -36 -6 0 -10 -10 -9 -22 1 -13 -2
-33 -6 -45 -15 -41 8 -24 25 17 12 29 22 40 38 41 17 1 19 2 6 6 -22 6 -22 8
-2 39 9 13 14 27 11 30 -3 3 -16 -10 -29 -30z"/>
<path d="M4740 4230 c0 -5 7 -10 16 -10 8 0 12 5 9 10 -3 6 -10 10 -16 10 -5
0 -9 -4 -9 -10z"/>
<path d="M4945 4230 c-3 -5 1 -10 9 -10 9 0 16 5 16 10 0 6 -4 10 -9 10 -6 0
-13 -4 -16 -10z"/>
<path d="M5018 4206 c-13 -20 -29 -36 -36 -36 -7 0 -10 -5 -7 -11 4 -6 -4 -22
-16 -37 -20 -21 -17 -20 16 6 22 18 49 33 60 33 17 1 17 2 3 6 -22 6 -22 12
-2 41 9 13 14 26 11 29 -3 3 -16 -11 -29 -31z"/>
<path d="M1720 4224 c0 -23 27 -36 49 -24 28 14 26 18 -5 12 -16 -3 -30 1 -35
9 -5 8 -9 9 -9 3z"/>
<path d="M2105 4222 c-5 -4 -17 -16 -25 -27 -11 -16 -8 -15 12 4 15 12 31 20
37 16 6 -3 11 -1 11 4 0 13 -20 14 -35 3z"/>
<path d="M5080 4222 c0 -18 29 -34 50 -27 26 8 26 25 0 18 -11 -3 -27 0 -35 7
-8 7 -15 8 -15 2z"/>
<path d="M1480 4165 c0 -10 -11 -38 -25 -62 -29 -48 -20 -59 11 -15 39 52 45
69 29 82 -12 10 -15 9 -15 -5z"/>
<path d="M2243 4120 c-68 -69 -99 -79 -89 -28 10 48 56 92 56 53 0 -9 -10 -20
-22 -25 -13 -5 -17 -9 -10 -9 24 -2 52 20 52 39 0 31 -38 25 -71 -12 -21 -21
-29 -39 -27 -57 5 -43 40 -39 94 11 l46 43 -16 -39 c-9 -22 -13 -42 -10 -45 4
-3 9 -1 11 6 2 6 18 31 35 55 17 24 23 36 13 28 -17 -14 -18 -14 -6 8 23 43 4
34 -56 -28z"/>
<path d="M4707 4160 c-14 -12 -36 -35 -48 -53 l-23 -32 27 24 c25 23 26 23 20
2 -3 -11 -3 -21 0 -21 7 0 58 92 54 97 -2 2 -16 -6 -30 -17z"/>
<path d="M4919 4167 c-8 -6 -23 -23 -34 -37 -19 -23 -19 -24 -1 -10 19 15 19
14 2 -17 -12 -25 -13 -33 -4 -33 12 0 62 99 55 106 -2 2 -10 -2 -18 -9z"/>
<path d="M2031 4090 c-51 -124 -111 -181 -170 -159 -21 8 -22 8 -11 -6 7 -8
27 -15 46 -15 40 0 95 50 115 105 9 23 19 35 32 35 38 0 105 95 83 117 -3 4
-20 -4 -37 -16 -31 -23 -31 -23 -24 -2 15 47 -3 16 -34 -59z m79 51 c0 -14
-44 -74 -57 -79 -22 -7 -14 25 13 57 25 30 44 40 44 22z"/>
<path d="M4522 4158 c-19 -19 -14 -33 6 -15 24 22 42 22 42 0 0 -15 2 -16 9
-3 6 8 7 18 5 22 -8 12 -48 10 -62 -4z"/>
<path d="M4756 4127 c-25 -36 -26 -39 -6 -22 20 17 22 17 17 3 -3 -10 -2 -20
2 -23 5 -2 15 15 23 40 20 58 3 59 -36 2z"/>
<path d="M4833 4122 c-12 -26 -21 -48 -19 -49 2 -2 16 15 31 37 17 24 24 44
19 49 -5 5 -18 -11 -31 -37z"/>
<path d="M5062 4147 c-12 -13 -22 -30 -22 -38 0 -8 12 -1 28 18 15 17 36 34
47 36 16 4 15 5 -6 6 -15 1 -34 -9 -47 -22z"/>
<path d="M4569 4104 c-22 -25 -22 -26 -3 -16 12 6 24 18 28 27 8 21 3 19 -25
-11z"/>
<path d="M1795 4010 c-3 -5 -3 -10 1 -10 4 0 -1 -10 -12 -22 l-19 -22 25 16
c14 8 26 23 28 32 4 18 -13 22 -23 6z"/>
<path d="M1965 3870 c-11 -5 -48 -9 -82 -9 -49 -1 -67 -5 -83 -21 -12 -12 -18
-26 -14 -32 5 -7 10 -4 15 9 4 12 16 24 26 27 17 5 103 6 103 1 0 -2 -12 -23
-26 -49 -21 -38 -31 -46 -55 -46 -16 0 -29 2 -29 5 0 3 17 24 37 47 l37 43
-50 -47 c-40 -38 -57 -48 -84 -48 -19 0 -42 -5 -50 -10 -11 -7 -5 -10 25 -10
l40 -1 -30 -25 c-33 -28 -98 -64 -115 -64 -6 0 -15 10 -20 23 -8 21 -9 21 -9
-5 -2 -56 59 -43 149 32 29 24 59 39 83 42 20 2 37 3 37 1 0 -1 -7 -18 -16
-37 -19 -38 -13 -66 12 -66 13 0 14 3 5 13 -13 16 49 152 93 205 15 17 26 32
24 31 -1 0 -12 -4 -23 -9z"/>
<path d="M1467 3814 c-8 -8 1 -24 14 -24 5 0 9 7 9 15 0 15 -12 20 -23 9z"/>
<path d="M2299 3785 c-12 -19 -28 -35 -37 -36 -11 0 -12 -2 -4 -6 6 -2 9 -10
5 -16 -4 -6 -8 -18 -10 -27 -1 -8 -5 -27 -9 -42 -9 -38 8 -36 49 5 18 17 20
21 5 8 -35 -31 -45 -22 -27 26 10 25 23 40 39 44 16 5 19 7 8 8 -23 1 -23 7 3
42 11 16 15 29 9 29 -6 0 -20 -16 -31 -35z"/>
<path d="M2395 3811 c-6 -11 9 -23 19 -14 9 9 7 23 -3 23 -6 0 -12 -4 -16 -9z"/>
<path d="M1442 3751 c-7 -4 -15 -14 -16 -22 -2 -8 -6 -31 -11 -52 -4 -21 -5
-41 -1 -44 7 -8 66 46 66 60 0 5 -12 -2 -27 -17 -36 -37 -40 -25 -9 30 14 25
26 48 26 50 0 7 -14 4 -28 -5z"/>
<path d="M2357 3740 c-14 -11 -25 -28 -25 -38 0 -9 -3 -29 -7 -44 -8 -31 1
-35 30 -14 17 12 21 12 30 -1 9 -13 14 -12 31 4 11 10 14 14 7 9 -20 -13 -16
14 7 52 11 17 27 32 35 32 19 0 19 -5 -2 -37 -23 -35 -28 -73 -9 -73 18 0 79
50 71 58 -3 3 -12 -4 -21 -16 -8 -12 -19 -22 -25 -22 -16 0 -10 26 16 64 l24
36 -35 0 c-30 0 -43 -8 -84 -52 -27 -29 -51 -50 -54 -47 -3 3 5 28 19 54 13
27 23 50 21 52 -2 2 -15 -6 -29 -17z"/>
<path d="M2000 3743 c8 -3 18 -11 22 -17 5 -7 8 -4 8 7 0 11 -7 17 -22 16 -16
0 -18 -2 -8 -6z"/>
<path d="M2098 3742 c7 -5 10 -16 6 -28 -6 -18 -6 -18 11 -2 19 18 13 38 -13
38 -13 0 -14 -2 -4 -8z"/>
<path d="M2168 3734 c-15 -16 -15 -19 4 -44 22 -31 17 -50 -13 -50 -25 0 -35
25 -18 48 7 9 1 6 -14 -7 -26 -24 -36 -38 -18 -27 5 3 11 -1 15 -9 6 -16 33
-19 60 -9 20 8 20 43 0 72 -14 20 -14 23 1 29 10 3 21 0 26 -8 7 -11 9 -11 9
4 0 22 -30 22 -52 1z"/>
<path d="M5989 3733 c-8 -10 -21 -27 -29 -38 -14 -19 -14 -19 4 -5 18 14 18
13 12 -17 -5 -19 -3 -34 4 -38 28 -17 115 84 91 108 -8 8 -11 6 -11 -7 0 -26
-39 -86 -56 -86 -15 0 -12 24 7 78 10 26 -2 29 -22 5z"/>
<path d="M6103 3715 c-35 -35 -42 -74 -14 -83 9 -3 11 0 6 7 -10 17 1 53 25
79 43 46 55 16 15 -42 -24 -36 -20 -49 8 -21 8 8 16 12 19 10 2 -2 4 4 5 13 1
9 5 29 9 45 5 23 3 27 -16 27 -12 0 -38 -16 -57 -35z"/>
<path d="M6216 3723 c-11 -14 -14 -23 -8 -19 16 9 15 3 -2 -39 -8 -19 -11 -35
-6 -35 6 0 16 15 24 33 7 17 25 43 39 55 24 23 26 23 36 5 10 -17 10 -16 11 5
0 22 -23 31 -35 12 -3 -5 -11 -10 -16 -10 -6 0 -7 5 -4 10 14 23 -22 7 -39
-17z"/>
<path d="M1929 3688 c-24 -29 -37 -47 -28 -40 14 10 18 10 23 -3 8 -21 40 -19
67 6 l24 21 -25 -16 c-52 -33 -66 -9 -29 50 30 49 17 42 -32 -18z"/>
<path d="M2045 3709 c-32 -39 -30 -73 5 -77 23 -3 24 -3 6 10 -18 14 -18 16 2
56 11 23 19 42 17 42 -2 0 -15 -14 -30 -31z"/>
<path d="M1667 3723 c-4 -3 -7 -11 -7 -17 0 -6 5 -5 12 2 6 6 9 14 7 17 -3 3
-9 2 -12 -2z"/>
<path d="M1470 3640 c0 -5 7 -10 15 -10 8 0 15 5 15 10 0 6 -7 10 -15 10 -8 0
-15 -4 -15 -10z"/>
<path d="M2146 3593 c-3 -3 -6 -14 -6 -24 0 -9 -5 -20 -10 -22 -6 -3 -5 -4 1
-3 18 3 42 43 31 50 -5 3 -12 3 -16 -1z"/>
<path d="M4517 3571 c-24 -7 -79 -66 -93 -101 -51 -119 -65 -267 -43 -446 9
-77 9 -102 -4 -155 -23 -94 -36 -305 -40 -649 -3 -307 4 -313 18 -14 6 142 9
162 26 172 12 8 19 8 19 2 0 -13 37 -13 45 0 4 6 16 3 31 -7 51 -33 97 21 59
71 -14 19 -12 36 6 36 5 0 9 -7 9 -16 0 -8 5 -12 10 -9 19 12 10 35 -13 35
-16 0 -34 -15 -60 -50 -34 -45 -57 -63 -57 -42 0 4 11 26 25 50 l24 42 -38 0
c-20 0 -42 -5 -49 -12 -34 -34 8 175 53 267 14 28 34 61 44 74 l19 25 -5 -27
c-6 -30 12 -38 21 -9 7 20 56 71 56 58 0 -4 -7 -20 -15 -37 -14 -27 -14 -30 0
-36 9 -3 29 4 46 16 l30 22 -30 -59 c-36 -71 -71 -102 -117 -102 -26 0 -34 5
-42 28 l-10 27 -1 -27 c-1 -19 7 -33 24 -44 47 -30 109 6 150 87 17 32 32 49
44 49 26 0 81 65 81 95 0 31 -16 32 -47 3 -22 -21 -24 -21 -17 -3 16 43 37 66
56 62 11 -3 18 0 18 9 0 18 75 19 169 3 78 -14 108 -26 93 -41 -11 -11 -82
-17 -82 -7 0 19 -38 -7 -63 -42 -33 -46 -54 -52 -32 -9 21 41 19 50 -11 50
-34 0 -94 -62 -94 -96 0 -13 6 -24 13 -24 27 0 88 28 113 51 l26 24 -15 -37
c-13 -31 -13 -38 -3 -38 8 0 16 10 20 23 3 12 19 36 36 52 24 23 33 27 39 16
7 -10 10 -10 16 -1 15 25 24 -13 9 -41 -8 -16 -14 -33 -14 -39 0 -16 31 -12
52 7 17 15 18 15 18 0 0 -21 9 -21 38 -1 20 14 22 14 22 0 0 -24 25 -19 60 10
l31 27 -7 -27 c-4 -16 -2 -26 5 -26 6 0 11 3 11 8 0 4 11 21 25 37 l24 30 -6
-37 c-5 -33 -3 -38 14 -38 12 0 26 7 33 15 7 8 16 15 21 15 5 0 9 -7 9 -15 0
-10 10 -15 31 -15 24 0 45 -13 95 -62 67 -64 134 -155 134 -182 0 -9 4 -16 8
-16 15 0 52 -90 52 -125 0 -19 5 -35 10 -35 6 0 14 -10 19 -22 7 -19 9 -15 15
25 4 25 12 49 17 53 6 3 8 12 6 18 -3 7 3 47 13 88 17 73 17 78 -1 154 -10 44
-18 91 -19 105 0 14 -3 29 -7 33 -5 4 -28 87 -53 183 l-45 176 -75 38 c-41 21
-80 43 -87 48 -7 6 -16 11 -22 11 -5 0 -26 9 -48 19 -21 10 -153 74 -293 141
l-255 123 -143 6 c-78 3 -148 4 -155 2z m157 -658 c-23 -47 -71 -103 -87 -103
-5 0 3 21 17 46 31 55 30 52 9 57 -13 3 -5 10 27 25 25 12 48 22 51 22 4 0 -4
-21 -17 -47z m426 3 c0 -2 -9 -15 -20 -28 -10 -12 -30 -36 -44 -53 -13 -16
-28 -27 -32 -22 -13 12 25 79 48 85 21 5 21 6 2 13 -15 6 -12 8 14 8 17 1 32
-1 32 -3z m-280 -30 c0 -18 -42 -78 -59 -84 -17 -6 -6 32 21 71 21 29 38 35
38 13z m302 -13 c-6 -10 -22 -29 -37 -43 l-28 -25 16 32 c18 35 47 66 54 59 3
-2 0 -13 -5 -23z m-424 -25 c-23 -42 -48 -61 -48 -37 0 12 58 79 68 79 2 0 -7
-19 -20 -42z m486 34 c6 -10 -42 -72 -55 -72 -5 0 0 18 11 40 20 39 33 49 44
32z m106 -51 c0 -6 -4 -13 -10 -16 -5 -3 -10 1 -10 9 0 9 5 16 10 16 6 0 10
-4 10 -9z m-850 -358 c0 -12 -51 -73 -61 -73 -11 0 5 35 29 63 15 17 32 23 32
10z m90 -74 c0 -14 -7 -19 -25 -19 -27 0 -35 26 -13 48 15 15 38 -3 38 -29z"/>
<path d="M1337 3197 c-56 -322 -57 -336 -46 -406 8 -46 15 -67 20 -59 5 7 9
22 9 32 0 11 11 36 24 55 33 49 44 91 22 91 -9 0 -16 8 -16 20 0 11 7 20 15
20 8 0 15 5 15 10 0 6 -7 10 -15 10 -11 0 -14 7 -11 23 5 21 18 110 32 212 5
42 8 46 15 28 10 -27 41 -30 60 -7 11 14 13 14 21 0 11 -20 47 -20 76 0 20 14
22 14 22 0 0 -21 12 -20 44 5 35 27 34 8 -3 -57 -34 -59 -67 -84 -111 -84 -22
0 -33 6 -40 23 -9 22 -9 22 -9 1 -2 -52 73 -63 122 -17 16 15 50 71 74 123 25
52 50 98 56 102 7 4 -5 8 -26 8 -34 0 -45 -7 -85 -49 -54 -57 -92 -74 -92 -42
0 13 10 23 34 31 47 15 65 60 24 60 -13 0 -43 -21 -74 -51 -88 -87 -95 -30 -9
62 47 50 83 114 72 125 -18 18 -56 -20 -96 -95 -66 -122 -69 -121 -64 29 2 72
3 130 1 130 -2 0 -29 -150 -61 -333z m189 216 c-8 -15 -27 -41 -41 -58 l-26
-30 22 45 c31 63 52 95 57 82 2 -6 -4 -23 -12 -39z m44 -102 c0 -13 -28 -33
-41 -29 -8 3 -6 9 5 21 19 18 36 22 36 8z m110 2 c0 -5 -7 -17 -15 -27 -8 -10
-12 -23 -8 -29 3 -6 1 -7 -4 -4 -6 4 -16 0 -23 -8 -35 -43 -23 18 12 63 11 13
38 17 38 5z"/>
<path d="M2422 3442 c-16 -16 -36 -48 -47 -71 -13 -30 -24 -41 -40 -41 -29 0
-85 -63 -85 -95 0 -29 3 -30 35 -9 23 15 25 15 25 0 0 -20 9 -20 37 -1 18 13
22 13 33 0 7 -8 20 -15 29 -15 22 0 81 37 81 51 0 6 -14 -1 -31 -15 -37 -31
-59 -33 -59 -6 0 11 5 20 11 20 5 0 7 5 4 11 -7 11 22 49 37 49 15 0 8 -29 -9
-39 -24 -14 -7 -14 18 -1 10 6 19 20 19 30 0 37 -40 23 -91 -32 -26 -29 -51
-49 -54 -46 -4 3 14 49 39 102 51 105 84 139 113 115 14 -12 16 -12 11 1 -9
27 -47 23 -76 -8z m-82 -135 c0 -7 -16 -28 -35 -47 -42 -41 -49 -19 -9 29 27
33 44 40 44 18z"/>
<path d="M2186 3385 c-8 -8 -18 -24 -21 -35 -3 -11 -13 -20 -20 -20 -9 0 -12
-8 -10 -21 2 -11 -3 -36 -12 -54 -18 -38 -15 -49 11 -39 12 5 14 9 6 14 -19
12 18 90 44 91 17 1 18 2 3 6 -17 4 -16 7 3 39 23 36 21 44 -4 19z"/>
<path d="M2061 3387 c2 -1 13 -9 24 -17 19 -14 19 -14 6 3 -7 9 -18 17 -24 17
-6 0 -8 -1 -6 -3z"/>
<path d="M1737 3306 c-28 -26 -43 -68 -32 -85 3 -6 16 -10 28 -10 17 1 18 2 5
6 -19 5 -25 43 -7 43 5 0 8 4 5 8 -8 13 23 52 40 52 21 0 17 -17 -8 -34 -25
-18 -17 -21 13 -6 25 14 25 50 0 50 -10 0 -30 -11 -44 -24z"/>
<path d="M1956 3323 c5 -5 12 -12 16 -18 4 -6 8 -2 8 8 0 9 -7 17 -17 17 -9 0
-12 -3 -7 -7z"/>
<path d="M1996 3286 c-82 -88 -140 -89 -81 -2 22 32 23 35 5 26 -25 -13 -53
-67 -46 -86 7 -18 30 -18 66 1 27 14 30 14 30 -1 0 -8 6 -14 13 -11 6 2 11 10
9 16 -3 15 22 64 42 80 33 27 36 4 6 -38 -18 -24 -27 -40 -21 -37 6 4 11 0 11
-8 0 -20 11 -20 36 -1 16 13 16 14 2 9 -24 -8 -22 3 7 54 l24 42 -31 0 c-24 0
-41 -10 -72 -44z"/>
<path d="M2099 3263 c-13 -16 -12 -17 4 -4 9 7 17 15 17 17 0 8 -8 3 -21 -13z"/>
<path d="M1780 3239 c-22 -18 -22 -19 -3 -10 12 6 25 16 28 21 9 15 3 12 -25
-11z"/>
<path d="M1688 2964 c-7 -9 -24 -28 -38 -42 -13 -15 -25 -40 -26 -57 -1 -16
-5 -40 -9 -52 -8 -26 12 -32 33 -11 10 10 15 10 22 -2 8 -12 14 -11 40 8 26
20 31 21 28 6 -5 -28 19 -27 49 3 16 15 19 20 8 11 -42 -36 -48 -10 -10 46
l24 36 -33 0 c-25 0 -42 -9 -65 -32 -17 -17 -31 -35 -31 -40 0 -9 -40 -31 -46
-25 -3 2 3 23 12 46 12 30 22 41 38 42 18 0 18 1 4 7 -17 7 -16 9 2 40 21 34
20 43 -2 16z m82 -74 c0 -14 -67 -86 -74 -80 -9 10 44 90 60 90 8 0 14 -5 14
-10z"/>
<path d="M2019 2946 c-11 -20 -28 -36 -36 -36 -8 0 -11 -5 -8 -10 4 -6 1 -18
-7 -27 -11 -14 -11 -16 1 -8 11 6 13 4 6 -11 -27 -66 -13 -82 33 -36 15 15 18
19 7 10 -26 -22 -35 -23 -35 -3 0 28 30 75 48 75 14 0 14 2 3 9 -12 8 -12 13
3 36 10 15 15 29 12 32 -3 3 -15 -11 -27 -31z"/>
<path d="M2386 2965 c-8 -8 -18 -24 -21 -35 -3 -11 -13 -20 -21 -20 -8 0 -12
-5 -9 -11 4 -5 -1 -20 -12 -31 -10 -12 -12 -18 -4 -13 11 6 13 4 7 -11 -24
-57 -13 -70 31 -39 19 13 22 13 27 0 9 -25 54 -17 88 16 l33 31 -33 -26 c-34
-26 -57 -33 -66 -18 -8 14 8 29 47 45 26 11 37 22 37 36 0 38 -40 25 -90 -29
-25 -27 -51 -50 -58 -50 -20 0 13 74 39 87 18 9 19 13 7 13 -16 0 -15 3 3 35
22 37 20 45 -5 20z m84 -72 c0 -14 -15 -29 -32 -36 -22 -8 -23 6 -2 27 16 17
34 21 34 9z"/>
<path d="M1419 2895 c-34 -19 -68 -80 -51 -97 17 -17 90 9 126 46 l28 30 -16
-38 c-19 -45 -19 -46 -6 -46 6 0 15 12 21 28 16 41 50 73 71 66 12 -3 18 0 18
9 0 11 -10 15 -37 14 -31 -2 -46 -11 -81 -47 -40 -42 -42 -43 -28 -13 30 60
12 79 -45 48z m30 -24 c-11 -31 -48 -75 -56 -67 -13 12 37 96 57 96 5 0 4 -13
-1 -29z"/>
<path d="M1836 2883 c-11 -14 -14 -23 -8 -19 16 9 15 3 -2 -39 -19 -44 -2 -46
20 -2 9 17 24 41 33 52 15 19 15 19 -3 5 -18 -14 -19 -14 -7 8 17 32 -8 29
-33 -5z"/>
<path d="M1909 2908 c0 -2 -2 -10 -4 -18 -2 -8 -10 -32 -19 -52 -25 -58 12
-62 59 -6 20 23 20 23 -8 -1 -35 -31 -45 -20 -24 24 19 41 21 55 7 55 -5 0
-10 -1 -11 -2z"/>
<path d="M2130 2879 c-39 -40 -39 -83 0 -86 14 -1 18 0 8 3 -19 6 -25 44 -7
44 5 0 7 5 4 11 -7 11 22 49 37 49 15 0 8 -29 -9 -39 -24 -14 -7 -14 18 -1 10
6 19 20 19 30 0 30 -34 25 -70 -11z"/>
<path d="M2230 2878 c-13 -18 -17 -27 -9 -21 13 11 18 9 29 -11 7 -14 10 -33
6 -43 -7 -17 -6 -17 11 0 17 17 17 19 0 48 -21 37 -22 49 -2 49 8 0 15 -5 15
-11 0 -5 5 -7 10 -4 6 4 8 11 5 16 -12 19 -42 8 -65 -23z"/>
<path d="M2586 2879 c-11 -18 -14 -29 -8 -25 12 7 44 -33 36 -46 -9 -14 -43
-9 -53 10 -10 16 -10 16 -11 0 0 -29 37 -42 66 -23 27 18 31 46 9 65 -17 14
-20 40 -5 40 5 0 13 -7 18 -16 6 -11 11 -13 16 -5 11 16 -2 31 -27 31 -15 0
-29 -11 -41 -31z"/>
<path d="M4970 2855 c-7 -9 -8 -15 -2 -15 5 0 12 7 16 15 3 8 4 15 2 15 -2 0
-9 -7 -16 -15z"/>
<path d="M2656 2845 c-9 -25 -7 -55 4 -55 6 0 10 -57 10 -152 0 -83 2 -149 5
-146 5 5 6 270 2 330 -2 33 -13 44 -21 23z"/>
<path d="M2194 2825 c-7 -17 3 -35 18 -35 7 0 6 5 -2 15 -6 8 -9 19 -5 25 3 5
4 10 0 10 -3 0 -8 -7 -11 -15z"/>
<path d="M1590 2610 c-11 -11 -35 -50 -54 -87 -43 -86 -116 -163 -116 -123 0
16 31 74 44 82 6 5 3 8 -9 7 -13 0 -31 -18 -51 -48 -29 -45 -30 -49 -12 -60
25 -16 33 -14 65 13 29 25 29 25 29 3 -2 -38 32 -32 75 13 42 44 47 44 24 0
-19 -36 -4 -48 30 -26 22 15 25 15 25 1 0 -19 10 -19 38 1 20 14 22 14 22 0 0
-19 25 -21 36 -4 4 7 3 8 -4 4 -20 -12 -14 15 13 61 l26 43 -32 0 c-26 0 -41
-10 -78 -50 -49 -53 -61 -60 -61 -35 0 28 30 75 48 75 14 0 14 2 3 9 -12 8
-12 13 3 36 10 15 15 29 13 32 -3 3 -16 -11 -29 -31 -13 -20 -29 -36 -37 -36
-7 0 -11 -6 -8 -13 7 -18 -69 -101 -83 -92 -20 13 0 58 50 110 46 49 80 102
80 125 0 17 -29 11 -50 -10z m7 -53 c-14 -23 -35 -51 -47 -62 l-23 -20 18 35
c34 66 68 115 73 102 2 -7 -7 -31 -21 -55z m126 -108 c-34 -57 -81 -82 -53
-27 19 34 41 58 57 58 11 0 10 -6 -4 -31z"/>
<path d="M4955 2606 c-13 -13 -38 -52 -55 -87 -34 -67 -85 -129 -107 -129 -18
0 -16 9 12 58 15 27 19 42 12 42 -17 0 -51 -59 -54 -92 -3 -36 16 -36 56 -2
30 25 31 25 31 5 0 -39 29 -36 68 5 l37 39 -35 -33 c-43 -39 -50 -40 -50 -6 0
17 16 44 46 78 55 60 84 104 84 129 0 24 -17 21 -45 -7z m16 -33 c-22 -41 -55
-83 -66 -83 -8 0 41 87 63 113 24 27 25 13 3 -30z"/>
<path d="M2227 2553 c-4 -3 -7 -11 -7 -17 0 -6 5 -5 12 2 6 6 9 14 7 17 -3 3
-9 2 -12 -2z"/>
<path d="M5018 2544 c-7 -9 -25 -29 -40 -44 -18 -18 -24 -30 -17 -37 7 -7 4
-22 -7 -46 -19 -40 -15 -53 13 -43 13 5 14 9 5 15 -21 13 14 91 42 92 17 1 18
2 3 6 -17 4 -16 7 3 39 22 35 21 46 -2 18z"/>
<path d="M5534 2463 c-19 -20 -31 -39 -28 -42 3 -3 10 1 15 9 9 12 9 11 4 -5
-18 -50 -18 -55 2 -55 11 0 31 13 46 28 37 38 34 53 -3 17 -37 -35 -39 -18 -4
41 32 54 15 58 -32 7z"/>
<path d="M1357 2483 c-4 -3 -7 -20 -7 -37 l0 -31 20 25 c11 14 20 31 20 38 0
13 -22 17 -33 5z"/>
<path d="M1796 2452 c-22 -28 -24 -32 -7 -17 l23 20 -16 -39 c-19 -45 -19 -46
-6 -46 6 0 10 7 10 15 0 15 60 89 67 82 2 -3 -4 -21 -13 -41 -10 -19 -14 -39
-9 -43 4 -5 10 -2 13 5 6 19 64 84 69 78 2 -2 -3 -18 -11 -35 -18 -34 -21 -61
-6 -61 6 0 10 7 10 15 0 9 9 34 21 56 25 50 18 60 -22 30 -31 -23 -31 -23 -24
-2 8 27 -5 27 -39 0 -26 -20 -37 -14 -14 9 9 9 9 12 -2 12 -8 0 -28 -17 -44
-38z"/>
<path d="M2079 2474 c-11 -13 -10 -21 5 -49 10 -18 15 -39 11 -46 -5 -8 -4
-10 3 -5 16 10 14 47 -3 70 -8 10 -12 23 -9 27 9 15 32 10 37 -8 4 -14 5 -12
6 5 1 26 -29 31 -50 6z"/>
<path d="M2179 2474 c-7 -9 -14 -23 -15 -32 -2 -10 -6 -29 -10 -44 -4 -18 -2
-28 5 -28 6 0 11 7 11 15 0 9 9 33 20 55 11 22 20 42 20 45 0 11 -18 4 -31
-11z"/>
<path d="M2327 2472 c-14 -16 -14 -19 3 -42 22 -28 26 -50 8 -50 -6 0 -8 -3
-4 -7 4 -5 14 1 22 11 12 17 11 23 -7 52 -14 24 -16 34 -8 40 7 4 18 -1 26
-11 12 -18 13 -18 13 3 0 27 -30 30 -53 4z"/>
<path d="M2420 2461 c-28 -28 -48 -76 -37 -88 4 -3 18 2 32 11 22 14 25 15 25
1 0 -8 5 -15 10 -15 17 0 58 30 65 48 4 11 -2 9 -19 -7 -36 -34 -40 -23 -10
32 l24 47 -31 0 c-20 0 -40 -9 -59 -29z m50 6 c0 -18 -56 -84 -65 -75 -12 11
37 88 57 88 4 0 8 -6 8 -13z"/>
<path d="M4604 2456 c-40 -40 -47 -86 -14 -86 32 0 76 27 100 60 27 38 37 33
16 -9 -9 -16 -16 -35 -16 -41 0 -16 26 -12 47 8 10 9 13 13 6 8 -23 -16 -27 3
-8 44 25 56 10 62 -35 13 -45 -47 -79 -73 -97 -73 -23 0 -14 39 17 72 29 32
31 32 45 14 15 -19 15 -19 15 2 0 33 -36 28 -76 -12z"/>
<path d="M5031 2443 c-37 -42 -40 -48 -27 -62 14 -13 18 -12 42 10 26 24 26
24 20 2 -10 -33 17 -30 52 5 15 15 18 19 7 10 -43 -36 -48 -12 -10 45 l26 37
-35 0 c-28 0 -41 -8 -75 -47z m69 27 c0 -17 -69 -87 -70 -70 0 16 27 60 44 72
15 11 26 10 26 -2z"/>
<path d="M5169 2463 c-13 -14 -18 -23 -11 -19 16 9 15 3 -2 -39 -20 -46 -4
-45 24 2 24 41 35 83 22 83 -5 0 -19 -12 -33 -27z"/>
<path d="M5225 2473 c-17 -13 -17 -15 -2 -10 15 6 16 3 7 -13 -19 -36 -29 -70
-21 -70 11 0 41 46 46 71 2 10 7 24 10 29 10 16 -18 11 -40 -7z"/>
<path d="M5279 2469 l-24 -20 23 11 23 11 -20 -40 c-12 -22 -21 -45 -21 -51 0
-17 28 -11 52 13 13 12 16 16 6 8 -28 -22 -34 -5 -13 37 11 20 21 40 23 45 8
15 -27 6 -49 -14z"/>
<path d="M5432 2460 c-15 -20 -17 -28 -7 -24 21 8 45 -44 25 -56 -17 -11 -40
-2 -40 16 0 8 -5 14 -11 14 -19 0 -5 -32 17 -41 26 -9 64 14 64 38 0 9 -7 24
-16 34 -9 10 -13 23 -9 28 9 16 25 13 25 -5 0 -8 5 -12 10 -9 19 12 10 35 -13
35 -14 0 -32 -12 -45 -30z"/>
<path d="M1949 2403 l-24 -28 28 24 c25 23 32 31 24 31 -2 0 -14 -12 -28 -27z"/>
<path d="M2199 2403 l-24 -28 28 24 c25 23 32 31 24 31 -2 0 -14 -12 -28 -27z"/>
<path d="M2033 2396 c1 -11 9 -21 17 -23 10 -3 11 -2 4 4 -6 4 -14 15 -17 23
-5 11 -6 9 -4 -4z"/>
<path d="M2280 2398 c0 -9 5 -20 11 -23 17 -11 18 -2 3 19 -12 17 -14 17 -14
4z"/>
<path d="M4478 2199 c-10 -5 -34 -40 -54 -77 -20 -37 -44 -79 -54 -93 -11 -16
-16 -36 -13 -52 8 -43 44 -35 93 21 36 40 39 42 26 15 -29 -58 -13 -82 30 -47
16 13 16 15 2 10 -22 -7 -23 4 -1 49 26 55 7 54 -50 -3 -50 -50 -77 -64 -77
-42 0 20 28 65 55 90 32 29 85 108 85 127 0 15 -18 16 -42 2z m-13 -75 c-21
-30 -40 -53 -42 -51 -2 3 13 33 33 68 21 35 39 58 42 50 2 -7 -13 -37 -33 -67z"/>
<path d="M2286 2125 c-8 -8 -18 -24 -21 -35 -3 -11 -13 -20 -21 -20 -11 0 -13
-7 -8 -26 5 -18 3 -25 -3 -21 -6 4 -17 -1 -24 -11 -13 -16 -13 -16 5 -2 18 14
19 14 12 -5 -28 -69 -3 -76 56 -15 43 46 44 46 23 -4 -8 -20 -11 -36 -6 -36 5
0 14 13 21 29 17 42 59 79 69 62 6 -10 10 -10 16 -1 10 16 -1 24 -38 26 -27 2
-38 -5 -70 -47 -21 -27 -45 -49 -53 -49 -17 0 -17 2 1 45 8 20 24 39 37 45 19
7 19 9 5 9 -17 1 -17 3 3 36 23 37 21 45 -4 20z"/>
<path d="M1935 2122 c-5 -4 -17 -16 -25 -27 -14 -19 -14 -20 6 -2 11 9 26 17
32 17 7 0 12 5 12 10 0 12 -11 13 -25 2z"/>
<path d="M5284 2108 c-10 -13 -12 -17 -4 -10 8 6 22 12 32 12 10 0 18 5 18 10
0 18 -26 11 -46 -12z"/>
<path d="M5244 2033 c-68 -173 -145 -250 -198 -197 -9 8 -16 11 -16 6 0 -18
31 -35 62 -34 38 1 80 39 109 99 13 27 27 43 39 43 25 0 80 66 80 96 0 27 -9
26 -47 -9 -25 -22 -29 -17 -12 15 6 11 9 22 6 24 -3 3 -13 -17 -23 -43z m52
-10 c-12 -38 -66 -81 -66 -53 0 12 61 82 67 76 3 -2 2 -13 -1 -23z"/>
<path d="M1445 2060 c3 -5 11 -10 16 -10 6 0 7 5 4 10 -3 6 -11 10 -16 10 -6
0 -7 -4 -4 -10z"/>
<path d="M1499 2050 c-13 -10 -19 -19 -13 -20 6 0 17 7 24 15 21 25 32 17 25
-16 -9 -38 8 -32 30 12 15 29 15 29 -14 29 -16 0 -39 -9 -52 -20z"/>
<path d="M1620 2055 c-7 -9 -10 -18 -7 -21 3 -3 -1 -21 -9 -40 -18 -42 -1 -46
21 -4 8 16 16 33 16 37 1 5 5 16 10 26 12 22 -13 24 -31 2z"/>
<path d="M1673 2053 c-10 -10 -13 -14 -6 -9 17 11 16 4 -4 -39 -9 -19 -13 -38
-8 -42 4 -5 10 -2 13 5 6 19 64 84 69 78 2 -2 -3 -18 -11 -35 -34 -65 -9 -82
40 -28 l29 32 -32 -29 c-38 -34 -42 -22 -12 35 25 50 18 60 -22 30 -31 -23
-31 -23 -24 -2 8 26 -6 27 -32 4z"/>
<path d="M1939 2070 c0 -3 -2 -15 -3 -27 -3 -27 -33 -72 -52 -80 -29 -11 -27
8 6 50 19 23 27 36 18 29 -12 -10 -17 -10 -20 -1 -2 7 -15 -16 -28 -51 -13
-35 -39 -83 -57 -107 -27 -35 -30 -44 -16 -41 10 2 29 26 43 55 14 29 32 53
40 53 41 0 105 89 81 113 -6 6 -11 9 -12 7z"/>
<path d="M2004 2052 c-31 -25 -57 -70 -50 -87 3 -9 17 -15 33 -14 27 0 27 1 6
9 -22 9 -23 40 -1 40 5 0 6 5 3 11 -7 11 22 49 37 49 15 0 8 -29 -9 -39 -10
-6 -13 -11 -7 -11 21 0 47 27 41 44 -8 21 -26 20 -53 -2z"/>
<path d="M2086 2032 c-22 -28 -24 -32 -7 -17 l23 20 -16 -39 c-18 -44 -19 -46
-8 -46 7 0 40 59 43 78 0 4 5 15 10 25 18 33 -15 18 -45 -21z"/>
<path d="M2153 2053 c-10 -10 -13 -14 -6 -9 17 11 16 6 -2 -37 -8 -20 -15 -41
-15 -47 0 -14 23 -12 46 5 18 14 18 14 -3 8 -28 -7 -29 3 -3 45 31 51 22 70
-17 35z"/>
<path d="M2449 2060 c-9 -5 -24 -22 -34 -37 l-18 -28 28 25 28 25 -17 -32
c-31 -61 -14 -83 32 -40 22 21 24 21 20 2 -5 -30 25 -30 61 1 18 14 29 29 26
32 -3 3 -16 -5 -30 -18 -14 -13 -28 -21 -31 -17 -8 8 14 64 33 83 12 12 12 14
0 14 -8 0 -31 -22 -51 -50 -20 -27 -40 -50 -46 -50 -14 0 -13 5 10 50 27 53
25 61 -11 40z"/>
<path d="M4548 2030 c-29 -43 -27 -80 2 -80 10 0 23 7 31 16 11 14 13 14 21 0
15 -26 56 -19 91 17 18 17 21 22 7 10 -14 -12 -38 -25 -54 -29 -26 -6 -28 -5
-21 17 4 13 15 36 26 51 30 42 -3 24 -40 -23 -55 -68 -81 -39 -30 34 14 20 16
27 6 27 -7 0 -25 -18 -39 -40z"/>
<path d="M4686 2062 c6 -4 14 -14 17 -22 4 -10 6 -8 6 8 1 15 -5 22 -16 22
-11 0 -14 -3 -7 -8z"/>
<path d="M4749 2054 c-7 -8 -14 -25 -15 -37 -1 -12 -5 -33 -9 -47 -6 -22 -5
-23 7 -8 7 9 21 30 30 47 20 37 46 50 59 30 6 -11 9 -8 9 9 0 26 -16 28 -42 5
-18 -16 -18 -16 -12 0 8 21 -9 22 -27 1z"/>
<path d="M4865 2048 c-23 -18 -55 -72 -55 -93 0 -12 26 -3 48 18 l24 22 -6
-22 c-6 -17 -3 -23 8 -23 10 0 16 9 16 23 0 12 11 39 25 60 l26 37 -29 0 c-16
0 -42 -10 -57 -22z m45 2 c0 -17 -69 -87 -70 -70 0 16 27 60 44 72 15 11 26
10 26 -2z"/>
<path d="M4987 2052 c-10 -10 -15 -21 -11 -24 3 -3 -2 -22 -10 -42 -8 -20 -11
-36 -5 -36 5 0 12 8 16 18 3 9 13 25 20 34 8 9 12 21 9 27 -4 5 -1 13 5 17 8
5 9 3 4 -5 -6 -10 -3 -11 15 -1 20 11 21 10 11 -9 -20 -37 -31 -71 -22 -71 14
0 43 50 48 81 5 31 -5 37 -26 17 -11 -10 -14 -10 -18 0 -6 17 -17 15 -36 -6z"/>
<path d="M5090 2049 c-23 -19 -24 -20 -2 -9 l23 11 -20 -40 c-12 -22 -21 -45
-21 -51 0 -17 28 -11 52 13 13 12 17 16 8 10 -33 -25 -41 -14 -20 27 32 63 25
76 -20 39z"/>
<path d="M5400 2060 c12 -7 12 -12 -4 -29 -11 -12 -15 -21 -9 -21 16 0 46 38
38 49 -3 6 -14 11 -23 11 -14 0 -15 -2 -2 -10z"/>
<path d="M5434 2015 c-53 -58 -94 -73 -94 -35 0 12 7 20 18 21 11 0 12 2 4 6
-10 4 -10 11 3 31 14 22 11 21 -15 -6 -39 -42 -38 -76 3 -80 22 -3 37 6 67 36
22 22 40 38 40 36 0 -3 -7 -20 -14 -39 -16 -38 -4 -49 15 -12 6 12 23 35 38
51 18 20 21 27 9 23 -12 -4 -15 -2 -11 9 11 29 -14 13 -63 -41z"/>
<path d="M5529 2068 c0 -2 -2 -10 -4 -18 -2 -8 -10 -32 -19 -52 -26 -61 0 -53
28 8 14 31 26 58 26 60 0 4 -30 6 -31 2z"/>
<path d="M1584 2008 l-19 -23 23 19 c21 18 27 26 19 26 -2 0 -12 -10 -23 -22z"/>
<path d="M4929 1983 l-24 -28 28 24 c25 23 32 31 24 31 -2 0 -14 -12 -28 -27z"/>
<path d="M2029 1973 c-13 -16 -12 -17 4 -4 9 7 17 15 17 17 0 8 -8 3 -21 -13z"/>
</g>
</svg>
