<?xml version="1.0" standalone="no"?>
<!DOCTYPE svg PUBLIC "-//W3C//DTD SVG 20010904//EN"
 "http://www.w3.org/TR/2001/REC-SVG-20010904/DTD/svg10.dtd">
<svg version="1.0" xmlns="http://www.w3.org/2000/svg"
 width="700.000000pt" height="700.000000pt" viewBox="0 0 700.000000 700.000000"
 preserveAspectRatio="xMidYMid meet">
<metadata>
Created by potrace 1.14, written by Peter Selinger 2001-2017
</metadata>
<g transform="translate(0.000000,700.000000) scale(0.100000,-0.100000)"
fill="#000000" stroke="none">
<path d="M2599 6832 c-33 -30 -109 -124 -152 -191 -58 -90 -93 -64 -156 116
l-27 78 -40 -1 c-92 -2 -221 -17 -242 -28 -43 -21 -402 -268 -402 -276 0 -4
-27 -49 -60 -99 -58 -88 -62 -92 -136 -127 -89 -42 -114 -67 -169 -172 -34
-64 -45 -77 -72 -84 -33 -8 -114 -85 -159 -149 -31 -45 -94 -187 -94 -213 0
-11 12 -44 27 -75 39 -83 42 -148 9 -215 -15 -30 -40 -66 -56 -80 -20 -16 -32
-38 -36 -63 -11 -69 -52 -139 -107 -184 -29 -24 -53 -44 -55 -45 -4 -2 -10
-103 -11 -188 -1 -38 -3 -67 -5 -65 -2 2 -7 60 -10 128 -6 119 -15 172 -17
100 -1 -19 -2 -52 -4 -74 -1 -22 -5 -103 -9 -180 -4 -77 -9 -160 -11 -185 -2
-25 -7 -81 -10 -125 -3 -44 -8 -96 -11 -116 -30 -218 -29 -228 27 -377 28 -75
59 -155 68 -177 10 -22 26 -60 36 -85 11 -25 36 -63 57 -85 50 -52 111 -173
132 -257 9 -36 16 -70 14 -75 -2 -7 45 -103 90 -185 10 -18 56 -104 102 -190
45 -87 87 -158 93 -158 6 0 18 -7 27 -15 19 -17 15 -23 51 75 6 16 16 27 21
24 5 -3 7 -8 5 -11 -3 -2 1 -31 9 -63 7 -33 16 -74 19 -92 3 -18 8 -44 10 -58
11 -52 15 -77 26 -137 6 -36 17 -64 25 -67 18 -7 20 0 37 89 10 52 17 69 28
67 12 -3 50 -9 71 -11 3 -1 16 -22 28 -48 62 -134 72 -153 85 -153 7 0 29 -17
49 -37 l35 -37 -137 -56 c-153 -64 -289 -124 -465 -208 l-118 -56 -307 -375
c-168 -207 -310 -380 -314 -386 -8 -9 -51 -96 -296 -595 -42 -85 -80 -164 -84
-174 -8 -18 -5 -19 59 -12 38 4 84 9 103 11 60 8 272 34 330 40 49 5 236 28
330 40 19 2 58 7 85 10 28 3 84 10 125 15 41 5 98 12 125 15 28 3 84 10 125
15 41 5 98 12 125 15 28 3 70 8 95 11 25 3 122 29 215 59 408 128 467 146 585
179 264 75 351 84 484 51 88 -22 236 -96 283 -141 l42 -40 383 1 383 1 40 39
c47 45 192 117 285 142 132 34 238 19 575 -81 154 -45 186 -55 485 -149 105
-33 211 -59 265 -66 50 -6 164 -20 255 -31 91 -11 260 -31 375 -45 204 -24
256 -31 340 -40 22 -2 117 -14 210 -25 248 -31 289 -34 283 -24 -7 11 -283
574 -341 694 -22 46 -49 93 -58 105 -10 11 -45 54 -79 95 -34 41 -72 86 -84
100 -11 14 -37 45 -56 70 -19 25 -39 50 -45 56 -5 6 -84 102 -175 214 l-165
203 -140 67 c-272 131 -674 296 -899 370 l-69 23 29 15 c16 8 52 34 79 57 78
66 115 85 165 85 57 0 105 -23 209 -99 46 -33 92 -61 102 -61 27 0 54 55 94
190 60 208 55 199 141 249 41 24 81 53 89 65 8 12 30 64 49 115 43 115 53 126
113 130 6 1 27 29 46 64 43 78 71 128 109 195 33 58 32 53 42 338 l6 152 -57
83 c-31 46 -60 86 -65 87 -4 2 -8 9 -8 16 0 21 -43 52 -75 54 -69 6 -96 29
-145 120 l-25 47 -175 -2 c-132 -1 -183 2 -207 13 -18 8 -33 18 -33 24 0 5
-18 39 -40 76 -49 79 -59 118 -37 142 8 9 19 30 23 45 12 52 85 83 212 91 56
3 77 9 87 23 65 84 185 387 260 653 52 185 66 353 35 405 -10 17 -26 59 -35
95 -22 84 -28 94 -91 161 -55 58 -75 106 -90 212 -5 38 -13 53 -39 73 -32 24
-51 56 -59 101 -3 12 -22 47 -43 78 l-38 55 -110 5 c-194 7 -211 12 -299 80
-70 54 -114 108 -131 161 l-16 51 -67 2 c-37 1 -110 4 -162 6 -52 2 -166 7
-254 10 l-159 5 -71 -34 c-115 -55 -124 -56 -361 -61 -251 -6 -315 -16 -342
-57 -4 -7 -8 -109 -9 -226 l-1 -212 34 -38 c94 -106 129 -262 127 -577 0 -117
-11 -400 -18 -480 -2 -22 -7 -87 -10 -145 -4 -58 -9 -127 -11 -155 -3 -27 -7
-90 -10 -140 -18 -292 -45 -494 -71 -547 -8 -14 -16 -54 -18 -89 -3 -42 -12
-72 -26 -91 l-21 -28 101 -243 c95 -229 102 -242 127 -244 30 -1 63 -35 63
-62 0 -10 -18 -32 -40 -50 -22 -18 -47 -43 -56 -56 -19 -30 -18 -36 86 -420
12 -44 23 -88 25 -98 2 -9 6 -21 9 -26 14 -22 -81 -71 -125 -64 -29 4 -32 -1
-44 -89 -4 -28 -2 -61 5 -82 19 -59 13 -308 -8 -327 -4 -3 -40 -34 -80 -69
l-73 -62 -42 39 c-23 21 -79 67 -124 101 -46 35 -83 68 -83 75 0 7 -27 37 -60
66 -130 116 -131 213 -4 331 l60 55 -48 102 c-97 206 -97 204 -94 558 2 171 0
334 -4 363 -6 44 -4 58 12 78 17 21 28 24 79 24 l60 0 -6 68 c-10 128 -17 177
-26 194 -15 28 -17 118 -4 175 8 33 29 73 60 115 46 61 61 90 71 133 5 21 5
181 0 250 -15 194 -23 532 -31 1290 l-6 580 -62 82 -62 83 -216 0 c-119 0
-243 3 -276 6 -56 6 -61 5 -94 -24z m-169 -458 c0 -38 15 -74 35 -86 13 -8 14
-50 18 -790 l2 -287 26 -28 c41 -43 60 -89 71 -167 5 -39 19 -107 30 -151 34
-129 42 -619 13 -735 -2 -8 -7 -51 -10 -95 -4 -44 -10 -98 -15 -119 -8 -37 -7
-101 4 -176 3 -19 8 -64 12 -100 3 -36 8 -74 10 -85 15 -74 19 -140 18 -285 0
-172 -12 -484 -19 -510 -5 -20 -12 -70 -21 -154 -7 -75 -27 -106 -66 -106 -13
0 -58 -8 -100 -19 l-77 -18 -33 34 c-51 53 -64 57 -169 54 l-96 -3 -39 46
c-44 52 -60 57 -74 21 -12 -33 -60 -36 -124 -10 -43 18 -50 27 -112 154 -80
165 -91 172 -172 99 l-42 -39 -31 18 c-17 10 -35 23 -40 29 -9 11 -14 180 -19
619 -1 83 -6 168 -10 190 -5 22 -12 56 -15 75 -3 19 -14 67 -24 105 -10 39
-21 86 -25 105 -3 19 -8 46 -11 60 -12 59 -28 147 -31 170 -2 14 -10 59 -17
100 -12 65 -11 87 4 176 10 56 20 119 24 141 7 47 10 66 29 178 9 50 18 108
21 130 4 22 8 47 10 55 2 8 7 36 10 62 4 26 10 60 15 75 7 24 9 20 10 -27 1
-30 3 -68 5 -85 2 -16 4 -60 5 -97 2 -38 5 -68 9 -68 4 0 6 105 5 233 l-1 232
54 154 c53 154 107 341 119 414 11 71 32 114 81 165 26 27 120 124 207 216
l159 166 194 0 193 0 0 -36z m2412 -16 l108 -31 16 -46 c8 -25 27 -75 41 -111
14 -36 33 -88 43 -117 10 -29 27 -65 38 -80 78 -114 109 -183 141 -308 18 -69
18 -71 -5 -155 -12 -47 -46 -138 -74 -203 -28 -65 -53 -128 -55 -140 -16 -89
-22 -149 -24 -220 l-2 -82 -50 -49 -51 -48 -34 18 -34 19 -23 -27 c-30 -36
-55 -46 -102 -41 -22 2 -101 6 -175 9 l-135 6 -39 63 -39 63 -2 258 -2 259
-35 132 c-33 126 -34 133 -18 165 54 111 61 149 59 299 l-2 144 56 94 55 95
104 32 c57 17 110 32 118 33 8 1 63 -13 122 -31z m-3438 -1152 c-3 -21 -9 -35
-11 -32 -3 3 -2 21 1 42 4 20 10 34 12 31 3 -3 2 -21 -2 -41z m3196 -977 l135
-3 385 -194 386 -194 13 -56 c7 -32 24 -103 37 -159 53 -224 72 -309 79 -340
6 -28 0 -41 -41 -95 -91 -120 -95 -123 -165 -102 -11 3 -36 -20 -78 -71 -34
-42 -68 -74 -74 -72 -7 2 -25 27 -42 55 -16 29 -36 52 -45 52 -40 -1 -91 -75
-114 -168 -14 -52 -9 -50 -106 -38 -76 10 -106 13 -175 21 -59 6 -73 8 -170
20 -81 10 -107 13 -170 21 -33 4 -69 8 -80 9 -11 1 -27 3 -36 4 -10 1 -29 29
-48 74 -32 74 -32 74 -26 198 8 157 13 212 25 274 18 89 20 99 20 130 1 16 -2
48 -6 70 -4 22 -8 99 -8 170 0 177 34 307 97 366 22 21 58 39 67 34 3 -2 66
-5 140 -6z"/>
</g>
</svg>
